<?xml version="1.0" encoding="UTF-8"?>
<svg id="Layer_1" data-name="Layer 1" xmlns="http://www.w3.org/2000/svg" version="1.1" viewBox="0 0 769.77 777.39">
  <defs>
    <style>
      .cls-1 {
        fill: #000;
        stroke-width: 0px;
      }
    </style>
  </defs>
  <path class="cls-1" d="M455.19,213.51c4.26-6.37,8.61-12.68,13.15-18.86,1.08-1.47,2.17-2.94,3.28-4.39.72-.95,2.07-3.81.1-.14.41-.76,1.15-1.47,1.69-2.15,2.38-2.99,4.82-5.94,7.33-8.84,4.99-5.76,10.26-11.29,15.85-16.47,2.79-2.59,5.67-5.09,8.62-7.48.65-.53,1.38-1.33,2.13-1.7-3.25,1.57-1.41,1.09-.3.26,1.72-1.28,3.48-2.52,5.26-3.72,6.23-4.2,12.82-7.87,19.68-10.94,3.06-1.36-.49-.13-.48.18,0-.15,2.21-.88,2.49-.99,1.67-.64,3.35-1.24,5.04-1.81,3.71-1.23,7.48-2.28,11.3-3.11,1.73-.38,3.46-.71,5.21-1s2.86.41-.71.05c.8.08,1.81-.22,2.63-.3,3.85-.38,7.72-.53,11.59-.43,1.76.05,3.52.15,5.27.3.69.06,2,.47,2.63.27l-2.28-.31c.7.1,1.4.21,2.1.33,3.73.64,7.41,1.54,11.02,2.67,1.9.59,3.78,1.25,5.64,1.96.66.25,1.35.6,2.02.8-4.22-1.23-.99-.41.06.07,3.47,1.59,6.86,3.35,10.16,5.26s6.55,3.97,9.71,6.14c1.5,1.03,2.99,2.09,4.46,3.17.59.43,1.17.87,1.75,1.3.58.44,1.16.88,1.74,1.32-2.03-1.57-2.36-1.82-1-.75,10.77,8.77,20.75,18.33,29.63,29.03,1.05,1.27,2.08,2.56,3.12,3.85.67.84,1.4,2.39-.75-.99.52.82,1.21,1.59,1.79,2.37,2.17,2.91,4.25,5.89,6.26,8.91,3.83,5.77,7.37,11.73,10.59,17.86,1.53,2.91,2.99,5.87,4.38,8.85.69,1.49,1.35,3,2.02,4.5,1.12,2.52-.42-.95-.5-1.21.37,1.24,1.01,2.45,1.48,3.65,2.52,6.41,4.7,12.95,6.51,19.6s3.25,13.35,4.3,20.14c.1.65.19,1.29.29,1.94.55,3.58-.48-4.08-.07-.49.19,1.62.37,3.25.52,4.87.33,3.58.55,7.17.66,10.77.2,6.88,0,13.78-.66,20.63-.12,1.24-1.05,4.3-.59,5.3-.54-1.14.49-3.35.15-1.15-.17,1.07-.32,2.14-.5,3.21-.64,3.92-1.41,7.81-2.31,11.68-1.71,7.38-3.85,14.66-6.37,21.8-1.2,3.41-2.49,6.79-3.86,10.14-.16.4-1.78,3.41-.43,1.04s-.3.66-.46,1.03c-.88,1.99-1.78,3.97-2.71,5.94-6.54,13.84-14.3,27.07-22.88,39.74-4.33,6.39-8.7,12.99-13.67,18.91,2.94-3.51-1.19,1.51-1.75,2.22-1.21,1.53-2.44,3.06-3.67,4.58-2.71,3.35-5.45,6.66-8.23,9.94-10.62,12.56-21.7,24.72-32.83,36.83-22.16,24.09-44.15,48.24-64.37,74.01-20.68,26.36-40.03,53.73-57.66,82.23-17.05,27.57-34.81,56.68-42.55,88.49-2.1,8.64-3.38,17.55-3.87,26.43l30.68-8.31c-25.22-34.57-52.65-67.51-82.37-98.3-28.86-29.91-59.79-57.83-92.51-83.47-15.69-12.3-31.76-24.07-47.9-35.75-7.53-5.45-15.07-10.9-22.56-16.41-3.68-2.71-7.35-5.43-11.01-8.17-1.69-1.27-3.39-2.55-5.07-3.83-.91-.69-1.81-1.38-2.72-2.08-.39-.3-.77-.6-1.16-.89-1.61-1.23,3.33,2.59.63.49-14.24-11.08-28.15-22.6-41.17-35.1-6.39-6.14-12.57-12.51-18.43-19.15-2.91-3.29-5.74-6.66-8.49-10.09-.68-.86-1.36-1.72-2.04-2.58-1.1-1.4,1.23,1.62,1.14,1.47-.33-.51-.77-1.01-1.13-1.5-1.32-1.75-2.61-3.52-3.87-5.3-5.07-7.15-9.73-14.59-13.89-22.31-2.1-3.89-4.06-7.85-5.89-11.87-.46-1.01-.89-2.04-1.35-3.05-.74-1.64.78,1.89.72,1.74-.23-.59-.49-1.18-.73-1.77-.82-2.03-1.61-4.07-2.36-6.13-2.95-8.1-5.28-16.43-7-24.88-.43-2.1-.82-4.22-1.17-6.34-.18-1.06-.34-2.12-.5-3.18-.54-3.65.35,2.99.03.28-.53-4.42-.94-8.84-1.18-13.29-.45-8.59-.32-17.21.36-25.79.16-2,.35-3.99.57-5.98.12-1.07.26-2.14.38-3.21.21-1.84-.3,2.33-.29,2.08.04-.75.22-1.54.33-2.29.64-4.28,1.41-8.53,2.31-12.76,1.81-8.48,4.14-16.86,6.96-25.06,1.42-4.11,3-8.15,4.61-12.2.67-1.67-.84,1.96-.76,1.78.25-.57.49-1.14.74-1.71.37-.85.75-1.71,1.13-2.56.96-2.13,1.95-4.24,2.98-6.33,3.83-7.82,8.13-15.41,12.87-22.71,2.37-3.65,4.85-7.23,7.44-10.72.65-.87,1.33-1.72,1.96-2.61.1-.15-2.26,2.88-1.15,1.49.39-.49.77-.98,1.15-1.46,1.35-1.7,2.74-3.38,4.14-5.04,5.72-6.74,11.88-13.12,18.44-19.05,3.5-3.17,7.13-6.2,10.83-9.13,2.39-1.9-2.43,1.8.03,0,1-.73,1.98-1.48,2.98-2.21,2.15-1.56,4.32-3.07,6.53-4.55,8.23-5.5,16.86-10.41,25.82-14.62.96-.45,1.92-.89,2.89-1.33.48-.22,4.41-1.9,1.91-.86s1.35-.54,1.94-.78c1.31-.52,2.62-1.02,3.95-1.51,4.61-1.71,9.3-3.23,14.04-4.55s9.51-2.43,14.34-3.34c2.24-.42,4.49-.76,6.74-1.11s-3.48.41-1.25.17c.52-.06,1.04-.13,1.56-.19,1.39-.16,2.79-.3,4.18-.42,9.58-.82,19.23-.75,28.79.29.78.08,4.56.56,1.71.19s1.11.19,1.69.29c2.26.37,4.51.8,6.75,1.27,4.48.95,8.91,2.11,13.28,3.47s8.59,3.16,12.92,4.66c-.25-.09-3.74-1.63-1.22-.51.45.2.9.39,1.35.59,1.05.47,2.09.94,3.12,1.43,2.07.98,4.12,2,6.15,3.07,4.05,2.14,8.01,4.46,11.85,6.95,1.92,1.24,3.82,2.53,5.68,3.86.93.66,1.86,1.34,2.77,2.03,2.93,2.19-1.93-1.57.17.12,7.27,5.85,14.06,12.23,20.17,19.3,1.39,1.61,2.73,3.25,4.06,4.91,1.79,2.23-2.06-2.75.11.18.8,1.08,1.59,2.18,2.36,3.28,2.74,3.93,5.28,7.99,7.62,12.17,2.34,4.19,4.36,8.51,6.39,12.86.76,1.64-.67-1.65-.65-1.58.15.61.55,1.33.78,1.9.38.95.76,1.91,1.12,2.87.91,2.4,1.76,4.82,2.54,7.26,1.47,4.56,2.72,9.19,3.76,13.87.48,2.17.92,4.35,1.31,6.54.21,1.18.4,2.36.59,3.55.08.51.13,1.02.23,1.52-.88-4.58-.25-1.93-.12-.81,1.14,9.51,1.4,19.13.74,28.68-.16,2.39-.39,4.77-.67,7.15-.06.51-.14,1.02-.19,1.53-.01.13.54-3.69.24-1.84-.19,1.18-.36,2.37-.56,3.55-.81,4.72-1.86,9.4-3.12,14.02,10.59,2.92,21.17,5.84,31.76,8.75,3.09-17.69,8.76-34.92,15.51-51.53.13-.33,1.29-3.48,1.43-3.46-.21-.03-1.62,3.77.02,0,.99-2.27,2-4.53,3.04-6.78,1.89-4.1,3.87-8.16,5.94-12.17,3.98-7.71,8.3-15.25,13.1-22.48,4.78-7.19,1.65-18.54-5.91-22.53-8.27-4.37-17.43-1.77-22.53,5.91-10.75,16.19-19.09,33.82-26.45,51.76-6.94,16.91-12.77,34.48-15.91,52.52-.78,4.46-.71,8.65,1.66,12.69,2,3.42,5.92,6.67,9.84,7.57,8.68,1.98,17.83-2.61,20.26-11.5,11.26-41.36,5.75-86.47-14.47-124.19-19.67-36.69-53.83-64.07-92.9-77.73-39.51-13.81-83.44-10.86-121.82,5.15s-71.81,42.94-96.2,77.28c-22.06,31.07-35.53,67.55-40.31,105.24-4.79,37.78,1.39,75.94,17.47,110.4,15.87,34.02,41.39,62.94,69.32,87.63s60.54,47.43,91.57,70.09c7.84,5.73,15.64,11.5,23.35,17.42.44.34.88.69,1.32,1.02-.33-.24-2.95-2.29-.69-.53.88.68,1.76,1.37,2.63,2.05,2.19,1.72,4.38,3.44,6.55,5.18,4.21,3.36,8.38,6.75,12.53,10.18,16.44,13.61,32.39,27.8,47.82,42.54,31,29.61,59.89,61.42,86.36,95.14.8,1.02,1.6,2.05,2.4,3.07.34.44.67.89,1.02,1.32-.26-.32-2.28-2.96-.53-.69,1.47,1.91,2.93,3.83,4.39,5.75,3.25,4.29,6.45,8.61,9.62,12.96,4.19,5.75,11.21,9.96,18.6,7.57s11.68-8.35,12.09-15.88c.11-2.05.26-4.1.48-6.14l.06-.56c.22-1.83.16-1.48-.17,1.05-.27-.45.42-2.77.51-3.31.68-4.03,1.58-8.02,2.64-11.97.97-3.6,2.08-7.16,3.31-10.68.62-1.77,1.26-3.52,1.94-5.27.4-1.05.83-2.09,1.24-3.14,1.31-3.37-1.26,2.83.08-.22,6.58-14.93,14.53-29.15,22.83-43.18,17.01-28.8,35.7-56.6,55.93-83.23,1.29-1.69,2.56-3.39,3.88-5.07-.28.35-2.24,2.87-.44.58.71-.91,1.43-1.83,2.14-2.74,2.63-3.35,5.27-6.67,7.95-9.98,5.23-6.46,10.55-12.85,15.96-19.16,10.94-12.76,22.31-25.15,33.69-37.52,23.35-25.35,46.71-50.78,66.77-78.88,18.8-26.32,34.49-55.52,43.19-86.8,8.49-30.51,9.37-62.33,2.67-93.27-6.19-28.56-18.96-56.14-36.38-79.57-9.13-12.27-19.15-23.78-30.61-33.94-12.04-10.68-25.29-20.67-39.84-27.65-15.93-7.65-33.07-12.15-50.85-11.47-17.63.67-34.44,5.48-50.33,12.98-30.31,14.32-53.47,39.68-73.01,66.26-4.54,6.18-8.89,12.49-13.15,18.86-4.8,7.18-1.63,18.55,5.91,22.53,8.29,4.38,17.41,1.75,22.53-5.91Z"/>
  <path class="cls-1" d="M665.51,558.21c-20.66,17.83-39.88,37.31-57.45,58.19-18.37,21.84-35.16,45.07-49.86,69.53-7.94,13.21-15.28,26.78-21.99,40.65-1.2,1.89-1.85,3.93-1.95,6.12-.49,2.19-.39,4.38.29,6.57,1.05,3.82,4.01,7.96,7.57,9.84,3.82,2.02,8.45,3.03,12.69,1.66,3.9-1.26,7.99-3.74,9.84-7.57,12.08-24.94,26.18-48.9,42.12-71.57,4.47-6.36,9.09-12.62,13.85-18.77l-2.57,3.33c16.44-21.25,34.52-41.22,54.07-59.65,5.45-5.14,11.02-10.16,16.69-15.05,1.61-1.49,2.74-3.26,3.4-5.3,1.03-1.96,1.5-4.08,1.42-6.34,0-4.04-1.79-8.86-4.82-11.64s-7.26-5.02-11.64-4.82l-4.38.59c-2.79.78-5.21,2.19-7.27,4.23h0Z"/>
  <path class="cls-1" d="M749.04,115.7c-3.39-8.63-7.25-17.05-12.01-25.02s-10.18-15.3-16.04-22.35c-10.94-13.15-24.23-24.49-38.67-33.63-6.67-4.23-13.69-7.91-20.95-11.01-9.04-3.85-18.18-7.18-27.77-9.37-18.41-4.21-37.65-5.46-56.4-3.11-10.05,1.26-19.94,3.02-29.64,5.98-9.64,2.95-19.09,6.83-28.05,11.45-1.92.99-3.81,2.02-5.68,3.09-3.57,2.05-6.48,5.88-7.57,9.84-.69,2.19-.78,4.38-.29,6.57.1,2.19.75,4.23,1.95,6.12,2.27,3.52,5.64,6.61,9.84,7.57s8.76.59,12.69-1.66c5.07-2.9,10.31-5.49,15.69-7.77l-3.93,1.66c12.19-5.12,25.03-8.57,38.13-10.34l-4.38.59c13.38-1.77,26.96-1.79,40.35.01l-4.38-.59c12.51,1.72,24.76,5.02,36.41,9.91l-3.93-1.66c11.67,4.94,22.65,11.41,32.7,19.14l-3.33-2.57c10.23,7.91,19.43,17.1,27.35,27.33l-2.57-3.33c7.66,9.94,14.07,20.8,18.98,32.36l-1.66-3.93c.49,1.16.96,2.32,1.42,3.49.51,2.14,1.49,4.01,2.95,5.6,1.16,1.79,2.7,3.21,4.62,4.24,3.53,2.07,8.73,2.94,12.69,1.66s7.83-3.76,9.84-7.57,3.25-8.64,1.66-12.69h0Z"/>
  <path class="cls-1" d="M222.65,34.63c-16.52-3.6-33.65-5.01-50.52-3.67s-33.79,4.76-49.68,10.94c-14.98,5.83-29.14,13.24-41.92,23.03-6.63,5.08-13.04,10.35-18.97,16.26-5.92,5.91-11.22,12.3-16.31,18.92-4.27,5.54-8.19,11.35-11.71,17.39-4.21,7.24-7.68,14.81-10.89,22.54-.67,1.62-1.31,3.24-1.93,4.88-.69,2.19-.78,4.38-.29,6.57.1,2.19.75,4.23,1.95,6.12,2,3.42,5.92,6.67,9.84,7.57,4.22.96,8.95.75,12.69-1.66l3.33-2.57c2.04-2.05,3.45-4.48,4.23-7.27.73-1.94,1.5-3.87,2.3-5.78l-1.66,3.93c5.31-12.53,12.25-24.33,20.56-35.11l-2.57,3.33c8.34-10.76,18-20.45,28.76-28.79l-3.33,2.57c10.56-8.15,22.12-14.93,34.4-20.14l-3.93,1.66c13.01-5.48,26.71-9.2,40.7-11.11l-4.38.59c14.13-1.89,28.48-1.93,42.61-.04l-4.38-.59c4.14.56,8.25,1.29,12.33,2.18,4.32.94,8.8.61,12.69-1.66,3.42-2,6.67-5.92,7.57-9.84.96-4.22.75-8.95-1.66-12.69-2.25-3.5-5.65-6.66-9.84-7.57h0Z"/>
  <path class="cls-1" d="M300.6,726.58c-6.67-12.83-14.22-25.2-22.57-37.01-9.08-12.83-18.97-25.15-29.67-36.67-9.84-10.6-20.38-20.55-31.53-29.76-12.13-10.02-24.84-19.36-38.18-27.7-12.26-7.66-25.04-14.5-38.24-20.42-1.66-.75-3.34-1.48-5.01-2.2-1.89-1.2-3.93-1.85-6.12-1.95-2.19-.49-4.38-.39-6.57.29-3.82,1.05-7.96,4.01-9.84,7.57-2.02,3.82-3.03,8.45-1.66,12.69l1.66,3.93c1.46,2.47,3.43,4.44,5.91,5.91,19.4,8.31,37.95,18.58,55.34,30.55,4.94,3.4,9.78,6.94,14.52,10.6l-3.33-2.57c17.11,13.24,32.91,28.16,47.09,44.49,4.01,4.62,7.89,9.36,11.64,14.21l-2.57-3.33c9.04,11.7,17.29,24.01,24.63,36.85,2.1,3.68,4.13,7.4,6.08,11.15,1.85,3.56,6.05,6.52,9.84,7.57,2.19.69,4.38.78,6.57.29,2.19-.1,4.23-.75,6.12-1.95,3.52-2.27,6.61-5.64,7.57-9.84,1.01-4.44.46-8.61-1.66-12.69h0Z"/>
</svg>