<?xml version="1.0" encoding="UTF-8"?>
<svg id="Layer_1" data-name="Layer 1" xmlns="http://www.w3.org/2000/svg" version="1.1" viewBox="0 0 769.77 777.39">
  <defs>
    <style>
      .cls-1 {
        fill: #000;
        stroke-width: 0px;
      }
    </style>
  </defs>
  <path class="cls-1" d="M176.75,711.49c-4.99-3.29-9.89-6.7-14.69-10.25-1.05-.78-2.09-1.56-3.14-2.35-.32-.24-2.2-1.68-.86-.65s-.53-.42-.84-.66c-2.35-1.84-4.67-3.72-6.96-5.63-9.04-7.51-17.68-15.5-25.88-23.92s-15.96-17.28-23.24-26.5c-.56-.71-2.53-3.31-.98-1.25-.9-1.19-1.81-2.38-2.7-3.57-1.78-2.4-3.54-4.81-5.26-7.25-3.44-4.88-6.75-9.85-9.93-14.91-6.26-9.95-12-20.23-17.19-30.77-2.55-5.19-4.96-10.45-7.25-15.76-1.02-2.34-.14-.32.05.13-.28-.69-.57-1.38-.86-2.07-.57-1.38-1.12-2.77-1.67-4.15-1.09-2.78-2.15-5.57-3.17-8.37-4.05-11.17-7.5-22.56-10.3-34.11-1.55-6.4-2.91-12.86-4.05-19.34-.56-3.14-1.06-6.29-1.52-9.45-.05-.36-.42-3.01-.2-1.37s-.13-1.01-.17-1.37c-.24-1.9-.46-3.8-.66-5.71-1.38-13.11-1.91-26.31-1.54-39.49.19-6.79.63-13.56,1.32-20.32.17-1.69.36-3.37.56-5.05.1-.84.21-1.68.32-2.52-.03.24-.3,2.03-.05.44.56-3.56,1.08-7.11,1.74-10.65,2.38-12.89,5.73-25.61,10.11-37.97,1.13-3.19,2.33-6.37,3.6-9.51.24-.59.49-1.18.72-1.77.8-2-.71,1.57.09-.22.68-1.53,1.34-3.06,2.04-4.58,2.47-5.4,5.15-10.7,8.03-15.89,5.59-10.08,11.99-19.62,18.89-28.85-1.83,2.44.95-1.19,1.32-1.65.93-1.16,1.87-2.31,2.82-3.45,1.9-2.28,3.84-4.53,5.82-6.74,3.84-4.29,7.83-8.43,11.97-12.44,4.27-4.13,8.69-8.1,13.25-11.91,2.14-1.78,4.31-3.53,6.51-5.24-2.09,1.62.53-.38,1.26-.92,1.34-1,2.69-1.98,4.05-2.95,9.53-6.77,19.55-12.85,29.99-18.12,2.53-1.28,5.07-2.51,7.65-3.69,1.52-.7,3.04-1.37,4.57-2.04.4-.17,2.39-.98.23-.1.77-.31,1.54-.63,2.32-.94,6.19-2.48,12.49-4.7,18.86-6.65s12.84-3.62,19.36-5.02c2.85-.61,5.72-1.17,8.59-1.68,1.64-.29,3.29-.56,4.94-.82.82-.13,1.65-.25,2.47-.37,2.59-.4-.85.08.75-.11,13.08-1.5,26.15-2.24,39.32-1.75,6.46.24,12.9.74,19.32,1.5.38.04,2.98.36,1.31.15-1.67-.21.93.13,1.3.19,1.44.21,2.89.43,4.32.67,3.5.58,6.98,1.23,10.44,1.97,6.32,1.34,12.58,2.96,18.77,4.81,9.02,2.69,16.36-4.57,17.09-13.02,4.61-53.75,9.21-107.5,13.82-161.24-6.77,3.89-13.54,7.77-20.31,11.66,53.31,28.8,106.61,57.6,159.92,86.4,53.31,28.8,106.61,57.6,159.92,86.4,29.92,16.16,59.84,32.33,89.76,48.49,1.07-8.22,2.15-16.45,3.22-24.67-57.88,24.31-113.05,54.47-164.41,90.61-51.43,36.18-99.13,77.7-141.7,123.99-24.11,26.22-46.56,53.96-67.31,82.9l24.67,3.22c-14.21-48.76-28.43-97.52-42.64-146.29-4.07-13.96-8.14-27.93-12.21-41.89-2.08-7.13-9.43-11.22-16.61-9.43-56.29,14.04-105.92,48.78-140.17,95.33-17.28,23.48-29.5,50.2-38.11,77.98-9.1,29.35-14.11,60.43-13.8,91.19.36,34.62,7.72,69.37,24.53,99.83,3.42,6.19,12.45,8.73,18.47,4.84,6.27-4.04,8.5-11.85,4.84-18.47-1.63-2.95-3.18-5.93-4.63-8.97-.72-1.52-1.42-3.05-2.1-4.59-.29-.66-1.25-3.03-.18-.39-.42-1.04-.85-2.08-1.25-3.13-2.52-6.48-4.65-13.12-6.4-19.85-1.77-6.8-3.17-13.69-4.23-20.64-.11-.76-.22-1.51-.33-2.27.43,2.96.05.35-.04-.4-.21-1.71-.4-3.43-.57-5.15-.36-3.64-.63-7.29-.81-10.95-.74-14.59-.15-29.23,1.56-43.74.1-.86.69-5.21.26-2.24.25-1.75.5-3.49.77-5.23.58-3.67,1.22-7.34,1.94-10.99,1.43-7.27,3.12-14.49,5.07-21.64,1.83-6.7,3.89-13.34,6.17-19.91,1.13-3.24,2.31-6.47,3.55-9.67.68-1.77,1.38-3.52,2.1-5.28.28-.7.58-1.39.86-2.09-1.2,2.92.25-.57.4-.92,5.3-12.17,11.7-23.85,19.07-34.9,1.79-2.69,3.64-5.33,5.54-7.94.95-1.3,1.93-2.59,2.89-3.88,1.29-1.74-1.99,2.48.19-.25.56-.7,1.11-1.41,1.68-2.1,4.16-5.17,8.55-10.16,13.13-14.97,4.71-4.93,9.63-9.67,14.74-14.18,2.42-2.14,4.89-4.23,7.39-6.27,1.11-.91,2.24-1.8,3.37-2.69,1.96-1.55.2-.15-.18.13.86-.65,1.72-1.3,2.58-1.94,12.1-8.98,25.05-16.82,38.64-23.34,1.62-.78,3.24-1.53,4.88-2.27.65-.3,1.31-.59,1.97-.88,1.13-.5,2.89-1.24.73-.34,3.64-1.52,7.32-2.95,11.03-4.28,7.1-2.54,14.32-4.71,21.63-6.53-5.54-3.14-11.07-6.29-16.61-9.43,14.21,48.76,28.43,97.52,42.64,146.29l12.21,41.89c1.51,5.18,5.9,8.95,11.22,9.67,5.68.76,10.21-1.92,13.45-6.45,4.54-6.33,9.16-12.6,13.87-18.81,1.06-1.4,2.13-2.78,3.19-4.18,1.39-1.82-1.92,2.46.39-.5.48-.61.96-1.23,1.44-1.84,2.52-3.22,5.06-6.43,7.62-9.61,9.65-11.98,19.62-23.7,29.9-35.14,20.3-22.6,41.81-44.11,64.38-64.44,11.29-10.16,22.84-20.03,34.65-29.59,2.88-2.33,5.77-4.64,8.67-6.93,1.38-1.09,2.76-2.17,4.14-3.24.28-.22,3.36-2.59.96-.75.93-.71,1.85-1.42,2.78-2.13,5.88-4.49,11.82-8.91,17.81-13.25,24.92-18.04,50.81-34.76,77.51-50.04,14.87-8.51,30-16.57,45.36-24.17,7.51-3.71,15.07-7.31,22.68-10.8,3.89-1.78,7.8-3.54,11.72-5.26,1.96-.86,3.92-1.72,5.89-2.56.72-.31,1.43-.62,2.15-.92.72-.31,1.43-.61,2.15-.92q-1.43.6,0,0c5.13-2.15,8.88-5.35,9.67-11.22.69-5.16-1.69-10.88-6.45-13.45-53.31-28.8-106.61-57.6-159.92-86.4-53.31-28.8-106.61-57.6-159.92-86.4-29.92-16.16-59.84-32.33-89.76-48.49-9.53-5.15-19.44,1.45-20.31,11.66-4.61,53.75-9.21,107.5-13.82,161.24,5.7-4.34,11.39-8.68,17.09-13.02-53.28-15.92-112.45-13.62-164.12,7.12-47.87,19.22-88.76,52.72-117.23,95.75-30.29,45.79-43.53,101.28-41.62,155.85,1.85,53.07,17.2,105.26,43.01,151.58,24.43,43.83,58.29,81.97,98.6,111.79,4.8,3.55,9.71,6.96,14.69,10.25,5.91,3.9,15.19,1.37,18.47-4.84,3.57-6.76,1.46-14.31-4.84-18.47Z"/>
</svg>