<?xml version="1.0" encoding="UTF-8"?>
<svg id="Layer_1" data-name="Layer 1" xmlns="http://www.w3.org/2000/svg" version="1.1" viewBox="0 0 769.77 777.39">
  <defs>
    <style>
      .cls-1 {
        fill: #fff;
        stroke-width: 0px;
      }
    </style>
  </defs>
  <path class="cls-1" d="M428.58,10.95c-21.24,50.25-42.49,100.51-63.73,150.76-21.29,50.37-42.57,100.74-63.88,151.1-20.67,48.86-41.51,97.68-64.47,145.52-22.69,47.28-47.88,93.27-73.4,139.07-25.44,45.65-51.14,91.19-74.64,137.89-2.96,5.88-5.88,11.79-8.77,17.71-2.94,6.02-2.06,12.93,3.43,17.18,5.19,4.01,12.75,3.68,17.48-1.04,17.18-17.14,35.96-32.57,54.96-47.63,2.22-1.76,4.44-3.5,6.66-5.25,1.03-.8,2.06-1.61,3.09-2.41.69-.53,1.37-1.07,2.06-1.6.18-.14,2.11-1.63,1.24-.96-1,.77.7-.54.72-.56.52-.4,1.04-.8,1.55-1.19,1.21-.93,2.42-1.86,3.63-2.78,2.25-1.72,4.51-3.43,6.78-5.14,9.25-6.98,18.57-13.85,27.96-20.63,38.1-27.5,77.31-53.43,117.2-78.24,40.25-25.03,81.19-48.92,122.51-72.13,41.88-23.53,84.15-46.36,126.54-68.96,42.28-22.55,84.69-44.86,126.97-67.4,10.55-5.62,21.09-11.26,31.62-16.92s23.26-13.82,21.94-27.47-13.02-20.25-25.16-22.33-25.7-2.67-38.48-3.8c-52.29-4.62-104.6-9.04-156.93-13.25-52.1-4.19-104.21-8.19-156.34-11.98-52.39-3.81-104.79-7.42-157.21-10.83-52.18-3.39-104.38-6.58-156.59-9.57-12.81-.73-25.62-1.45-38.42-2.16-11.24-.62-17.95,15.2-9.41,22.73,18.21,16.06,39.31,28,61,38.68s45.17,21.5,67.54,32.68c45.48,22.73,90.21,46.91,134.31,72.21,43.51,24.96,86.4,51.01,128.81,77.78,42.38,26.75,84.3,54.23,125.96,82.1,41.51,27.77,82.75,55.91,123.97,84.11,5.05,3.45,10.1,6.91,15.15,10.36,10.93,7.48,25.45-7.32,18.22-18.22-26.85-40.45-51.92-82.05-75.47-124.5-23.4-42.18-45.32-85.18-66.18-128.67s-40.27-86.66-59.32-130.47-36.4-85.2-55.02-129.76c-18.72-44.82-37.39-89.66-56.49-134.31-2.3-5.37-4.6-10.74-6.91-16.11-2.77-6.42-12.68-8.34-18.22-4.78-6.67,4.3-7.74,11.35-4.78,18.22,4.71,10.94,9.39,21.89,14.05,32.85,4.91,11.55,8.75,20.65,13.09,30.97,9.24,21.96,18.42,43.94,27.59,65.93,18.73,44.85,37.46,89.7,56.7,134.32,18.91,43.86,38.33,87.5,58.73,130.68s41.98,86.28,64.88,128.43c23.24,42.77,47.96,84.76,74.46,125.6,3.26,5.03,6.56,10.04,9.87,15.04,6.07-6.07,12.14-12.14,18.22-18.22-41.01-28.06-82.02-56.12-123.26-83.84-41.38-27.82-83-55.3-125.05-82.1s-84.97-53.19-128.28-78.41-87.95-49.81-132.95-72.79c-22.44-11.46-45.07-22.51-67.83-33.29-21.44-10.15-43.1-20.39-62.49-34.18-1.02-.73-2.04-1.47-3.05-2.22-.25-.19-2.33-1.75-1.15-.85,1.07.82-.56-.44-.62-.49-2.26-1.81-4.48-3.67-6.66-5.59l-9.41,22.73c51.48,2.85,102.94,5.89,154.4,9.13,51.44,3.24,102.87,6.67,154.29,10.3,51.4,3.63,102.79,7.45,154.16,11.47s102.7,8.23,154.03,12.64c25.53,2.19,51.07,4.42,76.59,6.73.32.03,3.23.57,3.44.33-.04.05-2.59-.42-1.03-.14.67.12,1.35.22,2.02.35,1.27.24,5.47.61,6.27,1.69.09.12-2.3-1.33-1.04-.42.31.23.82.47,1.18.63.8.35,1.67,1.58-.64-.61.61.58.56,1.05.03-.19-.71-1.67-.37-.53-.15-.09-.45-.9-.74-1.7-.84-2.69s.01-1.77.26-2.71c-.44,1.66.11-.01.39-.69-.78,1.88,1.35-1.08-.33.35-.53.45-1.04.94-1.57,1.4.19-.16,1.77-1.15.5-.45-2.17,1.19-4.23,2.6-6.42,3.78-5.16,2.78-10.33,5.55-15.5,8.31-41.64,22.29-83.42,44.29-125.12,66.45-41.66,22.14-83.24,44.43-124.5,67.31-40.94,22.71-81.56,46-121.57,70.32s-78.41,49.02-116.33,75.47c-38.41,26.78-76.28,54.8-111.84,85.3-8.88,7.62-17.54,15.5-25.82,23.76,6.97,5.38,13.94,10.76,20.91,16.13,22.9-46.94,48.28-92.61,73.72-138.2,25.6-45.89,51.28-91.76,74.55-138.89,23.52-47.62,44.69-96.35,65.45-145.22s42.25-99.91,63.37-149.87c21.24-50.25,42.49-100.51,63.73-150.76,2.69-6.37,5.38-12.73,8.07-19.1s2.14-14.56-4.78-18.22c-5.7-3.01-15.32-2.07-18.22,4.78h0Z"/>
</svg>