<?xml version="1.0" encoding="UTF-8"?>
<svg id="Layer_1" data-name="Layer 1" xmlns="http://www.w3.org/2000/svg" version="1.1" viewBox="0 0 769.77 777.39">
  <defs>
    <style>
      .cls-1 {
        fill: #fff;
        stroke-width: 0px;
      }
    </style>
  </defs>
  <path class="cls-1" d="M416.88,16.49c-16.77,49.82-34.67,99.25-53.7,148.24-9.59,24.68-19.46,49.25-29.6,73.7-1.22,2.93-2.44,5.86-3.66,8.78-.61,1.46-1.23,2.93-1.84,4.39-.26.63-.53,1.25-.79,1.88-.12.28-1.45,3.44-.89,2.11.52-1.24-.35.82-.36.86-.35.84-.71,1.67-1.06,2.5-.62,1.46-1.24,2.92-1.86,4.38-1.33,3.13-2.67,6.26-4.01,9.38-5.19,12.1-10.44,24.16-15.76,36.2-21.44,48.49-43.99,96.5-67.6,143.98-23.72,47.71-48.52,94.89-74.34,141.5-25.96,46.85-52.97,93.12-80.98,138.78-3.5,5.7-7.01,11.39-10.54,17.07,7.95,4.65,15.9,9.29,23.84,13.94,2.82-5.32,5.98-10.44,9.45-15.36.85-1.2,1.72-2.37,2.58-3.55.26-.35,1.59-2.07.14-.21.39-.5.78-.99,1.18-1.49,1.98-2.48,4.03-4.91,6.13-7.3,8.25-9.4,17.27-18.11,26.47-26.57,18.82-17.31,38.11-34.12,57.52-50.76,19.54-16.76,39.32-33.26,59.31-49.48,10.03-8.14,20.11-16.21,30.25-24.21,5.25-4.14,10.52-8.27,15.8-12.38,1.06-.82,2.11-1.64,3.17-2.46.71-.55,1.41-1.09,2.12-1.64.27-.21,2.06-1.59.38-.3,2.47-1.91,4.95-3.82,7.43-5.72,41.46-31.8,83.78-62.47,126.88-92.01,43.25-29.64,87.29-58.13,132.04-85.46,22.47-13.72,45.18-27,67.88-40.34,22.47-13.21,44.83-26.73,65.75-42.31,5.74-4.27,11.39-8.67,16.92-13.22,8.24-6.77,3.21-20.55-6.09-23.08-40.95-11.11-84.71-8.05-126.68-7.83-43.23.22-86.46.45-129.7.67-86.96.45-173.91.9-260.87,1.34-49.13.25-98.25.51-147.38.76-5.53.03-10.49,3.45-12.62,8.49-1.97,4.67-1.38,11.62,2.85,15.08,19.83,16.21,41.44,29.8,63.21,43.2,21.68,13.34,42.94,27.12,63.34,42.36,2.39,1.79,4.78,3.59,7.16,5.39,1.28.97,2.56,1.95,3.83,2.93.55.42,1.09.84,1.64,1.26.75.58.73.56-.07-.06l1.09.84c5.07,3.94,10.12,7.9,15.16,11.88,10.07,7.96,20.09,15.98,30.19,23.9,20.05,15.73,40.45,30.97,61.46,45.38,40.87,28.04,83.49,53.43,126.71,77.67,43.49,24.39,87.63,47.61,131.56,71.18,22.05,11.83,44.06,23.75,65.92,35.96,10.84,6.05,21.69,12.1,32.35,18.46,5.27,3.14,10.49,6.39,15.6,9.8,2.53,1.69,5.02,3.43,7.48,5.21,1.05.76,2.09,1.53,3.12,2.31,2.16,1.63.72.57.27.21.67.53,1.34,1.07,2.01,1.61,4.61,3.75,9,7.76,13.13,12.04,5.03,5.2,14.54,5.43,19.52,0,5.32-5.8,5.11-13.73,0-19.52-7.58-8.59-14.9-17.39-21.95-26.42-.4-.51-.79-1.02-1.19-1.52.16.21,1.14,1.5.2.25-.77-1.03-1.56-2.04-2.34-3.07-1.81-2.39-3.59-4.79-5.36-7.21-3.27-4.47-6.48-8.99-9.63-13.55-12.73-18.45-24.43-37.61-35.19-57.27-10.59-19.34-20.27-39.17-29.19-59.33-1.1-2.49-2.19-4.99-3.27-7.49-.5-1.15-.99-2.31-1.49-3.46-.3-.7-1.76-4.17-.81-1.91-2.17-5.22-4.33-10.44-6.42-15.69-4.11-10.29-8.05-20.64-11.84-31.05-15.46-42.43-28.41-85.72-40.63-129.17-13.16-46.77-25.53-93.77-39.46-140.33-14.19-47.41-30.16-94.25-49.68-139.74-2.39-5.56-4.83-11.09-7.33-16.61-2.99-6.6-13.07-8.7-18.89-4.95-6.82,4.4-8.15,11.83-4.95,18.89,2.5,5.51,4.94,11.05,7.33,16.61.37.85.73,1.71,1.1,2.56,0,0,.89,2.11.39.92s.38.91.38.92c.27.64.54,1.28.8,1.93,1.25,3,2.48,6,3.69,9.01,4.59,11.37,8.97,22.82,13.16,34.35,8.36,22.97,15.99,46.2,23.16,69.57,14.26,46.46,26.74,93.43,39.76,140.24,12.33,44.33,25.19,88.54,40.52,131.95,14.97,42.36,32.2,84.07,52.99,123.92,21.19,40.61,46.3,79.11,75.61,114.35,3.6,4.33,7.28,8.61,11,12.83,6.51-6.51,13.02-13.02,19.52-19.52-17.44-18.05-39.27-31.14-60.93-43.47-21.72-12.36-43.64-24.39-65.63-36.27-43.89-23.72-88.08-46.87-131.77-70.96s-86.48-48.91-127.92-76.29c-20.58-13.6-40.76-27.81-60.38-42.78-1.28-.98-2.55-1.95-3.83-2.93,0,0-1.79-1.38-.78-.6s-.78-.61-.78-.61c-2.72-2.11-5.43-4.23-8.14-6.35-5.05-3.96-10.08-7.95-15.11-11.94-9.88-7.84-19.74-15.69-29.7-23.42-20.83-16.15-42.05-31.69-64.36-45.75-21.08-13.28-42.7-25.77-62.96-40.33-2.5-1.8-4.97-3.63-7.43-5.49-.05-.04-1.77-1.37-.69-.53s-.62-.5-.68-.54c-1.37-1.09-2.73-2.19-4.09-3.29-3.25,7.86-6.51,15.71-9.76,23.57,86.96-.45,173.91-.9,260.87-1.34,86.46-.45,172.93-.89,259.39-1.34,23.69-.12,47.39-.45,71.08-.29,11.54.08,23.09.4,34.59,1.45,2.74.25,5.47.55,8.21.88,4.46.53-2.67-.47,1.77.25,1.35.22,2.71.42,4.06.65,5.84.99,11.62,2.27,17.34,3.82-2.03-7.69-4.06-15.38-6.09-23.08-2.39,1.97-4.81,3.9-7.25,5.81,1.8-1.41-1.48,1.13-1.96,1.49-1.42,1.07-2.84,2.13-4.28,3.18-5.22,3.83-10.52,7.54-15.89,11.15-11.02,7.42-22.31,14.42-33.7,21.26-22.56,13.54-45.4,26.59-67.93,40.18-45.13,27.22-89.54,55.62-133.17,85.19-43.29,29.33-85.8,59.81-127.47,91.41-41.91,31.79-83.01,64.64-123.15,98.65-19.58,16.59-38.94,33.45-58.06,50.57-19.29,17.27-38.41,34.86-53.42,56.12-3.47,4.92-6.63,10.04-9.45,15.36-3.38,6.38-1.82,15.31,4.95,18.89,6.76,3.57,14.82,1.61,18.89-4.95,28.39-45.73,55.79-92.08,82.13-139.03,26.2-46.7,51.37-93.97,75.45-141.8,23.97-47.58,46.87-95.71,68.66-144.33,21.9-48.86,42.72-98.22,62.4-148.02,19.41-49.12,37.7-98.68,54.83-148.64,2.12-6.18,4.22-12.36,6.3-18.55,2.31-6.85-2.65-15.39-9.64-16.98-7.64-1.74-14.51,2.31-16.98,9.64h0Z"/>
</svg>