<?xml version="1.0" encoding="UTF-8"?>
<svg id="Layer_1" data-name="Layer 1" xmlns="http://www.w3.org/2000/svg" version="1.1" viewBox="0 0 769.77 777.39">
  <defs>
    <style>
      .cls-1 {
        fill: #fff;
        stroke-width: 0px;
      }
    </style>
  </defs>
  <path class="cls-1" d="M412.66,115.56c2.02-4.31,4.04-8.61,6.06-12.92,3.04-6.49,2.03-15.1-4.92-18.78-6.36-3.36-15.17-1.84-18.78,4.92-22.75,42.75-46.01,85.23-69.79,127.42-23.78,42.19-48.08,84.08-72.88,125.68s-49.87,82.49-75.56,123.27c-25.81,40.98-52.11,81.64-78.91,121.98-26.8,40.34-54.09,80.35-81.87,120.02-3.46,4.93-6.92,9.86-10.39,14.79s-2.05,12.78,2.15,16.63c4.57,4.19,11.13,5.22,16.63,2.15,41.94-23.41,83.92-46.73,126.13-69.65,42.02-22.82,84.26-45.23,126.88-66.92,42.76-21.76,85.9-42.78,129.55-62.7,21.8-9.95,43.72-19.63,65.77-28.98.51-.22,3.59-1.52,1.76-.75,1.26-.53,2.52-1.06,3.78-1.59,2.94-1.24,5.89-2.47,8.84-3.69,5.48-2.27,10.96-4.52,16.46-6.76,11.2-4.55,22.44-9.01,33.71-13.37,44.65-17.29,89.92-32.54,135.49-47.19,23.78-7.64,47.37-15.73,70.37-25.52,5.6-2.38,11.42-4.49,16.01-8.63,5.53-4.99,8.32-13.43,6.22-20.69-3.29-11.33-14.79-18.66-25.74-21.33-12.16-2.96-24.6-5.05-36.86-7.56-12.7-2.6-25.39-5.2-38.09-7.8-25.15-5.15-50.31-10.3-75.46-15.45-49.92-10.22-99.83-20.52-149.78-30.64-50.23-10.17-100.63-19.67-151.57-25.49-50.28-5.75-100.99-7.28-151.51-4.29-12.27.73-24.52,1.72-36.75,2.96-5.6.57-10.25,3-12.54,8.44-2.3,5.44-.74,10.57,2.84,14.99,23.2,28.73,50.34,53.85,77.9,78.3,28.23,25.05,56.46,49.97,83.2,76.64,54.72,54.58,104.76,113.57,154.78,172.41,25.76,30.3,52.4,60.85,87.21,81.06,9.06,5.26,20.56-1.45,20.65-11.85.73-85.29-3.08-170.6-11.44-255.49s-21.35-170.83-38.8-255.07c-9.68-46.73-20.77-93.17-33.22-139.24-1.87-6.93-9.85-11.86-16.88-9.58-7.1,2.3-11.59,9.46-9.58,16.88,22.19,82.11,40.03,165.38,53.37,249.39,1.63,10.27,3.2,20.54,4.69,30.83.75,5.14,1.48,10.29,2.2,15.44.33,2.34.65,4.68.96,7.02,0,.04.62,4.66.27,1.97.25,1.87.5,3.75.74,5.62,2.7,20.61,5.14,41.26,7.3,61.94,4.43,42.29,7.74,84.71,9.91,127.18,2.44,47.66,3.44,95.39,3.03,143.12l20.65-11.85c-3.59-2.09-7.12-4.27-10.56-6.59-1.72-1.16-3.42-2.34-5.1-3.55-1.01-.73-2.01-1.46-3-2.21-.16-.12-3.34-2.62-1.16-.88-6.81-5.45-13.37-11.16-19.66-17.21-12.65-12.18-24.27-25.38-35.67-38.71-24.6-28.75-48.97-57.7-73.94-86.14-25.47-29.02-51.49-57.58-78.59-85.09-26.32-26.71-53.94-51.91-82.05-76.7-30.92-27.27-61.82-54.87-87.79-87.04-3.23,7.81-6.47,15.62-9.7,23.43,49.4-5,99.21-5.83,148.74-2.34,12.24.86,24.46,1.99,36.65,3.35,6.21.69,12.41,1.44,18.61,2.25.71.09,1.43.19,2.14.28,0,0,2.34.31,1.03.14s1.04.14,1.03.14c.71.1,1.43.2,2.14.3,3.33.46,6.66.94,9.99,1.43,24.51,3.61,48.9,7.94,73.23,12.6,48.87,9.37,97.57,19.69,146.32,29.67,49.35,10.1,98.7,20.2,148.05,30.3,12.22,2.5,24.44,5,36.65,7.5,2.86.58,5.76,1.07,8.58,1.8.97.25,1.89.63,2.85.89,1.58.43-1-.32-.91-.42.08-.08,1.68.82,1.85.91.23.12,2.58,1.59,2.6,1.56-.12.12-1.87-1.79-.84-.68.38.41.88.98,1.35,1.27,1.08.66-.61-.85-.76-1.09.48.8.26,1.12.09-.21-.23-1.83-.24-.72-.13-.17-.29-1.38-.4-2.87.03-4.24,0,.02,1.4-2.65.6-1.31-.73,1.22.58-.77.61-.8.21-.23,1.98-1.13.69-.61-.47.19-.93.54-1.38.77-2.67,1.38-5.49,2.5-8.24,3.69,0,0-2.09.9-.91.39s-.91.38-.91.38c-1.28.53-2.56,1.06-3.84,1.58-2.78,1.13-5.57,2.23-8.36,3.31-11.19,4.33-22.52,8.3-33.91,12.09-22.5,7.5-45.2,14.42-67.68,21.99-22.28,7.5-44.42,15.41-66.42,23.68-44.45,16.73-88.33,34.95-131.72,54.25-42.99,19.13-85.47,39.37-127.56,60.4-42.15,21.06-83.91,42.89-125.43,65.19-41.52,22.3-82.79,45.06-123.97,67.97-9.99,5.56-19.97,11.12-29.95,16.69l18.78,18.78c27.89-39.59,55.31-79.51,82.23-119.77s53.35-80.84,79.28-121.74c25.81-40.7,51.12-81.72,75.93-123.04,24.93-41.52,49.35-83.34,73.26-125.45,23.91-42.11,47.31-84.52,70.18-127.21,2.85-5.31,5.68-10.63,8.51-15.94-7.9-4.62-15.8-9.23-23.7-13.85l-6.06,12.92c-3.04,6.49-2.03,15.1,4.92,18.78,6.08,3.21,15.52,2.02,18.78-4.92h0Z"/>
</svg>