<?xml version="1.0" encoding="UTF-8"?>
<svg id="Layer_1" data-name="Layer 1" xmlns="http://www.w3.org/2000/svg" version="1.1" viewBox="0 0 769.77 777.39">
  <defs>
    <style>
      .cls-1 {
        fill: #fff;
        stroke-width: 0px;
      }
    </style>
  </defs>
  <path class="cls-1" d="M369.54,76.16c-1.12,2.69-2.25,5.38-3.38,8.07-.63,1.49-.01.03.1-.23-.35.83-.7,1.65-1.05,2.48-.61,1.45-1.23,2.89-1.85,4.34-2.38,5.58-4.78,11.15-7.2,16.72-4.94,11.35-9.96,22.67-15.06,33.95-10.05,22.22-20.42,44.29-31.1,66.21-21.6,44.34-44.47,88.06-68.53,131.12-23.9,42.76-49.17,84.7-74.84,126.41-25.47,41.37-51.22,82.58-75.86,124.46-24.38,41.43-47.71,83.53-68.37,126.95-2.55,5.36-5.05,10.73-7.52,16.13-2.93,6.4-2.27,13.47,3.59,18,5.92,4.57,12.76,3.27,18.32-1.09,1.08-.84,2.16-1.69,3.24-2.53.7-.55,3.49-2.7,1.35-1.05,2.17-1.67,4.35-3.34,6.54-4.99,4.53-3.43,9.1-6.83,13.68-10.19,9.05-6.63,18.2-13.11,27.44-19.47,18.46-12.69,37.28-24.84,56.39-36.52,38.84-23.74,78.84-45.55,119.5-66,41.66-20.95,84.02-40.49,126.72-59.2,10.83-4.74,21.68-9.44,32.54-14.08,5.35-2.29,10.7-4.57,16.06-6.83,1.34-.57,2.68-1.13,4.02-1.7-2.35.99,1.13-.48,1.84-.78,2.69-1.13,5.37-2.26,8.06-3.39,21.93-9.19,43.91-18.24,65.92-27.22,43.69-17.83,87.48-35.4,131.15-53.27,21.94-8.98,43.84-18.03,65.68-27.24,6.08-2.56,12.15-5.13,18.22-7.71,5.61-2.39,11.37-4.38,15.76-8.83,5.07-5.14,7.34-13.08,4.84-19.97-2.24-6.17-6.92-10.8-12.6-13.96-11.26-6.25-23.82-6.81-36.34-8.11-13.26-1.38-26.52-2.75-39.78-4.13-26.99-2.8-53.99-5.61-80.98-8.41-53.51-5.56-107.02-11.12-160.53-16.67-53.75-5.58-107.5-11.16-161.24-16.75-53.15-5.52-106.32-11.76-159.72-14.4-12.91-.64-25.82-1.04-38.75-1.17-11.19-.11-16.56,11.78-12.05,20.99,17.94,36.62,51.78,62.73,83.89,86.32,34.14,25.07,68.64,49.62,102.52,75.05,8.61,6.46,17.19,12.96,25.73,19.5,2.05,1.57,4.09,3.14,6.14,4.71.17.13,3.54,2.73,1.26.97,1.02.79,2.04,1.58,3.06,2.37,4.41,3.42,8.8,6.85,13.19,10.29,16.79,13.18,33.41,26.58,49.8,40.26,31.95,26.66,63.05,54.37,92.66,83.61,16.43,16.22,32.4,32.92,47.77,50.15,7.6,8.53,15.06,17.19,22.35,25.99,3.63,4.38,7.21,8.79,10.75,13.24,1.77,2.22,3.52,4.45,5.27,6.68.22.28,2.69,3.47.79,1.01.99,1.28,1.97,2.57,2.95,3.85,3.67,4.81,9.41,8.47,15.76,6.41,5.63-1.82,10.59-7.18,10.24-13.45-2.57-46.31-11.46-91.96-20.69-137.32-9.16-45.04-17.88-90.16-25.66-135.46s-14.61-89.73-20.75-134.77c-.19-1.39-.38-2.78-.57-4.18-.62-4.58.36,2.72-.25-1.86-.37-2.78-.74-5.57-1.11-8.35-.79-6.03-1.57-12.07-2.34-18.1-1.41-11.14-2.78-22.29-4.09-33.44-2.69-22.76-5.17-45.54-7.46-68.34-5.13-51.13-9.24-102.37-12.35-153.67-.44-7.27-6.1-14.3-13.95-13.95-7.18.32-14.43,6.15-13.95,13.95,5.55,91.45,14.29,182.7,26.24,273.54,12.02,91.44,27.12,182.45,45.42,272.84,5.09,25.13,10.36,50.22,14.74,75.49,1.03,5.96,2.01,11.92,2.93,17.89.49,3.21.97,6.43,1.42,9.65.02.15.64,4.69.26,1.81.25,1.84.48,3.68.71,5.52,1.61,12.87,2.81,25.79,3.53,38.74,8.67-2.35,17.33-4.69,26-7.04-50.51-66.24-109.94-124.8-173.28-178.7-65.68-55.89-135.21-107.06-205.11-157.49-9.26-6.68-18.52-13.36-27.6-20.27-.97-.74-1.94-1.48-2.9-2.22,2.43,1.88-1.56-1.23-1.97-1.56-2.22-1.75-4.42-3.52-6.6-5.31-4.32-3.54-8.57-7.17-12.71-10.92-8.03-7.27-15.69-14.99-22.56-23.37-.72-.88-1.42-1.76-2.13-2.65,2.13,2.67-.86-1.17-1.22-1.66-1.53-2.1-3.01-4.24-4.43-6.43-2.81-4.32-5.34-8.81-7.6-13.43l-12.05,20.99c52.38.53,104.53,5.82,156.59,11.23,52.79,5.48,105.58,10.97,158.37,16.45,53.04,5.51,106.08,11.02,159.11,16.53,52.8,5.48,105.6,10.97,158.4,16.45,6.39.66,12.79,1.33,19.18,1.99.81.08,2.02.07,2.84.3.04.01-2.96-.51-1.35-.18,1.13.23,2.27.42,3.39.69s2.27.6,3.38.96c.48.15.94.33,1.42.48,1.9.62-.03-.35-.6-.31.7-.04,2.28,1.11,2.91,1.47.38.22.75.48,1.13.69,2.04,1.11-.72-.35-.83-.71.09.3.69.48.84.78.63,1.28-1.1-1.62-1.02-1.48,1.05,1.87-.49-1.6-.5-1.64.49,1.82-.19-1.83-.19-1.94,0-1.61.5-3.21,1.26-4.6-.3.56-.95,1,.16-.12.05-.05,1.63-1.91,1.79-1.69.03.05-1.59.92-1.82,1.04-2.42,1.25-5,2.22-7.51,3.28-2.67,1.14-5.34,2.27-8.01,3.4-1.14.48-2.29.97-3.43,1.45-.46.19-2.47,1.04-.1.04-.76.32-1.53.64-2.29.97-5.35,2.26-10.71,4.5-16.07,6.74-10.75,4.49-21.5,8.94-32.27,13.37-43.04,17.71-86.23,35.06-129.34,52.59-43.77,17.79-87.47,35.78-130.88,54.47-42.2,18.17-84.11,37.04-125.41,57.17-40.55,19.76-80.52,40.74-119.46,63.5-38.31,22.39-75.63,46.51-111.33,72.87-9.15,6.76-18.19,13.67-27.14,20.69,7.3,5.64,14.61,11.27,21.91,16.91,20.06-43.86,42.95-86.35,67.12-128.06,24.45-42.21,50.2-83.65,75.81-125.17s51.14-83.29,75.26-125.79c24.48-43.14,47.76-86.96,69.76-131.42,21.81-44.06,42.36-88.74,61.6-133.99,2.67-6.27,5.31-12.56,7.94-18.85,2.82-6.76-3.04-15.63-9.74-17.16-8.15-1.86-14.14,2.51-17.16,9.74h0Z"/>
</svg>