<?xml version="1.0" encoding="UTF-8"?>
<svg id="Layer_1" data-name="Layer 1" xmlns="http://www.w3.org/2000/svg" xmlns:xlink="http://www.w3.org/1999/xlink" viewBox="0 0 1920 593.18">
  <defs>
    <style>
      .cls-1 {
        clip-path: url(#clippath-2);
      }

      .cls-2 {
        fill: #f3f7ff;
      }

      .cls-2, .cls-3, .cls-4 {
        stroke-width: 0px;
      }

      .cls-3 {
        fill: none;
      }

      .cls-4 {
        fill: #c1d0e9;
      }

      .cls-5 {
        opacity: .8;
      }

      .cls-6 {
        clip-path: url(#clippath-1);
      }

      .cls-7 {
        clip-path: url(#clippath-4);
      }

      .cls-8 {
        clip-path: url(#clippath);
      }

      .cls-9 {
        clip-path: url(#clippath-3);
      }

      .cls-10 {
        clip-path: url(#clippath-5);
      }
    </style>
    <clipPath id="clippath">
      <path class="cls-3" d="M24.26,470.03c-.22,26.81,27.86,48.78,62.73,49.08,11.68.1,22.64-2.25,32.06-6.42,3.71,14.97,20.74,26.38,41.3,26.55,12.57.11,23.89-4.01,31.69-10.63,10.67,21.53,37.65,36.95,69.36,37.22,24.72.21,46.73-8.85,60.44-22.96,17.87,13.57,42.32,22.03,69.35,22.26,19.81.17,38.3-4.11,53.9-11.63,22.98,23.79,59.63,39.34,101.05,39.69,51.61.43,96.23-22.88,116.37-56.73,7.17,4.44,16.25,7.13,26.15,7.21,9.42.08,18.14-2.22,25.21-6.16,18.07,18.58,46.79,30.71,79.23,30.98,33.31.28,62.91-12.01,81.2-31.14,11.19,2.92,23.36,4.56,36.12,4.67,55.13.46,100.07-28.07,100.37-63.73.04-4.37-.6-8.66-1.85-12.8,10.97-8.64,17.77-20.43,17.87-33.48.22-26.82-27.86-48.79-62.73-49.08-14.52-.12-27.92,3.54-38.64,9.78-7.04-10.26-21-17.32-37.13-17.45-7.36-.06-14.28,1.32-20.32,3.81-7.02-20.79-31.48-36.26-60.71-36.51-12.15-.1-23.51,2.44-33.18,6.94,1.34-5.58,2.07-11.33,2.12-17.21.45-53.91-56.02-98.09-126.14-98.68-66.17-.55-120.83,37.92-127.16,87.56-5.14-1.77-10.82-2.77-16.79-2.82-15.95-.13-29.88,6.53-37.19,16.48-18.17-16.56-45.25-27.19-75.57-27.44-55.13-.46-100.12,33.53-100.47,75.92-.04,4.26.38,8.44,1.22,12.52-.44,0-.88-.02-1.32-.02-21.05-.18-39.77,7.59-51.34,19.69-7.65-8.02-19.94-13.28-33.83-13.39-5.92-.05-11.57.84-16.7,2.49-12.5-7.47-28.14-11.97-45.14-12.11-28.56-.24-53.48,11.87-66.2,29.87-31,2.84-55.09,23.02-55.3,47.68Z"/>
    </clipPath>
    <clipPath id="clippath-1">
      <path class="cls-3" d="M741.85,366.85c-2.08,29.53,20.17,55.15,49.69,57.24,9.89.7,19.34-1.33,27.62-5.45,2.09,16.68,15.71,30.11,33.12,31.34,10.64.75,20.52-3.21,27.61-10.11,7.52,24.26,29.29,42.61,56.15,44.51,20.94,1.48,40.22-7.39,52.84-22.24,14.19,15.85,34.31,26.41,57.2,28.03,16.77,1.18,32.75-2.6,46.49-10.09,17.79,27.37,47.75,46.36,82.82,48.83,43.71,3.08,83.16-20.34,102.62-56.61,5.76,5.25,13.27,8.67,21.65,9.27s15.53-1.52,21.79-5.51c14,21.38,37.48,36.2,64.95,38.14,28.21,1.99,54.16-10.06,71.01-30.21,9.28,3.78,19.47,6.21,30.28,6.97,46.69,3.29,86.78-25.87,89.55-65.14.34-4.82.1-9.57-.66-14.19,9.9-8.96,16.5-21.61,17.51-35.98,2.08-29.53-20.16-55.16-49.69-57.24-12.29-.87-23.91,2.48-33.43,8.82-5.24-11.66-16.58-20.14-30.23-21.1-6.23-.44-12.19.74-17.49,3.17-4.48-23.26-24.12-41.54-48.87-43.29-10.29-.73-20.1,1.5-28.61,5.96,1.53-6.08,2.55-12.38,3.01-18.85,4.19-59.37-40.54-110.9-99.92-115.09-56.03-3.95-105.07,35.67-113.93,90.04-4.23-2.21-8.97-3.6-14.03-3.95-13.51-.95-25.78,5.68-32.68,16.28-14.23-19.17-36.42-32.24-62.1-34.05-46.69-3.29-87.2,31.88-90.5,78.56-.33,4.69-.27,9.32.15,13.86-.37-.03-.74-.07-1.12-.09-17.83-1.26-34.24,6.36-44.9,19.09-5.91-9.22-15.96-15.63-27.72-16.46-5.01-.35-9.86.34-14.33,1.9-10.06-8.86-23-14.61-37.4-15.62-24.18-1.71-46.15,10.38-58.2,29.56-26.47,1.57-48.31,22.57-50.22,49.74Z"/>
    </clipPath>
    <clipPath id="clippath-2">
      <path class="cls-3" d="M422,236.94c-.19,26.81,23.91,48.78,53.84,49.08,10.02.1,19.43-2.25,27.51-6.42,3.18,14.97,17.8,26.38,35.44,26.55,10.79.11,20.5-4.01,27.2-10.63,9.15,21.53,32.31,36.95,59.53,37.22,21.22.21,40.1-8.85,51.87-22.96,15.34,13.57,36.32,22.03,59.52,22.26,17,.17,32.87-4.11,46.26-11.63,19.72,23.79,51.17,39.34,86.72,39.69,44.3.43,82.59-22.88,99.87-56.73,6.15,4.44,13.95,7.13,22.44,7.21,8.08.08,15.57-2.22,21.63-6.16,15.51,18.58,40.16,30.71,68,30.98,28.59.28,54-12.01,69.69-31.14,9.6,2.92,20.05,4.56,31,4.67,47.32.46,85.88-28.07,86.14-63.73.03-4.37-.51-8.66-1.59-12.8,9.41-8.64,15.25-20.43,15.34-33.48.19-26.82-23.91-48.79-53.84-49.08-12.46-.12-23.96,3.54-33.16,9.78-6.05-10.26-18.03-17.32-31.87-17.45-6.31-.06-12.25,1.32-17.44,3.81-6.02-20.79-27.02-36.26-52.1-36.51-10.43-.1-20.18,2.44-28.48,6.94,1.15-5.58,1.77-11.33,1.82-17.21.39-53.91-48.08-98.09-108.25-98.68-56.79-.55-103.7,37.92-109.13,87.56-4.41-1.77-9.28-2.77-14.41-2.82-13.69-.13-25.65,6.53-31.92,16.48-15.6-16.56-38.83-27.19-64.86-27.44-47.32-.46-85.92,33.53-86.23,75.92-.03,4.26.33,8.44,1.05,12.52-.37,0-.76-.02-1.14-.02-18.07-.18-34.13,7.59-44.07,19.69-6.56-8.02-17.11-13.28-29.04-13.39-5.08-.05-9.93.84-14.34,2.49-10.73-7.47-24.15-11.97-38.74-12.11-24.51-.24-45.9,11.87-56.81,29.87-26.6,2.84-47.28,23.02-47.46,47.68Z"/>
    </clipPath>
    <clipPath id="clippath-3">
      <path class="cls-3" d="M1269.67,266.99c-2.08,29.53,20.17,55.15,49.69,57.24,9.89.7,19.34-1.33,27.62-5.45,2.09,16.68,15.71,30.11,33.12,31.34,10.64.75,20.52-3.21,27.61-10.11,7.52,24.26,29.29,42.61,56.15,44.51,20.94,1.48,40.22-7.39,52.84-22.24,14.19,15.85,34.31,26.41,57.2,28.03,16.77,1.18,32.75-2.6,46.49-10.09,17.79,27.37,47.75,46.36,82.82,48.83,43.71,3.08,83.16-20.34,102.62-56.61,5.76,5.25,13.27,8.67,21.65,9.27,7.98.56,15.53-1.52,21.79-5.51,14,21.38,37.48,36.2,64.95,38.14,28.21,1.99,54.16-10.06,71.01-30.21,9.28,3.78,19.47,6.21,30.28,6.97,46.69,3.29,86.78-25.87,89.55-65.14.34-4.82.1-9.57-.66-14.19,9.9-8.96,16.5-21.61,17.51-35.98,2.08-29.53-20.16-55.16-49.69-57.24-12.29-.87-23.91,2.48-33.43,8.82-5.24-11.66-16.58-20.14-30.23-21.1-6.23-.44-12.19.74-17.49,3.17-4.48-23.26-24.12-41.54-48.87-43.29-10.29-.73-20.1,1.5-28.61,5.96,1.53-6.08,2.55-12.38,3.01-18.85,4.19-59.37-40.54-110.9-99.92-115.09-56.03-3.95-105.07,35.67-113.93,90.04-4.23-2.21-8.97-3.6-14.03-3.95-13.51-.95-25.78,5.68-32.68,16.28-14.23-19.17-36.42-32.24-62.1-34.05-46.69-3.29-87.2,31.88-90.5,78.56-.33,4.69-.27,9.32.15,13.86-.37-.03-.74-.07-1.12-.09-17.83-1.26-34.24,6.36-44.9,19.09-5.91-9.22-15.96-15.63-27.72-16.46-5.01-.35-9.86.34-14.33,1.9-10.06-8.86-23-14.61-37.4-15.62-24.18-1.71-46.15,10.38-58.2,29.56-26.47,1.57-48.31,22.57-50.22,49.74Z"/>
    </clipPath>
    <clipPath id="clippath-4">
      <path class="cls-3" d="M2009.77,427.67c.22,26.81-27.86,48.78-62.73,49.08-11.68.1-22.64-2.25-32.06-6.42-3.71,14.97-20.74,26.38-41.3,26.55-12.57.11-23.89-4.01-31.69-10.63-10.67,21.53-37.65,36.95-69.36,37.22-24.72.21-46.73-8.85-60.44-22.96-17.87,13.57-42.32,22.03-69.35,22.26-19.81.17-38.3-4.11-53.9-11.63-22.98,23.79-59.63,39.34-101.05,39.69-51.61.43-96.23-22.88-116.37-56.73-7.17,4.44-16.25,7.13-26.15,7.21-9.42.08-18.14-2.22-25.21-6.16-18.07,18.58-46.79,30.71-79.23,30.98-33.31.28-62.91-12.01-81.2-31.14-11.19,2.92-23.36,4.56-36.12,4.67-55.13.46-100.07-28.07-100.37-63.73-.04-4.37.6-8.66,1.85-12.8-10.97-8.64-17.77-20.43-17.87-33.48-.22-26.82,27.86-48.79,62.73-49.08,14.52-.12,27.92,3.54,38.64,9.78,7.04-10.26,21-17.32,37.13-17.45,7.36-.06,14.28,1.32,20.32,3.81,7.02-20.79,31.48-36.26,60.71-36.51,12.15-.1,23.51,2.44,33.18,6.94-1.34-5.58-2.07-11.33-2.12-17.21-.45-53.91,56.02-98.09,126.14-98.68,66.17-.55,120.83,37.92,127.16,87.56,5.14-1.77,10.82-2.77,16.79-2.82,15.95-.13,29.88,6.53,37.19,16.48,18.17-16.56,45.25-27.19,75.57-27.44,55.13-.46,100.12,33.53,100.47,75.92.04,4.26-.38,8.44-1.22,12.52.44,0,.88-.02,1.32-.02,21.05-.18,39.77,7.59,51.34,19.69,7.65-8.02,19.94-13.28,33.83-13.39,5.92-.05,11.57.84,16.7,2.49,12.5-7.47,28.14-11.97,45.14-12.11,28.56-.24,53.48,11.87,66.2,29.87,31,2.84,55.09,23.02,55.3,47.68Z"/>
    </clipPath>
    <clipPath id="clippath-5">
      <path class="cls-3" d="M650.33,290.95c2.08,29.53-20.17,55.15-49.69,57.24-9.89.7-19.34-1.33-27.62-5.45-2.09,16.68-15.71,30.11-33.12,31.34-10.64.75-20.52-3.21-27.61-10.11-7.52,24.26-29.29,42.61-56.15,44.51-20.94,1.48-40.22-7.39-52.84-22.24-14.19,15.85-34.31,26.41-57.2,28.03-16.77,1.18-32.75-2.6-46.49-10.09-17.79,27.37-47.75,46.36-82.82,48.83-43.71,3.08-83.16-20.34-102.62-56.61-5.76,5.25-13.27,8.67-21.65,9.27-7.98.56-15.53-1.52-21.79-5.51-14,21.38-37.48,36.2-64.95,38.14-28.21,1.99-54.16-10.06-71.01-30.21-9.28,3.78-19.47,6.21-30.28,6.97-46.69,3.29-86.78-25.87-89.55-65.14-.34-4.82-.1-9.57.66-14.19-9.9-8.96-16.5-21.61-17.51-35.98-2.08-29.53,20.16-55.16,49.69-57.24,12.29-.87,23.91,2.48,33.43,8.82,5.24-11.66,16.58-20.14,30.23-21.1,6.23-.44,12.19.74,17.49,3.17,4.48-23.26,24.12-41.54,48.87-43.29,10.29-.73,20.1,1.5,28.61,5.96-1.53-6.08-2.55-12.38-3.01-18.85C-.76,117.83,43.97,66.3,103.34,62.11c56.03-3.95,105.07,35.67,113.93,90.04,4.23-2.21,8.97-3.6,14.03-3.95,13.51-.95,25.78,5.68,32.68,16.28,14.23-19.17,36.42-32.24,62.1-34.05,46.69-3.29,87.2,31.88,90.5,78.56.33,4.69.27,9.32-.15,13.86.37-.03.74-.07,1.12-.09,17.83-1.26,34.24,6.36,44.9,19.09,5.91-9.22,15.96-15.63,27.72-16.46,5.01-.35,9.86.34,14.33,1.9,10.06-8.86,23-14.61,37.4-15.62,24.18-1.71,46.15,10.38,58.2,29.56,26.47,1.57,48.31,22.57,50.22,49.74Z"/>
    </clipPath>
  </defs>
  <g class="cls-8">
    <path class="cls-2" d="M25.67,468.06c-.22,26.81,27.86,48.78,62.73,49.08,11.68.1,22.64-2.25,32.06-6.42,3.71,14.97,20.74,26.38,41.3,26.55,12.57.11,23.89-4.01,31.69-10.63,10.67,21.53,37.65,36.95,69.36,37.22,24.72.21,46.73-8.85,60.44-22.96,17.87,13.57,42.32,22.03,69.35,22.26,19.81.17,38.3-4.11,53.9-11.63,22.98,23.79,59.63,39.34,101.05,39.69,51.61.43,96.23-22.88,116.37-56.73,7.17,4.44,16.25,7.13,26.15,7.21,9.42.08,18.14-2.22,25.21-6.16,18.07,18.58,46.79,30.71,79.23,30.98,33.31.28,62.91-12.01,81.2-31.14,11.19,2.92,23.36,4.56,36.12,4.67,55.13.46,100.07-28.07,100.37-63.73.04-4.37-.6-8.66-1.85-12.8,10.97-8.64,17.77-20.43,17.87-33.48.22-26.82-27.86-48.79-62.73-49.08-14.52-.12-27.92,3.54-38.64,9.78-7.04-10.26-21-17.32-37.13-17.45-7.36-.06-14.28,1.32-20.32,3.81-7.02-20.79-31.48-36.26-60.71-36.51-12.15-.1-23.51,2.44-33.18,6.94,1.34-5.58,2.07-11.33,2.12-17.21.45-53.91-56.02-98.09-126.14-98.68-66.17-.55-120.83,37.92-127.16,87.56-5.14-1.77-10.82-2.77-16.79-2.82-15.95-.13-29.88,6.53-37.19,16.48-18.17-16.56-45.25-27.19-75.57-27.44-55.13-.46-100.12,33.53-100.47,75.92-.04,4.26.38,8.44,1.22,12.52-.44,0-.88-.02-1.32-.02-21.05-.18-39.77,7.59-51.34,19.69-7.65-8.02-19.94-13.28-33.83-13.39-5.92-.05-11.57.84-16.7,2.49-12.5-7.47-28.14-11.97-45.14-12.11-28.56-.24-53.48,11.87-66.2,29.87-31,2.84-55.09,23.02-55.3,47.68Z"/>
    <path class="cls-4" d="M736.78,226.31c-10.45-7.31-21.61-13.79-33.8-17.52-24.74-7.57-49.02,1.33-68.97,16.66-.83.63-1.72,1.46-1.63,2.5.12,1.38,1.82,1.94,3.19,2.16,23.87,3.94,48.38,8.17,69.12,20.63,6.21,3.73,10.38,7.96,14.42,13.85,10.09,14.73,15.03,32.88,14.43,50.68-.3,8.92-1.45,17.43-6.22,25.04-4.93,7.85-11.45,14.62-18.61,20.46-9.58,7.81-20.31,14.04-31,20.23-13,7.54-26.34,15.2-41.13,17.86,16.17-2.94,32.66-4.2,48.94-7.64,20.59-4.34,41.2-9.59,60.69-17.64,11.65-4.81,21.71-13.45,28.14-24.29,3.77-6.36,6.28-13.46,7.43-20.76.58-3.65.81-7.36.7-11.05-.11-3.62-1.19-7.2-1.3-10.73-.27-8.63-1.44-17.21-1.37-25.84.08-9.58-3.34-19.36-10.09-26.49-9.59-10.12-20.29-19.17-31.66-27.23-.42-.3-.84-.59-1.26-.89Z"/>
    <path class="cls-4" d="M488.88,375.51c6.66,1.52,13.73,1.72,20.26-.26,6.54-1.98,12.5-6.29,15.73-12.31,1.08,6.15-1.61,12.63-6.19,16.88s-10.82,6.43-17.05,6.9c-4.33.32-8.86-.18-12.6-2.4-6.25-3.71-7.25-10.12-10.83-15.7,1.55,4.07,6.74,5.99,10.67,6.89Z"/>
    <path class="cls-4" d="M677.98,560.21c1.83,4.59.92,9.93-1.41,14.29s-5.92,7.9-9.63,11.16c-24.58,21.65-56.38,34.25-88.85,38.48s-65.65.42-97.32-7.96c-13.72-3.63-28.24-8.86-36.15-20.65-1.45-2.16-2.61-4.51-3.53-6.95-.85-2.26-.9-6.52-2.17-8.38-1.7-2.47-13.22.45-16.68.82-12.61,1.35-25.29,2.27-37.98,2.03-18.22-.34-36.57-3.12-53.37-10.16-2.55-1.07-5.08-2.36-7.08-4.31-1.52-1.48-2.47-3.93-4.73-4.31-2.69-.46-7.09,1.76-9.74,2.42-3.3.83-6.63,1.6-9.96,2.3-13.89,2.89-28.1,4.48-42.3,3.97-6.5-.23-12.98-.92-19.38-2.09-14.15-2.6-27.93-7.64-40.01-15.52-5.05-3.29-8.08-7.62-14.44-6.89-7.78.9-15.46,1.3-23.28.53-4.13-.41-8.22-1.11-12.25-2.1-9.32-2.29-18.31-6.16-26.14-11.75-1.94-1.38-3.81-2.87-5.58-4.46-1.48-1.32-2.89-3.18-4.78-3.92-3.24-1.27-8.13.93-11.4,1.42-19.57,2.88-40.13-1.12-57.08-11.37-5.34-3.23-10.68-7.57-12.03-13.66-.56-2.5.14-5.82,2.63-6.38.93-.21,1.9.03,2.83.28,14.33,3.82,28.56,8.25,43.25,10.3,7.62,1.06,15.36,1.45,23.03.78,3.86-.34,7.7-.94,11.46-1.88,2.19-.54,8.72-1.54,9.66-3.73,13.82,13.8,35.55,19.05,54.14,13.09,5.99-1.92,11.69-5.07,15.76-9.95,2.59-3.11,3.45-3.61,6.1-.3,2,2.51,4.31,4.77,6.85,6.72,1.66,1.27,3.58,1.86,5.27,3.1,2.01,1.47,4.09,2.87,6.22,4.17,11.91,7.26,25.49,11.81,39.39,13.02,1.25.11,2.5.19,3.76.24,23.43,1,47.12-7.61,64.44-23.42,5.82,2.33,11.64,4.67,17.46,7,4.84,1.94,8.92,3.11,13.96,3.93,5.53.9,10.94,3.4,16.42,4.67,6.02,1.4,12.13,2.37,18.28,2.92,4.67.41,9.37.57,14.06.47,16.98-.36,34.37-4.24,48.74-13.59,1.66-1.08,3.27-2.72,5.03-3.6,2.33-1.18,1.38-.73,3.13.87,3.28,3,7.2,5.5,10.94,7.9,11.12,7.16,23.28,12,35.23,17.48,17.53,8.04,36.08,14.54,55.33,15.72,17.16,1.04,34.47-2.58,50-9.88,7.77-3.65,15.12-8.22,21.82-13.6,5.94-4.77,13.63-10.55,16.55-17.79.37-.92.68-1.87.92-2.83-.47,1.88,14.77,7.28,16.49,7.8,6.17,1.87,12.63,2.81,19.08,2.8s12.9-.95,19.06-2.86c2.84-.88,5.67-1.94,8.44-2.99,2.59-.98,3.68-2.47,5.68-4.36,2.66,6.65,8.19,10.44,14.61,13.22,24.7,10.68,52.74,9.76,79.53,7.21,12.82-1.22,25.79-2.81,37.67-7.77,8.11-3.39,13.14-8.12,16.6-16.03,12.93,4.1,26.43,4.53,39.79,2.46s26.01-6.28,38.62-10.76c10.13-3.6,20.39-7.49,29.19-13.79,7.92-5.67,16.17-12.12,13.46-23.23,16.51-8.29,31.05-20.47,42.12-35.26.27,9.39-.66,18.81-2.75,27.97-1.84,8.05-5.78,16.93-5.68,25.22.2,14.13-2.36,29.5-8.45,42.29-7.61,16-21.4,28.5-36.96,36.99-33.77,18.44-74.02,18.76-112.04,24.64-33.76,5.23-67.04,15.17-101.2,15.24-34.17.07-70.45-8.54-88.63-37.46Z"/>
    <path class="cls-4" d="M398.43,418.17c-7.76.86-15.64,1.1-23.67.72-15.6-.74-31.32-3.15-46.49-6.84-4.81-1.17-9.57-2.58-14.23-4.27-4.34-1.57-8.57-3.46-12.56-5.79-1.52-.89-3-1.83-4.45-2.84-2.61-1.82-5.17-3.95-6.42-6.88-1.24-2.91-1.02-6.2-.78-9.35,1.14-14.89,2.46-30.37,10-43.26,9.88-16.89,28.59-26.34,46.71-33.72,13.65-5.56,27.69-10.51,42.29-12.46s29.92-.77,43.26,5.51c-20.06,3.09-40.29,6.22-59.27,13.39-18.98,7.18-36.88,18.81-48.04,35.76-2.8,4.25-5.06,8.95-6.25,13.91-1.25,5.22-.65,9.63.56,14.74,1.99,8.4,13.07,13.76,20.42,16.82,4.47,1.86,9.09,3.32,13.75,4.62,22.93,6.39,46.64,10.05,70.46,10.4,2.58.04,5.15.09,7.7-.2,2.69-.3,5.7-1.16,8.38-1.16-1.37,0-3.51,1.36-4.81,1.86-12,4.65-24.13,7.65-36.55,9.03Z"/>
    <path class="cls-4" d="M210.77,443.79c1.02.15,2.05.26,3.07.34,8.52.62,17.21-1.3,24.67-5.46-.47.26-.83.82-1.19,1.22-.82.92-1.56,1.85-2.47,2.68-.97.88-2,1.7-3.07,2.45-3.5,2.48-7.47,4.29-11.66,5.25-7.92,1.81-17.3.36-24.33-3.79-7.98-4.71-10.83-11.14-9.95-19.71-.59,5.71,5.58,9.61,9.87,11.97,4.66,2.57,9.78,4.29,15.04,5.06Z"/>
  </g>
  <g class="cls-5">
    <g class="cls-6">
      <path class="cls-2" d="M741.85,366.85c-2.08,29.53,20.17,55.15,49.69,57.24,9.89.7,19.34-1.33,27.62-5.45,2.09,16.68,15.71,30.11,33.12,31.34,10.64.75,20.52-3.21,27.61-10.11,7.52,24.26,29.29,42.61,56.15,44.51,20.94,1.48,40.22-7.39,52.84-22.24,14.19,15.85,34.31,26.41,57.2,28.03,16.77,1.18,32.75-2.6,46.49-10.09,17.79,27.37,47.75,46.36,82.82,48.83,43.71,3.08,83.16-20.34,102.62-56.61,5.76,5.25,13.27,8.67,21.65,9.27s15.53-1.52,21.79-5.51c14,21.38,37.48,36.2,64.95,38.14,28.21,1.99,54.16-10.06,71.01-30.21,9.28,3.78,19.47,6.21,30.28,6.97,46.69,3.29,86.78-25.87,89.55-65.14.34-4.82.1-9.57-.66-14.19,9.9-8.96,16.5-21.61,17.51-35.98,2.08-29.53-20.16-55.16-49.69-57.24-12.29-.87-23.91,2.48-33.43,8.82-5.24-11.66-16.58-20.14-30.23-21.1-6.23-.44-12.19.74-17.49,3.17-4.48-23.26-24.12-41.54-48.87-43.29-10.29-.73-20.1,1.5-28.61,5.96,1.53-6.08,2.55-12.38,3.01-18.85,4.19-59.37-40.54-110.9-99.92-115.09-56.03-3.95-105.07,35.67-113.93,90.04-4.23-2.21-8.97-3.6-14.03-3.95-13.51-.95-25.78,5.68-32.68,16.28-14.23-19.17-36.42-32.24-62.1-34.05-46.69-3.29-87.2,31.88-90.5,78.56-.33,4.69-.27,9.32.15,13.86-.37-.03-.74-.07-1.12-.09-17.83-1.26-34.24,6.36-44.9,19.09-5.91-9.22-15.96-15.63-27.72-16.46-5.01-.35-9.86.34-14.33,1.9-10.06-8.86-23-14.61-37.4-15.62-24.18-1.71-46.15,10.38-58.2,29.56-26.47,1.57-48.31,22.57-50.22,49.74Z"/>
      <path class="cls-4" d="M1360.23,126.69c-11.09-6.3-22.8-11.72-35.28-14.3-25.33-5.23-48.68,5.89-67.12,23.01-.76.71-1.58,1.62-1.39,2.64.25,1.37,1.99,1.76,3.38,1.86,24.14,1.7,48.93,3.63,70.74,14.1,6.53,3.14,11.08,6.96,15.65,12.45,11.42,13.73,18.03,31.33,19.09,49.12.53,8.9.18,17.49-3.86,25.51s-10.04,15.63-16.63,22.11c-8.81,8.66-18.92,15.87-28.98,23.03-12.24,8.72-24.81,17.59-39.29,21.62,15.82-4.43,32.13-7.22,48.01-12.16,20.1-6.24,40.13-13.39,58.78-23.21,11.15-5.87,20.36-15.41,25.75-26.81,3.16-6.69,5-13.98,5.46-21.36.23-3.69.12-7.4-.33-11.07-.45-3.59-1.85-7.05-2.29-10.56-1.07-8.56-3.04-17-3.77-25.61-.81-9.55-5.13-18.97-12.51-25.43-10.49-9.19-21.99-17.2-34.06-24.16-.44-.26-.89-.51-1.34-.76Z"/>
      <path class="cls-4" d="M1147.38,273.57c5.46,1.25,11.25,1.41,16.61-.21s10.25-5.16,12.89-10.09c.89,5.04-1.32,10.35-5.07,13.84s-8.87,5.27-13.97,5.66c-3.55.27-7.27-.15-10.33-1.97-5.12-3.04-5.95-8.29-8.88-12.87,1.27,3.34,5.53,4.91,8.75,5.65Z"/>
      <path class="cls-4" d="M1286.44,493.65c1.28,4.82.21,10.28-1.99,14.67-2.21,4.39-5.44,7.87-8.75,11.07-21.96,21.18-49.5,32.71-77.15,35.57-27.65,2.86-55.42-2.6-81.67-12.7-11.38-4.38-23.33-10.43-29.34-22.95-1.1-2.3-1.95-4.77-2.59-7.33-.59-2.37-.39-6.76-1.36-8.74-1.29-2.63-11.18-.15-14.12.08-10.72.81-21.47,1.17-32.16.34-15.35-1.19-30.68-4.91-44.46-12.94-2.09-1.22-4.15-2.67-5.73-4.77-1.2-1.6-1.87-4.16-3.75-4.66-2.25-.6-6.09,1.48-8.35,2.05-2.84.71-5.68,1.35-8.54,1.91-11.89,2.34-23.97,3.32-35.92,2.14-5.47-.54-10.9-1.54-16.23-3.05-11.79-3.34-23.14-9.16-32.89-17.85-4.07-3.63-6.39-8.23-11.79-7.77-6.62.57-13.12.63-19.67-.53-3.46-.61-6.88-1.52-10.22-2.73-7.74-2.79-15.1-7.2-21.4-13.31-1.56-1.51-3.05-3.13-4.46-4.85-1.17-1.43-2.26-3.41-3.81-4.26-2.66-1.45-6.92.59-9.7.93-16.68,2.07-33.8-3.01-47.52-14.36-4.32-3.58-8.58-8.29-9.39-14.64-.33-2.6.44-5.99,2.58-6.45.8-.17,1.6.12,2.37.42,11.88,4.6,23.64,9.83,35.92,12.62,6.37,1.45,12.88,2.2,19.39,1.87,3.28-.17,6.55-.62,9.78-1.41,1.88-.46,7.44-1.19,8.36-3.39,10.88,14.86,28.92,21.28,44.95,15.99,5.16-1.7,10.15-4.69,13.86-9.53,2.36-3.08,3.12-3.56,5.16-.03,1.55,2.68,3.37,5.11,5.4,7.24,1.33,1.39,2.91,2.08,4.27,3.44,1.61,1.61,3.29,3.14,5.01,4.58,9.64,8.04,20.84,13.36,32.51,15.24,1.05.17,2.1.31,3.16.42,19.71,2.11,40.19-5.67,55.7-21.17,4.78,2.67,9.56,5.35,14.34,8.02,3.97,2.22,7.35,3.61,11.56,4.7,4.61,1.19,9.04,4.01,13.59,5.57,5,1.72,10.1,3.01,15.26,3.85,3.92.64,7.87,1.02,11.84,1.13,14.35.41,29.24-2.78,41.89-11.76,1.47-1.04,2.91-2.65,4.44-3.48,2.03-1.11,1.2-.69,2.59,1.04,2.6,3.25,5.76,6,8.78,8.65,8.98,7.89,18.97,13.45,28.74,19.65,14.34,9.09,29.62,16.66,45.8,18.76,14.42,1.87,29.23-1.07,42.74-7.87,6.77-3.41,13.22-7.78,19.17-13.02,5.28-4.65,12.09-10.25,14.97-17.58.37-.93.68-1.9.94-2.88-.5,1.92,12.05,8.19,13.48,8.8,5.1,2.21,10.5,3.47,15.94,3.77s10.94-.39,16.24-2.07c2.44-.77,4.89-1.74,7.29-2.7,2.24-.89,3.25-2.38,5.04-4.23,1.87,6.97,6.32,11.14,11.58,14.3,20.24,12.15,43.95,12.49,66.71,11.1,10.88-.66,21.92-1.71,32.23-6.28,7.03-3.12,11.55-7.76,14.91-15.76,10.68,4.82,22.04,5.89,33.44,4.37s22.3-5.28,33.19-9.31c8.75-3.24,17.63-6.78,25.41-12.87,7.01-5.48,14.33-11.75,12.66-23.33,14.4-7.79,27.35-19.67,37.53-34.4-.3,9.69-1.62,19.36-3.89,28.71-2,8.22-5.83,17.19-6.21,25.73-.63,14.57-3.65,30.3-9.52,43.21-7.33,16.14-19.67,28.39-33.27,36.43-29.54,17.46-63.51,15.92-95.93,20.24-28.78,3.83-57.42,12.55-86.26,11.04-28.83-1.51-58.97-12.05-72.67-42.71Z"/>
      <path class="cls-4" d="M1073.12,317.43c-7.76.86-15.64,1.1-23.67.72-15.6-.74-31.32-3.15-46.49-6.84-4.81-1.17-9.57-2.58-14.23-4.27-4.34-1.57-8.57-3.46-12.56-5.79-1.52-.89-3-1.83-4.45-2.84-2.61-1.82-5.17-3.95-6.42-6.88-1.24-2.91-1.02-6.2-.78-9.35,1.14-14.89,2.46-30.37,10-43.26,9.88-16.89,28.59-26.34,46.71-33.72,13.65-5.56,27.69-10.51,42.29-12.46,14.61-1.96,29.92-.77,43.26,5.51-20.06,3.09-40.29,6.22-59.27,13.39-18.98,7.18-36.88,18.81-48.04,35.76-2.8,4.25-5.06,8.95-6.25,13.91-1.25,5.22-.65,9.63.56,14.74,1.99,8.4,13.07,13.76,20.42,16.82,4.47,1.86,9.09,3.32,13.75,4.62,22.93,6.39,46.64,10.05,70.46,10.4,2.58.04,5.15.09,7.7-.2,2.69-.3,5.7-1.16,8.38-1.16-1.37,0-3.51,1.36-4.81,1.86-12,4.65-24.13,7.65-36.55,9.03Z"/>
      <path class="cls-4" d="M850.93,355.43c1.25-.16,2.5-.37,3.74-.6,10.3-1.97,20.17-6.46,28.03-12.75-.5.4-.78,1.04-1.11,1.54-.75,1.14-1.4,2.27-2.28,3.34-.94,1.14-1.96,2.25-3.05,3.3-3.55,3.46-7.84,6.42-12.59,8.61-8.99,4.15-20.5,5.58-29.9,3.68-10.67-2.16-15.63-7.52-16.69-16.1.7,5.71,9.01,7.62,14.7,8.62,6.18,1.08,12.7,1.21,19.16.36Z"/>
    </g>
  </g>
  <g class="cls-1">
    <path class="cls-2" d="M423.21,234.97c-.19,26.81,23.91,48.78,53.84,49.08,10.02.1,19.43-2.25,27.51-6.42,3.18,14.97,17.8,26.38,35.44,26.55,10.79.11,20.5-4.01,27.2-10.63,9.15,21.53,32.31,36.95,59.53,37.22,21.22.21,40.1-8.85,51.87-22.96,15.34,13.57,36.32,22.03,59.52,22.26,17,.17,32.87-4.11,46.26-11.63,19.72,23.79,51.17,39.34,86.72,39.69,44.3.43,82.59-22.88,99.87-56.73,6.15,4.44,13.95,7.13,22.44,7.21s15.57-2.22,21.63-6.16c15.51,18.58,40.16,30.71,68,30.98,28.59.28,54-12.01,69.69-31.14,9.6,2.92,20.05,4.56,31,4.67,47.32.46,85.88-28.07,86.14-63.73.03-4.37-.51-8.66-1.59-12.8,9.41-8.64,15.25-20.43,15.34-33.48.19-26.82-23.91-48.79-53.84-49.08-12.46-.12-23.96,3.54-33.16,9.78-6.05-10.26-18.03-17.32-31.87-17.45-6.31-.06-12.25,1.32-17.44,3.81-6.02-20.79-27.02-36.26-52.1-36.51-10.43-.1-20.18,2.44-28.48,6.94,1.15-5.58,1.77-11.33,1.82-17.21.39-53.91-48.08-98.09-108.25-98.68-56.79-.55-103.7,37.92-109.13,87.56-4.41-1.77-9.28-2.77-14.41-2.82-13.69-.13-25.65,6.53-31.92,16.48-15.6-16.56-38.83-27.19-64.86-27.44-47.32-.46-85.92,33.53-86.23,75.92-.03,4.26.33,8.44,1.05,12.52-.37,0-.76-.02-1.14-.02-18.07-.18-34.13,7.59-44.07,19.69-6.56-8.02-17.11-13.28-29.04-13.39-5.08-.05-9.93.84-14.34,2.49-10.73-7.47-24.15-11.97-38.74-12.11-24.51-.24-45.9,11.87-56.81,29.87-26.6,2.84-47.28,23.02-47.46,47.68Z"/>
    <path class="cls-4" d="M1033.51-6.78c-8.97-7.31-18.55-13.79-29.01-17.52-21.23-7.57-42.07,1.33-59.19,16.66-.71.63-1.48,1.46-1.4,2.5.11,1.38,1.56,1.94,2.74,2.16,20.49,3.94,41.52,8.17,59.32,20.63,5.33,3.73,8.91,7.96,12.37,13.85,8.66,14.73,12.9,32.88,12.38,50.68-.26,8.92-1.24,17.43-5.34,25.04-4.23,7.85-9.83,14.62-15.98,20.46-8.22,7.81-17.43,14.04-26.61,20.23-11.16,7.54-22.61,15.2-35.3,17.86,13.88-2.94,28.03-4.2,42-7.64,17.67-4.34,35.36-9.59,52.09-17.64,10-4.81,18.63-13.45,24.15-24.29,3.24-6.36,5.39-13.46,6.38-20.76.49-3.65.7-7.36.6-11.05s-1.02-7.2-1.11-10.73c-.23-8.63-1.24-17.21-1.17-25.84.07-9.58-2.87-19.36-8.66-26.49-8.23-10.12-17.41-19.17-27.17-27.23-.36-.3-.72-.59-1.08-.89Z"/>
    <path class="cls-4" d="M820.76,142.42c5.72,1.52,11.78,1.72,17.39-.26s10.73-6.29,13.5-12.31c.93,6.15-1.38,12.63-5.31,16.88-3.93,4.25-9.28,6.43-14.63,6.9-3.72.32-7.61-.18-10.81-2.4-5.36-3.71-6.22-10.12-9.3-15.7,1.33,4.07,5.79,5.99,9.16,6.89Z"/>
    <path class="cls-4" d="M983.05,327.12c1.57,4.59.79,9.93-1.21,14.29-1.99,4.36-5.08,7.9-8.26,11.16-21.1,21.65-48.38,34.25-76.26,38.48-27.88,4.23-56.35.42-83.52-7.96-11.78-3.63-24.24-8.86-31.03-20.65-1.25-2.16-2.24-4.51-3.03-6.95-.73-2.26-.77-6.52-1.86-8.38-1.46-2.47-11.34.45-14.32.82-10.82,1.35-21.7,2.27-32.59,2.03-15.63-.34-31.38-3.12-45.8-10.16-2.19-1.07-4.36-2.36-6.07-4.31-1.3-1.48-2.12-3.93-4.06-4.31-2.31-.46-6.09,1.76-8.36,2.42-2.84.83-5.69,1.6-8.55,2.3-11.92,2.89-24.12,4.48-36.31,3.97-5.58-.23-11.14-.92-16.63-2.09-12.14-2.6-23.97-7.64-34.34-15.52-4.33-3.29-6.93-7.62-12.39-6.89-6.68.9-13.27,1.3-19.98.53-3.54-.41-7.06-1.11-10.51-2.1-8-2.29-15.72-6.16-22.44-11.75-1.67-1.38-3.27-2.87-4.79-4.46-1.27-1.32-2.48-3.18-4.1-3.92-2.78-1.27-6.98.93-9.79,1.42-16.79,2.88-34.44-1.12-48.98-11.37-4.58-3.23-9.16-7.57-10.33-13.66-.48-2.5.12-5.82,2.26-6.38.8-.21,1.63.03,2.43.28,12.3,3.82,24.51,8.25,37.12,10.3,6.54,1.06,13.18,1.45,19.76.78,3.31-.34,6.61-.94,9.84-1.88,1.88-.54,7.48-1.54,8.29-3.73,11.86,13.8,30.51,19.05,46.46,13.09,5.14-1.92,10.03-5.07,13.52-9.95,2.22-3.11,2.96-3.61,5.23-.3,1.72,2.51,3.7,4.77,5.88,6.72,1.43,1.27,3.07,1.86,4.52,3.1,1.73,1.47,3.51,2.87,5.33,4.17,10.22,7.26,21.87,11.81,33.81,13.02,1.07.11,2.15.19,3.23.24,20.11,1,40.44-7.61,55.3-23.42,4.99,2.33,9.99,4.67,14.98,7,4.15,1.94,7.66,3.11,11.98,3.93,4.74.9,9.39,3.4,14.09,4.67,5.16,1.4,10.41,2.37,15.69,2.92,4.01.41,8.04.57,12.07.47,14.57-.36,29.49-4.24,41.83-13.59,1.43-1.08,2.81-2.72,4.31-3.6,2-1.18,1.18-.73,2.69.87,2.82,3,6.18,5.5,9.39,7.9,9.55,7.16,19.98,12,30.23,17.48,15.04,8.04,30.96,14.54,47.48,15.72,14.73,1.04,29.58-2.58,42.91-9.88,6.67-3.65,12.97-8.22,18.72-13.6,5.1-4.77,11.69-10.55,14.21-17.79.32-.92.59-1.87.79-2.83-.4,1.88,12.67,7.28,14.15,7.8,5.3,1.87,10.84,2.81,16.37,2.8,5.53,0,11.07-.95,16.35-2.86,2.43-.88,4.86-1.94,7.24-2.99,2.22-.98,3.16-2.47,4.88-4.36,2.29,6.65,7.02,10.44,12.54,13.22,21.2,10.68,45.26,9.76,68.26,7.21,11-1.22,22.14-2.81,32.33-7.77,6.96-3.39,11.28-8.12,14.25-16.03,11.1,4.1,22.68,4.53,34.15,2.46,11.35-2.05,22.32-6.28,33.14-10.76,8.69-3.6,17.5-7.49,25.05-13.79,6.8-5.67,13.88-12.12,11.55-23.23,14.17-8.29,26.65-20.47,36.15-35.26.23,9.39-.56,18.81-2.36,27.97-1.58,8.05-4.96,16.93-4.87,25.22.17,14.13-2.03,29.5-7.25,42.29-6.53,16-18.37,28.5-31.72,36.99-28.98,18.44-63.52,18.76-96.16,24.64-28.98,5.23-57.54,15.17-86.86,15.24-29.32.07-60.46-8.54-76.06-37.46Z"/>
    <path class="cls-4" d="M743.13,185.08c-6.66.86-13.42,1.1-20.32.72-13.39-.74-26.88-3.15-39.9-6.84-4.13-1.17-8.22-2.58-12.22-4.27-3.73-1.57-7.36-3.46-10.78-5.79-1.3-.89-2.58-1.83-3.82-2.84-2.24-1.82-4.44-3.95-5.51-6.88-1.07-2.91-.88-6.2-.67-9.35.98-14.89,2.11-30.37,8.58-43.26,8.48-16.89,24.54-26.34,40.09-33.72,11.71-5.56,23.76-10.51,36.3-12.46s25.68-.77,37.13,5.51c-17.22,3.09-34.58,6.22-50.87,13.39-16.29,7.18-31.65,18.81-41.23,35.76-2.4,4.25-4.35,8.95-5.37,13.91-1.07,5.22-.56,9.63.48,14.74,1.71,8.4,11.22,13.76,17.52,16.82,3.83,1.86,7.8,3.32,11.8,4.62,19.68,6.39,40.03,10.05,60.47,10.4,2.21.04,4.42.09,6.61-.2,2.31-.3,4.89-1.16,7.19-1.16-1.18,0-3.01,1.36-4.13,1.86-10.3,4.65-20.71,7.65-31.37,9.03Z"/>
    <path class="cls-4" d="M582.07,210.7c.88.15,1.76.26,2.64.34,7.31.62,14.77-1.3,21.17-5.46-.41.26-.71.82-1.02,1.22-.71.92-1.33,1.85-2.12,2.68-.83.88-1.71,1.7-2.63,2.45-3,2.48-6.41,4.29-10,5.25-6.8,1.81-14.84.36-20.88-3.79-6.85-4.71-9.3-11.14-8.54-19.71-.51,5.71,4.79,9.61,8.47,11.97,4,2.57,8.39,4.29,12.91,5.06Z"/>
  </g>
  <g class="cls-5">
    <g class="cls-9">
      <path class="cls-2" d="M1269.67,266.99c-2.08,29.53,20.17,55.15,49.69,57.24,9.89.7,19.34-1.33,27.62-5.45,2.09,16.68,15.71,30.11,33.12,31.34,10.64.75,20.52-3.21,27.61-10.11,7.52,24.26,29.29,42.61,56.15,44.51,20.94,1.48,40.22-7.39,52.84-22.24,14.19,15.85,34.31,26.41,57.2,28.03,16.77,1.18,32.75-2.6,46.49-10.09,17.79,27.37,47.75,46.36,82.82,48.83,43.71,3.08,83.16-20.34,102.62-56.61,5.76,5.25,13.27,8.67,21.65,9.27,7.98.56,15.53-1.52,21.79-5.51,14,21.38,37.48,36.2,64.95,38.14,28.21,1.99,54.16-10.06,71.01-30.21,9.28,3.78,19.47,6.21,30.28,6.97,46.69,3.29,86.78-25.87,89.55-65.14.34-4.82.1-9.57-.66-14.19,9.9-8.96,16.5-21.61,17.51-35.98,2.08-29.53-20.16-55.16-49.69-57.24-12.29-.87-23.91,2.48-33.43,8.82-5.24-11.66-16.58-20.14-30.23-21.1-6.23-.44-12.19.74-17.49,3.17-4.48-23.26-24.12-41.54-48.87-43.29-10.29-.73-20.1,1.5-28.61,5.96,1.53-6.08,2.55-12.38,3.01-18.85,4.19-59.37-40.54-110.9-99.92-115.09-56.03-3.95-105.07,35.67-113.93,90.04-4.23-2.21-8.97-3.6-14.03-3.95-13.51-.95-25.78,5.68-32.68,16.28-14.23-19.17-36.42-32.24-62.1-34.05-46.69-3.29-87.2,31.88-90.5,78.56-.33,4.69-.27,9.32.15,13.86-.37-.03-.74-.07-1.12-.09-17.83-1.26-34.24,6.36-44.9,19.09-5.91-9.22-15.96-15.63-27.72-16.46-5.01-.35-9.86.34-14.33,1.9-10.06-8.86-23-14.61-37.4-15.62-24.18-1.71-46.15,10.38-58.2,29.56-26.47,1.57-48.31,22.57-50.22,49.74Z"/>
      <path class="cls-4" d="M1888.05,26.84c-11.09-6.3-22.8-11.72-35.28-14.3-25.33-5.23-48.68,5.89-67.12,23.01-.76.71-1.58,1.62-1.39,2.64.25,1.37,1.99,1.76,3.38,1.86,24.14,1.7,48.93,3.63,70.74,14.1,6.53,3.14,11.08,6.96,15.65,12.45,11.42,13.73,18.03,31.33,19.09,49.12.53,8.9.18,17.49-3.86,25.51s-10.04,15.63-16.63,22.11c-8.81,8.66-18.92,15.87-28.98,23.03-12.24,8.72-24.81,17.59-39.29,21.62,15.82-4.43,32.13-7.22,48.01-12.16,20.1-6.24,40.13-13.39,58.78-23.21,11.15-5.87,20.36-15.41,25.75-26.81,3.16-6.69,5-13.98,5.46-21.36.23-3.69.12-7.4-.33-11.07-.45-3.59-1.85-7.05-2.29-10.56-1.07-8.56-3.04-17-3.77-25.61-.81-9.55-5.13-18.97-12.51-25.43-10.49-9.19-21.99-17.2-34.06-24.16-.44-.26-.89-.51-1.34-.76Z"/>
      <path class="cls-4" d="M1675.2,173.71c5.46,1.25,11.25,1.41,16.61-.21s10.25-5.16,12.89-10.09c.89,5.04-1.32,10.35-5.07,13.84s-8.87,5.27-13.97,5.66c-3.55.27-7.27-.15-10.33-1.97-5.12-3.04-5.95-8.29-8.88-12.87,1.27,3.34,5.53,4.91,8.75,5.65Z"/>
      <path class="cls-4" d="M1814.27,393.8c1.28,4.82.21,10.28-1.99,14.67s-5.44,7.87-8.75,11.07c-21.96,21.18-49.5,32.71-77.15,35.57-27.65,2.86-55.42-2.6-81.67-12.7-11.38-4.38-23.33-10.43-29.34-22.95-1.1-2.3-1.95-4.77-2.59-7.33-.59-2.37-.39-6.76-1.36-8.74-1.29-2.63-11.18-.15-14.12.08-10.72.81-21.47,1.17-32.16.34-15.35-1.19-30.68-4.91-44.46-12.94-2.09-1.22-4.15-2.67-5.73-4.77-1.2-1.6-1.87-4.16-3.75-4.66-2.25-.6-6.09,1.48-8.35,2.05-2.84.71-5.68,1.35-8.54,1.91-11.89,2.34-23.97,3.32-35.92,2.14-5.47-.54-10.9-1.54-16.23-3.05-11.79-3.34-23.14-9.16-32.89-17.85-4.07-3.63-6.39-8.23-11.79-7.77-6.62.57-13.12.63-19.67-.53-3.46-.61-6.88-1.52-10.22-2.73-7.74-2.79-15.1-7.2-21.4-13.31-1.56-1.51-3.05-3.13-4.46-4.85-1.17-1.43-2.26-3.41-3.81-4.26-2.66-1.45-6.92.59-9.7.93-16.68,2.07-33.8-3.01-47.52-14.36-4.32-3.58-8.58-8.29-9.39-14.64-.33-2.6.44-5.99,2.58-6.45.8-.17,1.6.12,2.37.42,11.88,4.6,23.64,9.83,35.92,12.62,6.37,1.45,12.88,2.2,19.39,1.87,3.28-.17,6.55-.62,9.78-1.41,1.88-.46,7.44-1.19,8.36-3.39,10.88,14.86,28.92,21.28,44.95,15.99,5.16-1.7,10.15-4.69,13.86-9.53,2.36-3.08,3.12-3.56,5.16-.03,1.55,2.68,3.37,5.11,5.4,7.24,1.33,1.39,2.91,2.08,4.27,3.44,1.61,1.61,3.29,3.14,5.01,4.58,9.64,8.04,20.84,13.36,32.51,15.24,1.05.17,2.1.31,3.16.42,19.71,2.11,40.19-5.67,55.7-21.17,4.78,2.67,9.56,5.35,14.34,8.02,3.97,2.22,7.35,3.61,11.56,4.7,4.61,1.19,9.04,4.01,13.59,5.57,5,1.72,10.1,3.01,15.26,3.85,3.92.64,7.87,1.02,11.84,1.13,14.35.41,29.24-2.78,41.89-11.76,1.47-1.04,2.91-2.65,4.44-3.48,2.03-1.11,1.2-.69,2.59,1.04,2.6,3.25,5.76,6,8.78,8.65,8.98,7.89,18.97,13.45,28.74,19.65,14.34,9.09,29.62,16.66,45.8,18.76,14.42,1.87,29.23-1.07,42.74-7.87,6.77-3.41,13.22-7.78,19.17-13.02,5.28-4.65,12.09-10.25,14.97-17.58.37-.93.68-1.9.94-2.88-.5,1.92,12.05,8.19,13.48,8.8,5.1,2.21,10.5,3.47,15.94,3.77s10.94-.39,16.24-2.07c2.44-.77,4.89-1.74,7.29-2.7,2.24-.89,3.25-2.38,5.04-4.23,1.87,6.97,6.32,11.14,11.58,14.3,20.24,12.15,43.95,12.49,66.71,11.1,10.88-.66,21.92-1.71,32.23-6.28,7.03-3.12,11.55-7.76,14.91-15.76,10.68,4.82,22.04,5.89,33.44,4.37,11.28-1.5,22.3-5.28,33.19-9.31,8.75-3.24,17.63-6.78,25.41-12.87,7.01-5.48,14.33-11.75,12.66-23.33,14.4-7.79,27.35-19.67,37.53-34.4-.3,9.69-1.62,19.36-3.89,28.71-2,8.22-5.83,17.19-6.21,25.73-.63,14.57-3.65,30.3-9.52,43.21-7.33,16.14-19.67,28.39-33.27,36.43-29.54,17.46-63.51,15.92-95.93,20.24-28.78,3.83-57.42,12.55-86.26,11.04-28.83-1.51-58.97-12.05-72.67-42.71Z"/>
      <path class="cls-4" d="M1600.95,217.57c-7.76.86-15.64,1.1-23.67.72-15.6-.74-31.32-3.15-46.49-6.84-4.81-1.17-9.57-2.58-14.23-4.27-4.34-1.57-8.57-3.46-12.56-5.79-1.52-.89-3-1.83-4.45-2.84-2.61-1.82-5.17-3.95-6.42-6.88-1.24-2.91-1.02-6.2-.78-9.35,1.14-14.89,2.46-30.37,10-43.26,9.88-16.89,28.59-26.34,46.71-33.72,13.65-5.56,27.69-10.51,42.29-12.46,14.61-1.96,29.92-.77,43.26,5.51-20.06,3.09-40.29,6.22-59.27,13.39-18.98,7.18-36.88,18.81-48.04,35.76-2.8,4.25-5.06,8.95-6.25,13.91-1.25,5.22-.65,9.63.56,14.74,1.99,8.4,13.07,13.76,20.42,16.82,4.47,1.86,9.09,3.32,13.75,4.62,22.93,6.39,46.64,10.05,70.46,10.4,2.58.04,5.15.09,7.7-.2,2.69-.3,5.7-1.16,8.38-1.16-1.37,0-3.51,1.36-4.81,1.86-12,4.65-24.13,7.65-36.55,9.03Z"/>
      <path class="cls-4" d="M1378.75,255.57c1.25-.16,2.5-.37,3.74-.6,10.3-1.97,20.17-6.46,28.03-12.75-.5.4-.78,1.04-1.11,1.54-.75,1.14-1.4,2.27-2.28,3.34-.94,1.14-1.96,2.25-3.05,3.3-3.55,3.46-7.84,6.42-12.59,8.61-8.99,4.15-20.5,5.58-29.9,3.68-10.67-2.16-15.63-7.52-16.69-16.1.7,5.71,9.01,7.62,14.7,8.62,6.18,1.08,12.7,1.21,19.16.36Z"/>
    </g>
  </g>
  <g class="cls-7">
    <path class="cls-2" d="M2008.36,425.7c.22,26.81-27.86,48.78-62.73,49.08-11.68.1-22.64-2.25-32.06-6.42-3.71,14.97-20.74,26.38-41.3,26.55-12.57.11-23.89-4.01-31.69-10.63-10.67,21.53-37.65,36.95-69.36,37.22-24.72.21-46.73-8.85-60.44-22.96-17.87,13.57-42.32,22.03-69.35,22.26-19.81.17-38.3-4.11-53.9-11.63-22.98,23.79-59.63,39.34-101.05,39.69-51.61.43-96.23-22.88-116.37-56.73-7.17,4.44-16.25,7.13-26.15,7.21-9.42.08-18.14-2.22-25.21-6.16-18.07,18.58-46.79,30.71-79.23,30.98-33.31.28-62.91-12.01-81.2-31.14-11.19,2.92-23.36,4.56-36.12,4.67-55.13.46-100.07-28.07-100.37-63.73-.04-4.37.6-8.66,1.85-12.8-10.97-8.64-17.77-20.43-17.87-33.48-.22-26.82,27.86-48.79,62.73-49.08,14.52-.12,27.92,3.54,38.64,9.78,7.04-10.26,21-17.32,37.13-17.45,7.36-.06,14.28,1.32,20.32,3.81,7.02-20.79,31.48-36.26,60.71-36.51,12.15-.1,23.51,2.44,33.18,6.94-1.34-5.58-2.07-11.33-2.12-17.21-.45-53.91,56.02-98.09,126.14-98.68,66.17-.55,120.83,37.92,127.16,87.56,5.14-1.77,10.82-2.77,16.79-2.82,15.95-.13,29.88,6.53,37.19,16.48,18.17-16.56,45.25-27.19,75.57-27.44,55.13-.46,100.12,33.53,100.47,75.92.04,4.26-.38,8.44-1.22,12.52.44,0,.88-.02,1.32-.02,21.05-.18,39.77,7.59,51.34,19.69,7.65-8.02,19.94-13.28,33.83-13.39,5.92-.05,11.57.84,16.7,2.49,12.5-7.47,28.14-11.97,45.14-12.11,28.56-.24,53.48,11.87,66.2,29.87,31,2.84,55.09,23.02,55.3,47.68Z"/>
    <path class="cls-4" d="M1297.25,183.96c10.45-7.31,21.61-13.79,33.8-17.52,24.74-7.57,49.02,1.33,68.97,16.66.83.63,1.72,1.46,1.63,2.5-.12,1.38-1.82,1.94-3.19,2.16-23.87,3.94-48.38,8.17-69.12,20.63-6.21,3.73-10.38,7.96-14.42,13.85-10.09,14.73-15.03,32.88-14.43,50.68.3,8.92,1.45,17.43,6.22,25.04,4.93,7.85,11.45,14.62,18.61,20.46,9.58,7.81,20.31,14.04,31,20.23,13,7.54,26.34,15.2,41.13,17.86-16.17-2.94-32.66-4.2-48.94-7.64-20.59-4.34-41.2-9.59-60.69-17.64-11.65-4.81-21.71-13.45-28.14-24.29-3.77-6.36-6.28-13.46-7.43-20.76-.58-3.65-.81-7.36-.7-11.05s1.19-7.2,1.3-10.73c.27-8.63,1.44-17.21,1.37-25.84-.08-9.58,3.34-19.36,10.09-26.49,9.59-10.12,20.29-19.17,31.66-27.23.42-.3.84-.59,1.26-.89Z"/>
    <path class="cls-4" d="M1545.15,333.16c-6.66,1.52-13.73,1.72-20.26-.26-6.54-1.98-12.5-6.29-15.73-12.31-1.08,6.15,1.61,12.63,6.19,16.88s10.82,6.43,17.05,6.9c4.33.32,8.86-.18,12.6-2.4,6.25-3.71,7.25-10.12,10.83-15.7-1.55,4.07-6.74,5.99-10.67,6.89Z"/>
    <path class="cls-4" d="M1356.05,517.86c-1.83,4.59-.92,9.93,1.41,14.29s5.92,7.9,9.63,11.16c24.58,21.65,56.38,34.25,88.85,38.48,32.48,4.23,65.65.42,97.32-7.96,13.72-3.63,28.24-8.86,36.15-20.65,1.45-2.16,2.61-4.51,3.53-6.95.85-2.26.9-6.52,2.17-8.38,1.7-2.47,13.22.45,16.68.82,12.61,1.35,25.29,2.27,37.98,2.03,18.22-.34,36.57-3.12,53.37-10.16,2.55-1.07,5.08-2.36,7.08-4.31,1.52-1.48,2.47-3.93,4.73-4.31,2.69-.46,7.09,1.76,9.74,2.42,3.3.83,6.63,1.6,9.96,2.3,13.89,2.89,28.1,4.48,42.3,3.97,6.5-.23,12.98-.92,19.38-2.09,14.15-2.6,27.93-7.64,40.01-15.52,5.05-3.29,8.08-7.62,14.44-6.89,7.78.9,15.46,1.3,23.28.53,4.13-.41,8.22-1.11,12.25-2.1,9.32-2.29,18.31-6.16,26.14-11.75,1.94-1.38,3.81-2.87,5.58-4.46,1.48-1.32,2.89-3.18,4.78-3.92,3.24-1.27,8.13.93,11.4,1.42,19.57,2.88,40.13-1.12,57.08-11.37,5.34-3.23,10.68-7.57,12.03-13.66.56-2.5-.14-5.82-2.63-6.38-.93-.21-1.9.03-2.83.28-14.33,3.82-28.56,8.25-43.25,10.3-7.62,1.06-15.36,1.45-23.03.78-3.86-.34-7.7-.94-11.46-1.88-2.19-.54-8.72-1.54-9.66-3.73-13.82,13.8-35.55,19.05-54.14,13.09-5.99-1.92-11.69-5.07-15.76-9.95-2.59-3.11-3.45-3.61-6.1-.3-2,2.51-4.31,4.77-6.85,6.72-1.66,1.27-3.58,1.86-5.27,3.1-2.01,1.47-4.09,2.87-6.22,4.17-11.91,7.26-25.49,11.81-39.39,13.02-1.25.11-2.5.19-3.76.24-23.43,1-47.12-7.61-64.44-23.42-5.82,2.33-11.64,4.67-17.46,7-4.84,1.94-8.92,3.11-13.96,3.93-5.53.9-10.94,3.4-16.42,4.67-6.02,1.4-12.13,2.37-18.28,2.92-4.67.41-9.37.57-14.06.47-16.98-.36-34.37-4.24-48.74-13.59-1.66-1.08-3.27-2.72-5.03-3.6-2.33-1.18-1.38-.73-3.13.87-3.28,3-7.2,5.5-10.94,7.9-11.12,7.16-23.28,12-35.23,17.48-17.53,8.04-36.08,14.54-55.33,15.72-17.16,1.04-34.47-2.58-50-9.88-7.77-3.65-15.12-8.22-21.82-13.6-5.94-4.77-13.63-10.55-16.55-17.79-.37-.92-.68-1.87-.92-2.83.47,1.88-14.77,7.28-16.49,7.8-6.17,1.87-12.63,2.81-19.08,2.8-6.45,0-12.9-.95-19.06-2.86-2.84-.88-5.67-1.94-8.44-2.99-2.59-.98-3.68-2.47-5.68-4.36-2.66,6.65-8.19,10.44-14.61,13.22-24.7,10.68-52.74,9.76-79.53,7.21-12.82-1.22-25.79-2.81-37.67-7.77-8.11-3.39-13.14-8.12-16.6-16.03-12.93,4.1-26.43,4.53-39.79,2.46-13.23-2.05-26.01-6.28-38.62-10.76-10.13-3.6-20.39-7.49-29.19-13.79-7.92-5.67-16.17-12.12-13.46-23.23-16.51-8.29-31.05-20.47-42.12-35.26-.27,9.39.66,18.81,2.75,27.97,1.84,8.05,5.78,16.93,5.68,25.22-.2,14.13,2.36,29.5,8.45,42.29,7.61,16,21.4,28.5,36.96,36.99,33.77,18.44,74.02,18.76,112.04,24.64,33.76,5.23,67.04,15.17,101.2,15.24s70.45-8.54,88.63-37.46Z"/>
    <path class="cls-4" d="M1635.6,375.82c7.76.86,15.64,1.1,23.67.72,15.6-.74,31.32-3.15,46.49-6.84,4.81-1.17,9.57-2.58,14.23-4.27,4.34-1.57,8.57-3.46,12.56-5.79,1.52-.89,3-1.83,4.45-2.84,2.61-1.82,5.17-3.95,6.42-6.88,1.24-2.91,1.02-6.2.78-9.35-1.14-14.89-2.46-30.37-10-43.26-9.88-16.89-28.59-26.34-46.71-33.72-13.65-5.56-27.69-10.51-42.29-12.46s-29.92-.77-43.26,5.51c20.06,3.09,40.29,6.22,59.27,13.39,18.98,7.18,36.88,18.81,48.04,35.76,2.8,4.25,5.06,8.95,6.25,13.91,1.25,5.22.65,9.63-.56,14.74-1.99,8.4-13.07,13.76-20.42,16.82-4.47,1.86-9.09,3.32-13.75,4.62-22.93,6.39-46.64,10.05-70.46,10.4-2.58.04-5.15.09-7.7-.2-2.69-.3-5.7-1.16-8.38-1.16,1.37,0,3.51,1.36,4.81,1.86,12,4.65,24.13,7.65,36.55,9.03Z"/>
    <path class="cls-4" d="M1823.26,401.44c-1.02.15-2.05.26-3.07.34-8.52.62-17.21-1.3-24.67-5.46.47.26.83.82,1.19,1.22.82.92,1.56,1.85,2.47,2.68.97.88,2,1.7,3.07,2.45,3.5,2.48,7.47,4.29,11.66,5.25,7.92,1.81,17.3.36,24.33-3.79,7.98-4.71,10.83-11.14,9.95-19.71.59,5.71-5.58,9.61-9.87,11.97-4.66,2.57-9.78,4.29-15.04,5.06Z"/>
  </g>
  <g class="cls-5">
    <g class="cls-10">
      <path class="cls-2" d="M650.33,290.95c2.08,29.53-20.17,55.15-49.69,57.24-9.89.7-19.34-1.33-27.62-5.45-2.09,16.68-15.71,30.11-33.12,31.34-10.64.75-20.52-3.21-27.61-10.11-7.52,24.26-29.29,42.61-56.15,44.51-20.94,1.48-40.22-7.39-52.84-22.24-14.19,15.85-34.31,26.41-57.2,28.03-16.77,1.18-32.75-2.6-46.49-10.09-17.79,27.37-47.75,46.36-82.82,48.83-43.71,3.08-83.16-20.34-102.62-56.61-5.76,5.25-13.27,8.67-21.65,9.27-7.98.56-15.53-1.52-21.79-5.51-14,21.38-37.48,36.2-64.95,38.14-28.21,1.99-54.16-10.06-71.01-30.21-9.28,3.78-19.47,6.21-30.28,6.97-46.69,3.29-86.78-25.87-89.55-65.14-.34-4.82-.1-9.57.66-14.19-9.9-8.96-16.5-21.61-17.51-35.98-2.08-29.53,20.16-55.16,49.69-57.24,12.29-.87,23.91,2.48,33.43,8.82,5.24-11.66,16.58-20.14,30.23-21.1,6.23-.44,12.19.74,17.49,3.17,4.48-23.26,24.12-41.54,48.87-43.29,10.29-.73,20.1,1.5,28.61,5.96-1.53-6.08-2.55-12.38-3.01-18.85C-.76,117.83,43.97,66.3,103.34,62.11c56.03-3.95,105.07,35.67,113.93,90.04,4.23-2.21,8.97-3.6,14.03-3.95,13.51-.95,25.78,5.68,32.68,16.28,14.23-19.17,36.42-32.24,62.1-34.05,46.69-3.29,87.2,31.88,90.5,78.56.33,4.69.27,9.32-.15,13.86.37-.03.74-.07,1.12-.09,17.83-1.26,34.24,6.36,44.9,19.09,5.91-9.22,15.96-15.63,27.72-16.46,5.01-.35,9.86.34,14.33,1.9,10.06-8.86,23-14.61,37.4-15.62,24.18-1.71,46.15,10.38,58.2,29.56,26.47,1.57,48.31,22.57,50.22,49.74Z"/>
      <path class="cls-4" d="M31.95,50.8c11.09-6.3,22.8-11.72,35.28-14.3,25.33-5.23,48.68,5.89,67.12,23.01.76.71,1.58,1.62,1.39,2.64-.25,1.37-1.99,1.76-3.38,1.86-24.14,1.7-48.93,3.63-70.74,14.1-6.53,3.14-11.08,6.96-15.65,12.45-11.42,13.73-18.03,31.33-19.09,49.12-.53,8.9-.18,17.49,3.86,25.51,4.17,8.28,10.04,15.63,16.63,22.11,8.81,8.66,18.92,15.87,28.98,23.03,12.24,8.72,24.81,17.59,39.29,21.62-15.82-4.43-32.13-7.22-48.01-12.16-20.1-6.24-40.13-13.39-58.78-23.21-11.15-5.87-20.36-15.41-25.75-26.81-3.16-6.69-5-13.98-5.46-21.36-.23-3.69-.12-7.4.33-11.07s1.85-7.05,2.29-10.56c1.07-8.56,3.04-17,3.77-25.61.81-9.55,5.13-18.97,12.51-25.43,10.49-9.19,21.99-17.2,34.06-24.16.44-.26.89-.51,1.34-.76Z"/>
      <path class="cls-4" d="M244.8,197.68c-5.46,1.25-11.25,1.41-16.61-.21-5.36-1.62-10.25-5.16-12.89-10.09-.89,5.04,1.32,10.35,5.07,13.84s8.87,5.27,13.97,5.66c3.55.27,7.27-.15,10.33-1.97,5.12-3.04,5.95-8.29,8.88-12.87-1.27,3.34-5.53,4.91-8.75,5.65Z"/>
      <path class="cls-4" d="M105.73,417.76c-1.28,4.82-.21,10.28,1.99,14.67s5.44,7.87,8.75,11.07c21.96,21.18,49.5,32.71,77.15,35.57,27.65,2.86,55.42-2.6,81.67-12.7,11.38-4.38,23.33-10.43,29.34-22.95,1.1-2.3,1.95-4.77,2.59-7.33.59-2.37.39-6.76,1.36-8.74,1.29-2.63,11.18-.15,14.12.08,10.72.81,21.47,1.17,32.16.34,15.35-1.19,30.68-4.91,44.46-12.94,2.09-1.22,4.15-2.67,5.73-4.77,1.2-1.6,1.87-4.16,3.75-4.66,2.25-.6,6.09,1.48,8.35,2.05,2.84.71,5.68,1.35,8.54,1.91,11.89,2.34,23.97,3.32,35.92,2.14,5.47-.54,10.9-1.54,16.23-3.05,11.79-3.34,23.14-9.16,32.89-17.85,4.07-3.63,6.39-8.23,11.79-7.77,6.62.57,13.12.63,19.67-.53,3.46-.61,6.88-1.52,10.22-2.73,7.74-2.79,15.1-7.2,21.4-13.31,1.56-1.51,3.05-3.13,4.46-4.85,1.17-1.43,2.26-3.41,3.81-4.26,2.66-1.45,6.92.59,9.7.93,16.68,2.07,33.8-3.01,47.52-14.36,4.32-3.58,8.58-8.29,9.39-14.64.33-2.6-.44-5.99-2.58-6.45-.8-.17-1.6.12-2.37.42-11.88,4.6-23.64,9.83-35.92,12.62-6.37,1.45-12.88,2.2-19.39,1.87-3.28-.17-6.55-.62-9.78-1.41-1.88-.46-7.44-1.19-8.36-3.39-10.88,14.86-28.92,21.28-44.95,15.99-5.16-1.7-10.15-4.69-13.86-9.53-2.36-3.08-3.12-3.56-5.16-.03-1.55,2.68-3.37,5.11-5.4,7.24-1.33,1.39-2.91,2.08-4.27,3.44-1.61,1.61-3.29,3.14-5.01,4.58-9.64,8.04-20.84,13.36-32.51,15.24-1.05.17-2.1.31-3.16.42-19.71,2.11-40.19-5.67-55.7-21.17-4.78,2.67-9.56,5.35-14.34,8.02-3.97,2.22-7.35,3.61-11.56,4.7-4.61,1.19-9.04,4.01-13.59,5.57-5,1.72-10.1,3.01-15.26,3.85-3.92.64-7.87,1.02-11.84,1.13-14.35.41-29.24-2.78-41.89-11.76-1.47-1.04-2.91-2.65-4.44-3.48-2.03-1.11-1.2-.69-2.59,1.04-2.6,3.25-5.76,6-8.78,8.65-8.98,7.89-18.97,13.45-28.74,19.65-14.34,9.09-29.62,16.66-45.8,18.76-14.42,1.87-29.23-1.07-42.74-7.87-6.77-3.41-13.22-7.78-19.17-13.02-5.28-4.65-12.09-10.25-14.97-17.58-.37-.93-.68-1.9-.94-2.88.5,1.92-12.05,8.19-13.48,8.8-5.1,2.21-10.5,3.47-15.94,3.77s-10.94-.39-16.24-2.07c-2.44-.77-4.89-1.74-7.29-2.7-2.24-.89-3.25-2.38-5.04-4.23-1.87,6.97-6.32,11.14-11.58,14.3-20.24,12.15-43.95,12.49-66.71,11.1-10.88-.66-21.92-1.71-32.23-6.28-7.03-3.12-11.55-7.76-14.91-15.76-10.68,4.82-22.04,5.89-33.44,4.37-11.28-1.5-22.3-5.28-33.19-9.31-8.75-3.24-17.63-6.78-25.41-12.87-7.01-5.48-14.33-11.75-12.66-23.33-14.4-7.79-27.35-19.67-37.53-34.4.3,9.69,1.62,19.36,3.89,28.71,2,8.22,5.83,17.19,6.21,25.73.63,14.57,3.65,30.3,9.52,43.21,7.33,16.14,19.67,28.39,33.27,36.43,29.54,17.46,63.51,15.92,95.93,20.24,28.78,3.83,57.42,12.55,86.26,11.04,28.83-1.51,58.97-12.05,72.67-42.71Z"/>
      <path class="cls-4" d="M319.05,241.54c7.76.86,15.64,1.1,23.67.72,15.6-.74,31.32-3.15,46.49-6.84,4.81-1.17,9.57-2.58,14.23-4.27,4.34-1.57,8.57-3.46,12.56-5.79,1.52-.89,3-1.83,4.45-2.84,2.61-1.82,5.17-3.95,6.42-6.88,1.24-2.91,1.02-6.2.78-9.35-1.14-14.89-2.46-30.37-10-43.26-9.88-16.89-28.59-26.34-46.71-33.72-13.65-5.56-27.69-10.51-42.29-12.46-14.61-1.96-29.92-.77-43.26,5.51,20.06,3.09,40.29,6.22,59.27,13.39,18.98,7.18,36.88,18.81,48.04,35.76,2.8,4.25,5.06,8.95,6.25,13.91,1.25,5.22.65,9.63-.56,14.74-1.99,8.4-13.07,13.76-20.42,16.82-4.47,1.86-9.09,3.32-13.75,4.62-22.93,6.39-46.64,10.05-70.46,10.4-2.58.04-5.15.09-7.7-.2-2.69-.3-5.7-1.16-8.38-1.16,1.37,0,3.51,1.36,4.81,1.86,12,4.65,24.13,7.65,36.55,9.03Z"/>
      <path class="cls-4" d="M541.25,279.54c-1.25-.16-2.5-.37-3.74-.6-10.3-1.97-20.17-6.46-28.03-12.75.5.4.78,1.04,1.11,1.54.75,1.14,1.4,2.27,2.28,3.34.94,1.14,1.96,2.25,3.05,3.3,3.55,3.46,7.84,6.42,12.59,8.61,8.99,4.15,20.5,5.58,29.9,3.68,10.67-2.16,15.63-7.52,16.69-16.1-.7,5.71-9.01,7.62-14.7,8.62-6.18,1.08-12.7,1.21-19.16.36Z"/>
    </g>
  </g>
</svg>