<?xml version="1.0" encoding="UTF-8"?>
<svg xmlns="http://www.w3.org/2000/svg" version="1.1" viewBox="0 0 1920 1080">
  <defs>
    <style>
      .cls-1 {
        stroke-width: 2px;
      }

      .cls-1, .cls-2, .cls-3, .cls-4, .cls-5, .cls-6, .cls-7, .cls-8 {
        fill: none;
        stroke: #000;
        stroke-miterlimit: 10;
      }

      .cls-9 {
        fill: #000;
      }

      .cls-9, .cls-10, .cls-11 {
        stroke-width: 0px;
      }

      .cls-2 {
        stroke-width: 1.6px;
      }

      .cls-3 {
        stroke-width: 1.9px;
      }

      .cls-10 {
        fill: #4d4054;
      }

      .cls-4 {
        stroke-width: 1.9px;
      }

      .cls-5 {
        stroke-width: 2.8px;
      }

      .cls-6 {
        stroke-width: 2.6px;
      }

      .cls-7 {
        stroke-width: 2.9px;
      }

      .cls-11 {
        fill: #38303e;
      }

      .cls-8 {
        stroke-width: 3px;
      }
    </style>
  </defs>
  <g id="tail">
    <path class="cls-10" d="M988.7,706.2c-31.7,36.1-79.6,61.3-128.4,65.1-1,0-2,.2-3,.2-3.7.1-7.7.3-11.4.2-2.2,0-6.5-.2-8.5-.3-14.9-1.1-29.8-4.2-44.2-7.8-25.1-6.5-49.1-12.9-74.2-18.3-10.5-2.3-26.7-5.5-37.4-7.7-34.3-6.5-68.8-15-103.6-14.4-6.6.1-13.2.6-19.9,1.4-58.1,7.1-109.6,36.8-154.8,73.1l-2.3-2.3c16.5-20.1,35.3-38.5,56.4-54.6,6.5-4.9,13.6-9.8,20.6-14.2,2.4-1.7,10.3-6.1,13-7.7,28.5-15.6,60-26.2,92.4-29.2,35-3.1,70.3,1.8,104.9,5.9,25.9,3.1,52.2,6.9,77.8,11.9,17.5,3.3,34.3,7.3,51.5,10.3,5.7,1,11.4,1.9,17.2,2.6l4.1.4,2,.2h2c1,.1,1.9.2,2.9.2,4.3.2,8.8,0,13-.2,11.1-.6,22.1-2.7,32.9-5.3,15.4-4,29.9-9.6,44.3-16.7,10.6-5.2,20.9-11.2,31.4-17.6l21.3,24.8Z"/>
    <path class="cls-10" d="M417.1,846.7c.6-18.5-5.4-23.8-24.3-22.7-7.2.4-23.9-.9-62.2,29,38.4-30,44.6-48.5,48.2-56.3,8.4-18,4-24.2-14.9-29.1l.9-.5c30,1.8,46.1-5,55.9-16,14.5-16.2,13.5-40.8,13.5-48.7,6.3,3.8,22.4,12.6,44.8,12.4,17.8-.1,31.1-5.8,37.7-9.1l8.3,21.8c-5.3,4.9-15,15.3-20.3,31.2-6.7,20.1-2.5,37.1-.5,43.9-8-2.3-32.8-10.5-53.5-2.2-14,5.6-25.7,18.1-32.6,45.6l-.8.7Z"/>
    <path class="cls-11" d="M405.3,795.6c1.1,1.5,12-9.6,34.7-15.8,7.5-2.1,16.8-3.8,41.9-9.9,5.3-1.3,11.5-2.9,16.5-8.3,4.3-4.7,3.9-8,7.7-15.1,6.9-12.8,16.4-16.5,15.5-18.3-1.5-2.9-27,4.3-54.5,19.2-37,19.9-63.5,46-61.8,48.3Z"/>
    <g>
      <path class="cls-9" d="M504,802.6c-7.3-19.5-4.6-42.5,6.9-59.9,3.8-5.8,8.5-11,14-15.2-4.6,5.1-8.8,10.5-12.2,16.4-10.6,17.5-13.6,38.9-8.6,58.7h0Z"/>
      <path class="cls-9" d="M504,802.6c-27.4-7.4-58.1-9.4-74.9,17.8-5,7.9-8.4,16.7-11.2,25.6,1.8-9.2,4.7-18.4,9.5-26.7,16.5-28.7,49.2-27.1,76.6-16.8h0Z"/>
      <path class="cls-9" d="M417.1,846.7c-.4-6.5-.6-14.2-6-18.5-3.5-2.6-8.2-3.1-12.5-3.1-4.4,0-9.1.2-13.5.7-19.8,3.1-38.2,16.1-54.5,27.3,14.1-11.8,29.3-23,47.3-28.2,4.5-1.3,9.2-1.9,13.9-2,4.6-.2,9.3-.4,14,.8,11.3,2.5,12.4,13.4,11.4,23.1h0Z"/>
      <path class="cls-9" d="M434,702.4c25.6,14,55.7,14.5,82.5,3.3-24.9,15.2-58.7,13.2-82.5-3.3h0Z"/>
      <path class="cls-9" d="M364.7,767.2c29.6.6,56.9-5.2,65.7-37.2,2.5-8.9,3.3-18.2,3.7-27.5.8,9.3.6,18.9-1.7,28-8.1,33.2-37.5,40-67.7,36.7h0Z"/>
      <path class="cls-9" d="M330.6,853c18.1-15.5,36.6-32.2,46.1-54.5,3.4-7.7,9.2-19,.2-24.9-3.8-2.7-8.5-4.3-13-5.9,4.8.9,9.6,2,13.9,4.5,10.6,6.1,5.2,18.7,1.1,27.3-9.8,22.6-28.9,39.2-48.2,53.5h0Z"/>
    </g>
    <path class="cls-2" d="M402,796.4c7.1-7.9,15.5-16.2,25.4-24.2,33.8-27.5,69.2-39.9,94-45.9"/>
    <path class="cls-11" d="M845.8,721.3c1.6.9,2.7,1.8,3.7,2.7,11.5,10.9,14.8,31.9,10.8,47.4-1,0-2,.2-3,.2-3.7.1-7.7.3-11.4.2-2.2,0-6.5-.2-8.5-.3-14.9-1.1-29.8-4.2-44.2-7.8-25.1-6.5-49.1-12.9-74.2-18.3-10.5-2.3-26.7-5.5-37.4-7.7-34.3-6.5-68.8-15-103.6-14.4,22.3-4.6,40.1-3.5,50.2-2.8,42.7,3.1,45.4,7.8,70.6,8.8,21.3.8,20.7-2.5,70.6-7.8,21.5-2.3,36.9-3.3,48.2-3.5l28.2,3.4Z"/>
    <path class="cls-9" d="M508.1,708.9c13.4-6.4,27.7-10.7,42-14.3,14.4-3.5,29.1-6,43.9-6.5,29.6-1.4,59.2,2.4,88.5,5.8,29.4,3.3,58.7,7.5,87.7,13.3,22.9,4.4,45.7,10.1,68.9,12.5,35.5,2.7,70.8-8.4,102.1-24.7,9-4.7,17.8-9.9,26.5-15.2,0,0,.7.8.7.8l21.2,24.8h0s.7.8.7.8l-.7.8c-37.7,42.5-94.7,69.2-151.9,65.8-15.5-1.1-30.8-4.3-45.8-8.2-17.6-4.6-42.4-11-59.9-15.1-19.8-4.5-40.6-8.7-60.4-12.6-30.2-6-60.5-12.7-91.4-12.5-20.5,0-40.8,3.9-60.7,8.9,0,0-.3-1-.3-1,19.6-6.7,40.3-10.3,61-10.4,31.1-.3,61.6,6.5,91.9,12.4,19.9,3.9,40.8,8.1,60.5,12.6,17.5,4.1,42.4,10.5,60,15.1,17.3,4.4,35.1,8,53,8.3,33.3.4,66.2-9.5,94.9-26.3,17.7-10.3,33.7-23.4,47.3-38.7,0,0,0,1.6,0,1.6,0,0-21.2-24.8-21.3-24.8,0,0,1.6.3,1.6.3-8.4,5.1-16.9,10.2-25.7,14.7-31.6,16.5-67.4,27.8-103.4,24.9-23.3-2.5-46.2-8.2-69.1-12.7-48.3-9.3-97.2-15.7-146.2-19.2-14.7-.7-29.5-.7-44.1.9-21.9,2.6-43.4,8.6-64.1,16.2,0,0-6.9,2.5-6.9,2.5l-.4-.9h0Z"/>
  </g>
  <g id="right_wing" data-name="right wing">
    <path class="cls-10" d="M1046.5,416.3c.7-4.4,16.2.2,34.9-7.8,9.2-3.9,17.1-11.7,32.6-27.2,28.6-28.6,24.5-32,39.6-42.7,7.3-5.2,16.3-10.1,22.3-21.6,1.4-2.6,3-6.4,6.5-11.1,5.4-7.3,11.1-10.9,13-12.2,17.6-11.7,23.2-22.9,57.2-46.6,19.4-13.5,31.2-19.4,37.2-32.2.9-1.9,3.6-8.1,8.4-16.1,4.3-7.2,8.1-12.2,10.7-15.5,15-19.4,22.4-29.1,25.7-32.1,6.1-5.6,16.3-13,31.6-17.4-3.4,3.1-8.8,9-12.8,18.3-3.5,8.1-5.4,12.1-4.4,16.2.4,1.6,1,2.8,1.8,4.4.7,1.4,2.9,5.3,7,8.7,3,2.4,5.9,3.7,7.8,4.4,29.5,10.2,82.4,15.9,82.4,15.9,29.5,3.2,52.8,9.8,57.4,11.2,19.5,5.7,45.5,15.3,61.8,14,5.8-.5,9.1-.1,15.7.6,8.4.9,11.5,2.2,14.1,4.4,4.6,3.8,6.4,9.4,7,11.2,4.2,12.2,14.5,22.7,40.3,61.5,23.7,35.7,17.6,30.7,45.7,73.7,2.7,4.1,15.5,23.4,41.1,61.9,4.8,7.2,10.6,13.5,14.4,21.6.3.5.9,2,2.2,2.9,1.9,1.3,3.4.4,6.2.5.7,0,4.9.2,7.5,2.6,2.8,2.6,3.1,7,3.3,9,.6,5.6,3.1,13.7,11,24.5-8.4-7.6-17.2-15.1-26.3-22.6-5.3-4.4-9.3-7.6-9.7-7.9-14.3-11.3-80.2-30.6-136.6,15.5-52.9,43.2-60.3,113.7-60.1,120.7.1,5.5.4,11.8.4,11.8.3,7.1.7,12.5.8,13.6,1,14.4,5.6,36,6.5,39.9-3.5-6.5-8.8-16.4-14.8-28.6-6.2-12.4-10.3-21.3-11.8-24.5,0,0-13.4-28.4-35-58.1-19.1-26.2-78.6-84.4-153-75.8-52.2,6.1-87.5,42.3-92.1,47.6-2.1,2.5-4,5-4,5-7.7,10.5-12.1,21.3-14.6,29.6,1.9-16.3,3.1-28.8,3.6-34.8,0-.8.2-2.4-.6-3.8-2.1-4.2-9-3.6-11.6-3.4-8.7.8-16.8,1.8-24.3,2.9-40.7,6.1-78.5,28.5-107.2,63.5-5.6,6.8-11.3,14-16.9,21.4,1.4-14,3.4-25.6,5.3-34.2,3.5-16.4,7-32.8,15.8-51.1,2.3-4.7,4.1-7.8,13.3-26.2,6.7-13.3,8.5-17.3,8.9-23.7.6-12-4.9-21.4-6.3-23.9-4.1-7.1-9-10.7-11.8-12.8-8.1-6-12.7-5.3-23.5-9.5-9.1-3.5-24.2-11.2-23.6-15.6Z"/>
    <path class="cls-11" d="M1070,423.3c.1-2.3,10.1-.9,22.1-6.3,8.4-3.8,12.9-8.7,21.7-17.5,11.9-12,24.2-23.6,36.7-34.8,5.1-4.5,10.5-8.1,14.7-13.8,5.1-6.9,9.3-15.3,16.4-19.8,4.2-2.7,9.2-3.7,13.1-6.9,3.9-3.3,6.4-8.5,9.2-13.1,6-9.8,14.2-17.4,22.3-24.8,25.4-23.3,50.7-46.6,77.6-67.4,2.8-2.1,5.6-4.3,8.9-5.1,3.2-.8,7,0,9.1,3,2.1,3,2.2,7.4,1.6,11.3-2.1,14.3-11.2,25.9-21.3,34.1-24.2,19.8-51.6,33.7-75.9,53.7-23.9,19.7-45.9,42.6-66.2,67.2-13.2,16-29.7,37.8-49.7,44.2-9.4,3-18.9,2.5-20.2,2.4-9.9-.7-20.2-4.2-20.1-6.5Z"/>
    <path class="cls-11" d="M1313.1,300.8c-2.8,6.8-9.5,31.2-16.3,46.5-3.7,8.5-11.4,24.7-10.9,33.8,0,.7.3,3.9-.3,8-.3,2.5-.8,4.2-2.2,9.4-2,7.1-3,10.6-3.4,11.7-2,6-3.8,10.3-4.5,11.7-9.6,18.9-15.9,50-19.2,58.4-3.3,8.2-7.5,17.4-8.5,28.9-.2,2.1-.3,4.5-.8,10.4-1.2,12.5,1.6,6.9,2.3,7.3,1.3.6,2.4-.6,8.4-14.9,7.4-17.8,11.1-27.7,14.3-35.8,12.7-31.7,16-28,25-53.2,6.3-17.6,10-34.5,12.1-43.8,2.7-12.2,1.9-11,5.1-26.4,7-34,17.3-90,12.8-94-2.6-2.3-10.1,33.6-13.7,42.2Z"/>
    <path class="cls-11" d="M1731.7,461c1.4-1.6-6.5-14.1-11.9-22.5-29.9-46.8-44.8-70.2-52.1-81.1-16.4-24.4-24.6-36.5-27.5-41.2-11.7-18.5-19-31.2-33.7-53-5.4-8-9.9-14.4-12.9-18.7-1.6.4-4.7,1-8.3-.3-5.3-1.8-8.2-6.1-9.1-7.6-5-.8-12.2-1.9-21-3.3-22.7-3.6-37.1-5.9-53.6-8.8-10.7-1.9-18.5-3.5-34.1-6.6-44.7-8.9-67.1-13.3-69.7-14.4-10.1-4.2-14.7-3.3-25-6.6-1.7-.5-6.1-2-8.9.8-1.2,1.1-2.2,3.2-1.9,5.1.7,4.2,8.5,5.5,11.2,6.1,14.9,2.8,22.7,10.3,37.7,11.6,25.1,2.1,22.3,7.6,83.7,20,53,10.7,61.8,8,80.8,21,11.3,7.7,20.2,18.5,38.2,40,12.3,14.7,32.8,39.3,54,75.9,13.4,23.1,20.6,33.9,35.1,55.7,0,0,7,10.4,20.7,22.4,7.2,6.3,8.1,5.7,8.3,5.5Z"/>
    <path class="cls-11" d="M1380.8,248.4c-3.1,3.8,19.1,35.8,29.6,51,22.5,32.5,31.6,38.9,39.2,53.8,3.2,6.3,5.9,13.7,12.8,18.1,2.2,1.4,5.2,2.8,8,6.7,1.2,1.6,3.6,5.1,4,10.5.2,3.6-.6,6.5-1.2,8.1,8.4,28.3,15.6,51,20.4,66,20.9,64.5,23.1,62.3,24.5,77.9.9,9.6,1.8,30.7,11.8,54.9,1.5,3.7,3,6.7,3.9,8.7,1.9,3.2,4.3,6.7,5.1,6.1,1.6-.9-2.3-14-3.3-17.3-2.5-8.6-6.4-32.1-14.2-79-11.4-68.8-11.8-62.8-18.5-90.5-8.1-33.4-29.9-73.7-43-90.4-23.4-29.9-30.6-42.5-47.8-60.9s-28.7-26.8-31.3-23.6Z"/>
    <path class="cls-5" d="M1046.5,416.3c.7-4.4,16.2.2,34.9-7.8,9.2-3.9,17.1-11.7,32.6-27.2,28.6-28.6,24.5-32,39.6-42.7,7.3-5.2,16.3-10.1,22.3-21.6,1.4-2.6,3-6.4,6.5-11.1,5.4-7.3,11.1-10.9,13-12.2,17.6-11.7,23.2-22.9,57.2-46.6,19.4-13.5,31.2-19.4,37.2-32.2.9-1.9,3.6-8.1,8.4-16.1,4.3-7.2,8.1-12.2,10.7-15.5,15-19.4,22.4-29.1,25.7-32.1,6.1-5.6,16.3-13,31.6-17.4-3.4,3.1-8.8,9-12.8,18.3-3.5,8.1-5.4,12.1-4.4,16.2.4,1.6,1,2.8,1.8,4.4.7,1.4,2.9,5.3,7,8.7,3,2.4,5.9,3.7,7.8,4.4,29.5,10.2,82.4,15.9,82.4,15.9,29.5,3.2,52.8,9.8,57.4,11.2,19.5,5.7,45.5,15.3,61.8,14,5.8-.5,9.1-.1,15.7.6,8.4.9,11.5,2.2,14.1,4.4,4.6,3.8,6.4,9.4,7,11.2,4.2,12.2,14.5,22.7,40.3,61.5,23.7,35.7,17.6,30.7,45.7,73.7,2.7,4.1,15.5,23.4,41.1,61.9,4.8,7.2,10.6,13.5,14.4,21.6.3.5.9,2,2.2,2.9,1.9,1.3,3.4.4,6.2.5.7,0,4.9.2,7.5,2.6,2.8,2.6,3.1,7,3.3,9,.6,5.6,3.1,13.7,11,24.5-8.4-7.6-17.2-15.1-26.3-22.6-5.3-4.4-9.3-7.6-9.7-7.9-14.3-11.3-80.2-30.6-136.6,15.5-52.9,43.2-60.3,113.7-60.1,120.7.1,5.5.4,11.8.4,11.8.3,7.1.7,12.5.8,13.6,1,14.4,5.6,36,6.5,39.9-3.5-6.5-8.8-16.4-14.8-28.6-6.2-12.4-10.3-21.3-11.8-24.5,0,0-13.4-28.4-35-58.1-19.1-26.2-78.6-84.4-153-75.8-52.2,6.1-87.5,42.3-92.1,47.6-2.1,2.5-4,5-4,5-7.7,10.5-12.1,21.3-14.6,29.6,1.9-16.3,3.1-28.8,3.6-34.8,0-.8.2-2.4-.6-3.8-2.1-4.2-9-3.6-11.6-3.4-8.7.8-16.8,1.8-24.3,2.9-40.7,6.1-78.5,28.5-107.2,63.5-5.6,6.8-11.3,14-16.9,21.4,1.4-14,3.4-25.6,5.3-34.2,3.5-16.4,7-32.8,15.8-51.1,2.3-4.7,4.1-7.8,13.3-26.2,6.7-13.3,8.5-17.3,8.9-23.7.6-12-4.9-21.4-6.3-23.9-4.1-7.1-9-10.7-11.8-12.8-8.1-6-12.7-5.3-23.5-9.5-9.1-3.5-24.2-11.2-23.6-15.6Z"/>
    <path class="cls-3" d="M1080.6,422.1c15-7.6,25.8-15.8,32.6-21.6,14-12,37.8-36.4,48.1-52.5,1.5-2.4,6.6-10.6,15.6-17.2,1.9-1.4,3.6-2.5,4.7-3.1,2.5.5,6.3.8,10.5-.9,11.6-4.9,14.3-21.2,14.5-22.3,5.3-4.3,13.8-11.5,24.2-20.7,31-27.6,46.5-41.4,52.4-47.8,4.7-5.1,22.6-24.6,34.2-23.7,1.3,0,5,.4,7,3.5,2.4,3.6,1.3,9.2.7,11.7-7,30.1-15.2,52.2-20.3,64.5-2.9,7.1-5.5,14.4-7.6,21.8-5,17.4-13.7,39.3-20.1,68.5-4.5,6.5-7.1,14.4-7.5,22.8,0,.4,0,1,0,1.7,0,0-.2,3.2-.6,6.4-2.3,17.7-10.2,34.6-10.2,34.6-4.5,9.8-10.9,27.5-18.6,62.5-1.5,1.9-3.1,4.5-4.6,7.8-2.2,4.9-3.3,9.4-3.8,12.7"/>
    <path class="cls-3" d="M1245.2,526.1c.5-1.7,1-3.8,1.4-6.3.5-3.4.5-6.4.3-8.7,3.1-9.8,6.2-19.5,9.3-29.3,7.3-23,14.6-45.9,22-68.9,1.8-1.4,3.9-3.5,5.7-6.6,5.8-9.8,3.6-21.3,3.1-23.8,8.2-26.1,14.9-47,19.6-61.3,11.6-35.4,12.3-36.4,15-47.2,3-12.3,8-24,10.4-36.5,1.4-7.5,2.9-17.1,9-20.8.7-.4,4.3-2.5,7.9-.9,4,1.8,5.8,7.1,6.3,8.6,5.4,15.6,17.1,27.1,24.1,41.8,5.6,11.7,18.6,31.8,44.4,72.1,9.2,14.4,17.2,26.5,23.1,35.4-.3,2-.9,8.9,2.6,15.7,4.7,9.2,13.1,10.7,14.3,10.8.9,1.9,2.2,4.7,3.7,8.2,11.6,26.9,14.3,46,19.9,70.6,6.2,27.1,10.5,46.5,18.8,66.5,2.4,5.9,9.8,23,14.8,47.6.5,2.4.9,4.5,1.1,5.8-.3,1.4-.7,3.4-.5,6,.1,1.6.4,3,.7,4"/>
    <path class="cls-3" d="M1540.1,609.3c-.1-1.7-.6-5.4-2.8-9.2-2.2-3.7-4.9-5.5-6.1-6.2-2.7-11.4-6.6-27.2-11.5-46-6.3-24.4-12.3-47.9-20.7-76-5.9-19.9-14.2-46.2-25.3-77,.4-1.7,1.8-8-.9-14.9-3.5-8.9-10.9-11.3-12-11.6-20.8-31.5-36.9-55.6-47.4-71.2-11.6-17.3-21.1-36.6-33.3-53.2-7.8-10.7-24.1-31.8-20.1-41.2,1.9-4.6,5.4-6.5,5.4-6.5,3.2-1.7,6.2-1,7.5-.6,25.7,5.3,47.7,10.2,65.1,14.2,44,10.1,41.3,10.7,55,12.6,21,3,37.3,3.2,64.6,10.5,6.6,1.8,12,3.5,15.5,4.6.6,1.8,2.1,5.6,5.4,8.2,7.1,5.6,15.5.8,15.9.5,11.7,19,43.8,70.8,76.1,120.9,13.1,20.3,25.8,39.8,42.1,63.4,7.5,10.9,13.8,19.8,18.1,25.8"/>
    <path class="cls-11" d="M1343.1,175.9c-2.2,2.3-2.7,6.6-7.8,14-4,5.8-7,6.6-6.8,9.7.2,3.5,4.2,7,7.3,6.5,2.6-.4,2.7-3.2,5.4-3.5,2.8-.4,4.2,2.5,6,1.5.6-.4.7-.9,2.1-4.6,1.9-5.3,2.3-5.8,2.1-7.1-.2-1.6-1-1.5-2.9-4.8-.9-1.5-1.5-3.1-2.9-6.2-2.1-4.8-2.3-5.8-2.6-5.4Z"/>
  </g>
  <g id="left_wing" data-name="left wing">
    <path class="cls-10" d="M983.5,408c-.7-4.3-17.8.2-38.2-7.7-10.1-3.9-18.8-11.6-35.7-26.9-31.3-28.3-26.8-31.7-43.3-42.2-8-5.1-17.9-10-24.5-21.4-1.5-2.6-3.3-6.4-7.1-11-6-7.2-12.1-10.8-14.3-12.1-19.3-11.6-25.5-22.6-62.7-46.1-21.3-13.4-34.2-19.2-40.8-31.8-1-1.9-4-8-9.2-15.9-4.7-7.1-8.9-12-11.7-15.4-16.4-19.2-24.6-28.8-28.2-31.7-6.7-5.5-17.8-12.9-34.6-17.2,3.7,3.1,9.6,8.9,14,18.1,3.8,8,5.9,12,4.9,16-.4,1.5-1.1,2.8-2,4.3-.8,1.4-3.2,5.3-7.7,8.6-3.3,2.4-6.4,3.6-8.6,4.3-32.4,10.1-90.3,15.7-90.3,15.7-32.3,3.1-57.8,9.7-62.9,11.1-21.4,5.6-49.9,15.2-67.7,13.8-6.3-.5-9.9-.1-17.1.6-9.2.9-12.6,2.2-15.4,4.3-5.1,3.8-7.1,9.3-7.7,11.1-4.6,12.1-15.9,22.5-44.2,60.9-26,35.3-19.3,30.3-50,72.9-2.9,4.1-17,23.1-45,61.2-5.2,7.1-11.7,13.4-15.7,21.4-.3.5-1,2-2.4,2.9-2,1.3-3.8.4-6.8.5-.7,0-5.4.2-8.2,2.6-3,2.5-3.4,7-3.6,8.9-.7,5.5-3.4,13.5-12.1,24.2,9.2-7.5,18.8-15,28.8-22.4,5.8-4.3,10.2-7.5,10.6-7.8,15.6-11.2,87.9-30.3,149.7,15.3,58,42.8,66,112.5,65.9,119.4-.1,5.4-.4,11.7-.4,11.7-.3,7-.7,12.4-.8,13.5-1.1,14.3-6.2,35.6-7.1,39.5,3.9-6.4,9.6-16.2,16.3-28.3,6.8-12.3,11.3-21.1,12.9-24.2,0,0,14.6-28.1,38.4-57.4,20.9-25.9,86.1-83.5,167.6-74.9,57.2,6,95.9,41.8,100.9,47.1,2.3,2.4,4.4,5,4.4,5,8.5,10.4,13.2,21.1,16,29.3-2.1-16.1-3.4-28.5-3.9-34.4,0-.8-.2-2.3.6-3.8,2.3-4.2,9.8-3.6,12.7-3.4,9.5.8,18.4,1.8,26.6,2.9,44.6,6,86,28.2,117.4,62.8,6.1,6.8,12.4,13.9,18.6,21.2-1.5-13.8-3.8-25.3-5.8-33.9-3.8-16.3,3.6-42.7-6.1-60.7-2.5-4.7-15.7,2.4-25.8-15.7-7.3-13.1-3.4-19-3.7-25.4-.7-11.9,15.6-9.5,17.2-12,4.5-7,9.3-7.3,12.4-9.4,8.9-6-1.8-18.2,10-22.4,10-3.5,26.5-11.1,25.8-15.4Z"/>
    <path class="cls-11" d="M957.7,415c-.1-2.3-11-.9-24.2-6.2-9.2-3.7-14.2-8.6-23.8-17.3-13.1-11.9-26.5-23.3-40.2-34.4-5.5-4.5-11.5-8-16.1-13.6s-10.2-15.1-17.9-19.5c-4.6-2.7-10.1-3.6-14.4-6.9-4.3-3.3-7-8.4-10.1-13-6.6-9.7-15.6-17.2-24.4-24.5-27.8-23-55.6-46.1-85-66.7-3-2.1-6.2-4.3-9.7-5.1s-7.6,0-10,3c-2.4,3-2.4,7.3-1.8,11.2,2.3,14.2,12.3,25.6,23.3,33.8,26.5,19.6,56.6,33.4,83.1,53.1,26.1,19.5,50.3,42.1,72.6,66.5,14.5,15.8,32.5,37.4,54.5,43.8,10.3,3,20.7,2.4,22.1,2.3,10.8-.7,22.1-4.1,22-6.4Z"/>
    <path class="cls-11" d="M691.4,293.8c3.1,6.7,10.4,30.9,17.8,46s12.5,24.4,12,33.4c0,.7-.3,3.9.3,7.9.4,2.5.9,4.2,2.5,9.3,2.2,7,3.3,10.5,3.7,11.6,2.2,5.9,4.1,10.2,4.9,11.6,10.5,18.7,17.4,49.5,21.1,57.8s8.2,17.2,9.4,28.6c.2,2.1.3,4.4.9,10.3,1.3,12.3-1.7,6.8-2.5,7.2-1.4.6-2.6-.6-9.2-14.8-8.2-17.6-12.1-27.4-15.7-35.4-13.9-31.4-17.5-27.7-27.4-52.6-6.9-17.4-11-34.2-13.2-43.3-3-12.1-2.1-10.9-5.5-26.1-7.6-33.6-18.9-89.1-14.1-93,2.8-2.3,11.1,33.2,15,41.7Z"/>
    <path class="cls-11" d="M232.8,452.3c-1.5-1.6,7.1-13.9,13-22.2,32.7-46.3,49.1-69.5,57.1-80.2,18-24.1,27-36.1,30.2-40.7,12.9-18.3,20.8-30.8,36.9-52.5,5.9-7.9,10.8-14.3,14.2-18.5,1.7.4,5.1.9,9.1-.2,5.8-1.7,9-6,10-7.5,5.5-.8,13.4-1.9,23-3.2,24.9-3.6,40.7-5.8,58.7-8.7,11.7-1.9,20.2-3.4,37.4-6.5,49-8.8,73.5-13.2,76.4-14.2,11.1-4.1,16.1-3.3,27.4-6.5,1.8-.5,6.7-2,9.8.7,1.3,1.1,2.4,3.2,2.1,5-.8,4.2-9.3,5.5-12.3,6-16.4,2.7-24.8,10.2-41.3,11.5-27.6,2.1-24.4,7.5-91.7,19.7-58,10.6-67.7,7.9-88.5,20.8-12.3,7.6-22.2,18.3-41.9,39.6-13.5,14.6-35.9,38.9-59.2,75.1-14.7,22.8-22.6,33.6-38.5,55.1,0,0-7.6,10.3-22.7,22.2-7.8,6.2-8.9,5.6-9.1,5.4Z"/>
    <path class="cls-11" d="M617.2,240.8c3.4,3.7-20.9,35.4-32.4,50.4-24.6,32.1-34.6,38.5-42.9,53.2-3.5,6.2-6.5,13.5-14,17.9-2.4,1.4-5.7,2.7-8.8,6.6-1.3,1.6-4,5.1-4.4,10.4-.3,3.6.7,6.5,1.3,8-9.2,28-17.1,50.5-22.4,65.3-22.9,63.8-25.4,61.6-26.9,77.1-.9,9.5-2,30.4-12.9,54.3-1.7,3.7-3.2,6.6-4.3,8.6-2.1,3.1-4.7,6.6-5.6,6.1-1.7-.9,2.6-13.8,3.6-17.1,2.8-8.5,7-31.8,15.6-78.2,12.5-68,12.9-62.2,20.3-89.5,8.9-33,32.8-72.9,47.1-89.4,25.6-29.6,33.5-42.1,52.3-60.3,9.1-8.8,31.4-26.5,34.3-23.3Z"/>
    <path class="cls-7" d="M983.5,408c-.7-4.3-17.8.2-38.2-7.7-10.1-3.9-18.8-11.6-35.7-26.9-31.3-28.3-26.8-31.7-43.3-42.2-8-5.1-17.9-10-24.5-21.4-1.5-2.6-3.3-6.4-7.1-11-6-7.2-12.1-10.8-14.3-12.1-19.3-11.6-25.5-22.6-62.7-46.1-21.3-13.4-34.2-19.2-40.8-31.8-1-1.9-4-8-9.2-15.9-4.7-7.1-8.9-12-11.7-15.4-16.4-19.2-24.6-28.8-28.2-31.7-6.7-5.5-17.8-12.9-34.6-17.2,3.7,3.1,9.6,8.9,14,18.1,3.8,8,5.9,12,4.9,16-.4,1.5-1.1,2.8-2,4.3-.8,1.4-3.2,5.3-7.7,8.6-3.3,2.4-6.4,3.6-8.6,4.3-32.4,10.1-90.3,15.7-90.3,15.7-32.3,3.1-57.8,9.7-62.9,11.1-21.4,5.6-49.9,15.2-67.7,13.8-6.3-.5-9.9-.1-17.1.6-9.2.9-12.6,2.2-15.4,4.3-5.1,3.8-7.1,9.3-7.7,11.1-4.6,12.1-15.9,22.5-44.2,60.9-26,35.3-19.3,30.3-50,72.9-2.9,4.1-17,23.1-45,61.2-5.2,7.1-11.7,13.4-15.7,21.4-.3.5-1,2-2.4,2.9-2,1.3-3.8.4-6.8.5-.7,0-5.4.2-8.2,2.6-3,2.5-3.4,7-3.6,8.9-.7,5.5-3.4,13.5-12.1,24.2,9.2-7.5,18.8-15,28.8-22.4,5.8-4.3,10.2-7.5,10.6-7.8,15.6-11.2,87.9-30.3,149.7,15.3,58,42.8,66,112.5,65.9,119.4-.1,5.4-.4,11.7-.4,11.7-.3,7-.7,12.4-.8,13.5-1.1,14.3-6.2,35.6-7.1,39.5,3.9-6.4,9.6-16.2,16.3-28.3,6.8-12.3,11.3-21.1,12.9-24.2,0,0,14.6-28.1,38.4-57.4,20.9-25.9,86.1-83.5,167.6-74.9,57.2,6,95.9,41.8,100.9,47.1,2.3,2.4,4.4,5,4.4,5,8.5,10.4,13.2,21.1,16,29.3-2.1-16.1-3.4-28.5-3.9-34.4,0-.8-.2-2.3.6-3.8,2.3-4.2,9.8-3.6,12.7-3.4,9.5.8,18.4,1.8,26.6,2.9,44.6,6,86,28.2,117.4,62.8,6.1,6.8,12.4,13.9,18.6,21.2-1.5-13.8-3.8-25.3-5.8-33.9-3.8-16.3,3.8-46.8-5.9-64.9-2.5-4.7-15.9,6.6-26-11.5-7.3-13.1,4.7-14.9,4.3-21.2-.7-11.9,13.3-16.5,14.9-19,4.5-7-2.6-13.9.5-16,8.9-6,4.4-8.8,16.2-13,10-3.5,26.5-11.1,25.8-15.4Z"/>
    <path class="cls-4" d="M946.1,413.7c-16.4-7.5-28.3-15.7-35.7-21.4-15.4-11.9-41.4-36-52.7-51.9-1.7-2.4-7.2-10.5-17-17-2.1-1.4-4-2.4-5.2-3.1-2.7.5-6.9.8-11.5-.9-12.7-4.9-15.7-21-15.8-22.1-5.8-4.3-15.1-11.4-26.5-20.5-34-27.3-51-41-57.4-47.3-5.2-5-24.8-24.3-37.5-23.5-1.4,0-5.5.4-7.7,3.4-2.6,3.6-1.4,9.1-.7,11.6,7.7,29.8,16.6,51.7,22.2,63.8,3.2,7,6,14.2,8.3,21.6,5.5,17.2,15,38.9,22,67.7,4.9,6.4,7.8,14.3,8.3,22.5,0,.4,0,1,0,1.7,0,0,.2,3.2.7,6.3,2.5,17.5,11.1,34.2,11.1,34.2,5,9.7,11.9,27.2,20.4,61.8,1.6,1.9,3.4,4.5,5,7.7,2.4,4.8,3.6,9.3,4.1,12.5"/>
    <path class="cls-4" d="M765.8,516.6c-.6-1.7-1.1-3.8-1.5-6.2-.5-3.4-.5-6.3-.3-8.6-3.4-9.7-6.8-19.3-10.2-29-8-22.7-16-45.5-24-68.2-2-1.4-4.3-3.5-6.3-6.6-6.3-9.7-3.9-21.1-3.4-23.5-9-25.8-16.4-46.5-21.5-60.7-12.7-35.1-13.5-36-16.4-46.7-3.3-12.2-8.7-23.7-11.3-36.1-1.6-7.4-3.1-17-9.8-20.6-.8-.4-4.7-2.5-8.6-.9-4.4,1.7-6.3,7-6.9,8.5-5.9,15.5-18.7,26.8-26.4,41.3-6.1,11.6-20.3,31.4-48.6,71.4-10.1,14.3-18.8,26.2-25.3,35.1.3,2,1,8.8-2.8,15.6-5.2,9.1-14.4,10.5-15.7,10.7-1,1.9-2.4,4.7-4.1,8.1-12.8,26.7-15.7,45.5-21.8,69.9-6.7,26.8-11.5,46-20.6,65.8-2.7,5.8-10.8,22.8-16.2,47.1-.5,2.4-.9,4.4-1.2,5.8.4,1.3.7,3.4.5,5.9-.1,1.6-.5,2.9-.8,3.9"/>
    <path class="cls-4" d="M442.8,598.9c.1-1.7.6-5.4,3.1-9.1,2.4-3.6,5.3-5.4,6.7-6.1,3-11.2,7.2-26.9,12.6-45.5,6.9-24.2,13.5-47.4,22.7-75.2,6.5-19.7,15.6-45.7,27.7-76.2-.5-1.7-2-7.9.9-14.7,3.8-8.8,12-11.2,13.1-11.5,22.8-31.1,40.5-55,51.9-70.4,12.7-17.1,23.1-36.2,36.5-52.7,8.6-10.6,26.4-31.4,22.1-40.8-2.1-4.5-5.9-6.4-5.9-6.4-3.5-1.7-6.8-1-8.2-.6-28.2,5.2-52.3,10.1-71.3,14-48.2,10-45.2,10.6-60.2,12.5-23,3-40.9,3.1-70.7,10.3-7.2,1.8-13.1,3.4-17,4.6-.7,1.8-2.3,5.5-5.9,8.1-7.7,5.5-17,.8-17.4.5-12.9,18.8-48,70-83.3,119.7-14.3,20.1-28.3,39.4-46.1,62.7-8.2,10.7-15.1,19.6-19.9,25.6"/>
    <path class="cls-11" d="M658.5,170.2c2.4,2.2,3,6.5,8.5,13.8,4.4,5.8,7.6,6.6,7.4,9.6-.2,3.4-4.6,6.9-8,6.4-2.8-.4-3-3.2-6-3.5-3.1-.3-4.6,2.5-6.6,1.5-.7-.4-.8-.9-2.3-4.6-2.1-5.2-2.6-5.7-2.4-7,.3-1.6,1.1-1.5,3.2-4.8.9-1.5,1.7-3,3.2-6.1,2.3-4.8,2.5-5.7,2.9-5.4Z"/>
  </g>
  <g id="body">
    <g id="fill_color_of_the_body" data-name="fill color of the body">
      <g>
        <path class="cls-10" d="M958.1,239.2c.2-1.2.2-2.6,0-4.1-.4-3.1-1.6-5.6-2.9-6.4-.3-.2-.7-.3-1-.3-1.1.2-1.9,1.8-2.1,4.1-3.2,4.2-4.8,7.3-4.8,7.3-1.7,3.3-2.8,6.2-3.5,8.2,4.6-2,8.2-4.3,10.8-6.2.5.5,1,.7,1.5.6,1-.1,1.7-1.4,2-3.3ZM976.9,212.1c10.1-4.6,20.5-6.3,28.3-6.9,5.8-.4,10.1-.2,11.6,0-1.1.4-2.4.9-3.9,1.5h0c5.8-1,23.1-1.7,30-2.1,17.2-1.1,32.1.9,43.6,3.5-13.3,3.8-29,9.5-45.7,18.1-8.9,4.6-16.9,9.5-24,14.2-2.5,1.7-3.4,4.9-2.2,7.6l3.9,8.6c.9,1.9,2.7,3.3,4.8,3.6,8,1,18.7,2.5,31.4,4.5,26.4,4.2,31,5.9,31.3,8.2.4,3.6-11.1,6.4-36.5,19-19.5,9.6-22.4,12.8-22.5,16.1-.3,7.1,12.4,12.9,23.1,17.8,14.3,6.6,27.3,9.5,36.5,10.8-12.4,7.9-23.1,14.9-31.6,20.4-15.5,10.2-24,16.1-22.8,20.5.6,2,2.9,2.9,5.5,3.9,8.9,3.6,16.7,9.6,25.4,13.8,12.7,6.1,21.4,13.2,28.3,18.9,10,8.1,17.6,14.5,23.8,25.6,3.6,6.3,8.7,15.8,6.9,26.9-1.3,8.3-5.9,13.8-8,16.5-13.2,16.8-20.9,35.6-30.5,59.2-3.2,7.8-6.2,24.6-12.4,58.2-5,27.2-5.9,36-10.9,59.4-5.4,24.8-9.3,37.4-18.2,50.7-2.5,3.8-5.5,7.7-17.3,20-22.9,23.9-31.3,29.7-46.9,45.3-28.1,28.2-22.8,31.5-44.6,49.2-11.8,9.6-24,19.4-42.6,25.7-14.8,5-17.3,2.3-26.4,8-9.9,6.2-15.6,14.8-32.5,27.2-1.9,1.4-3.6,2.6-6,3.8-9.8,5-17.8,3.5-24.4,4.4-8.1,1.1-11.5,5.2-25.2,16.3-19.9,16.3-15.7,10-43.1,31.6-33.3,26.3-21.4,21.2-35.9,31.2,0,0-12.8,8.8-16.9,20.3-.8,2.1-2.5,7-.3,9.9,1,1.3,2.6,2,4.4,4.7.8,1.1,1.3,2.2,1.5,2.8,1.5,4.2-2.8,9.8-4.8,12.4-3.6,4.6-9.1,11-16.6,18.4,1.8-3.9,4.2-10.3,4.3-18.5,0-4.5-.6-8.3-1.3-11.3-1.2,2.1-2.6,4.3-4.6,6.6-6.1,7.3-13.4,11-18.1,12.8,11.7-17.8,14.5-23.8,13.5-24.6-.5-.4-2.3.7-4.4-.3-1-.4-1.6-1.1-2.1-1.6-5.8,2.8-11.6,5.7-17.4,8.5,9.2-8.6,10.8-14.4,10.4-18.2-.2-2.1-1.1-5.4.6-8.7,1.4-2.7,3.6-3.5,3.4-5.6-.2-2.1-2.5-2.8-2.4-4.7,0-1.2,1.1-2.1,1.9-2.7-2.4.3-5.1.4-8,.3-5.8-.1-10.8-1.1-14.7-2.1,6.8-1.7,11.2-4.4,13.9-6.6,2.8-2.2,4.6-4.3,8-4.8,3.3-.4,4.2,1.3,7.9,1.5,4.3.2,7.7-1.9,11.5-4.4,5.8-3.8,9.3-8.2,10.2-9.2,19.5-24.4,29.2-36.6,33.1-43.1,2.9-4.9,4.1-7.3,7.2-10.5,7.4-7.6,16.7-10.5,23.1-11.7,4.9-10.6,13.5-26,28.7-40.4,8.5-8.1,15.6-14.8,20.1-20.6-1-2.3-1.1-5.2-1.4-7.7-.4-4-.6-8-.6-12.1,0-8.8,3.3-17.3,8-24.7,4.1-6.5,9.4-11.6,14.2-17.6,2.7-3.4,6.6-7.7,7.4-11.9,1.8-9.3,3.9-18.5,6.9-27.5,8-23.6,18.8-39.6,21.8-43.9,6.9-9.9,5.9-6,26.3-31.4,5.5-6.8,11.5-13.3,17-20.2,9.3-11.8,11.8-16.2,18-17.6,6.7-1.5,12.7,1.6,15.9-2.1,1.3-1.6,1.4-3.5,1.4-5.7.2-10.5-.3-18-.4-21.4,0-4.5,1-9.8,3.3-20.3,1.1-5.3,2.3-9.8,4.4-17.8,2.6-10.2,3.8-13.9,3.6-19.9-.2-5.5-.3-8.5-2.3-11-4-4.9-11.4-3.5-24.7-3.9-10.5-.3-6.5-1.2-24.7-2.7-9-.7-20.7-.3-44.1.5-3,.1-7.3.3-11.8,2.9-5.6,3.3-9,9.2-9.3,9.6-2.6,4.5-2.1,6.7-4.7,8.2-2.8,1.6-6.2.5-8.6-.3-1.6-.5-5.5-1.7-7.8-5.2-1.6-2.3-1.2-3.8-2.9-4.9-1.9-1.2-3.4-.2-5.8-.6-4.4-.7-8.8-5.3-9.2-9.7-.5-4.7,3.8-7,2.4-10-.9-2.1-3.2-1.4-7.8-4.1-2.6-1.6-6.9-4.1-7.1-7.6-.1-3.1,3-5.7,4-6.5,3.7-3,6.8-2.1,7.5-4,1.1-2.9-5.6-6.1-5.1-10.1.6-4.5,10-6.6,10.6-6.8,11.1-2.4,18,3.4,31.2,7.5,4,1.2,13.4,2.1,32.2,3.7,15.2,1.3,25.1,2.1,32.5,2.1,4.7-.5,13.1-4.7,21.2-9.6,2.2-1.3,7.5-4.8,12.6-11.1,9.6-12,8.7-19.3,16.4-29,4.5-5.7,4.8-26.1,17.9-31,1.1-14.3-1.9-24.9-2.3-29.8-.8-9.4-.3-4.9-3.5-29.6-1.4-10.6-3.2-25.3-3.9-30.9-1.8,1.5-3.5,2.9-4.9,4-7.9,5.9-13.6,15.1-17.1,16.2-5.3,1.6-11.7-1.9-12.7-2.3-4-1.8-4.5-3.2-10.7-7.6-9.5-6.8-11.2-5.5-12.6-8.5-2.3-5.1,2.9-8.3,3.4-20.6.1-2.3-.1-1-.4-10-.2-7.6-.1-10.1-.3-15.9,0,0,0-.6,0-1.8,0,0,.1,0,.2,0,1.6-.2,2.4-4.4,1.7-9.4-.5-3.8-1.7-7-3-8.1-1.2-11.7-3-20.7-3.6-23.6-2.1-10.7-6.4-38-15.9-110.6,12.5,53.4,22.2,78.4,29.1,91,1.1,2,3.5,7.1,5.9,14.5.3-1.1,5.7-8.7,8.3-10.8,1.4-1.2,5.8-2.7,6.7-3h.4c1.4-6.8,3.3-14,5.7-21.4,17.7-53.7,55.1-85.3,72.9-98.5-11.2,20.8-21.6,46.4-32.2,75.5-1.6,4.4-2.9,8.3-3.9,11.9,4.1-3.8,18.2-14.6,25.6-18.7,8.6-4.7,16.5-7.1,22.4-8.4-5.2,3.1-10.7,9.4-18.4,15.5-7.5,6-9.7,18.5-8.9,20.8,22.9-24.8,47.4-41.6,47.4-41.6,9.8-6.7,23.2-14.9,40.1-22.5-3.9,3.8-9.7,9.5-16.3,16.8-14.4,15.9-27.8,30.7-39.5,51.8-1.1,1.9-2.1,3.9-3.1,5.9-4.7,8.8-9.8,18-19.9,28.1-3,3-5.7,5.3-7.5,6.8Z"/>
        <path class="cls-10" d="M1049.4,173.6c.3,1.8-11,3-22.8,10.1-10.5,6.3-17.2,14.8-21.5,21.6-7.8.6-18.2,2.2-28.3,6.9,1.8-1.5,4.5-3.8,7.5-6.8,10.1-10.1,15.2-19.4,19.9-28.1,5-1.5,12.6-3.3,21.9-4.3,10.1-1.1,22.9-1.2,23.2.7Z"/>
        <path class="cls-10" d="M958,235.1c.2,1.5.2,2.9,0,4.1-.6.5-1.2,1-1.9,1.6-.5.4-1,.8-1.5,1.1-1.1-1-2-3.3-2.4-6-.2-1.2-.2-2.3-.1-3.3.9-1.2,1.9-2.5,3.1-3.9,1.3.8,2.4,3.3,2.9,6.4Z"/>
        <path class="cls-10" d="M956.1,240.8c.7-.6,1.4-1.1,1.9-1.6-.3,1.9-1,3.2-2,3.3-.5,0-1-.2-1.5-.6.5-.4,1.1-.8,1.5-1.1Z"/>
        <path class="cls-10" d="M954.2,228.5c.3,0,.7,0,1,.3-1.2,1.4-2.2,2.6-3.1,3.9.2-2.3,1-4,2.1-4.1Z"/>
        <path class="cls-10" d="M884.6,240.8c.7,4.9,0,9.1-1.7,9.4,0,0-.1,0-.2,0,0-2.5-.3-7.3-.7-12.8-.1-1.6-.3-3.2-.4-4.7,1.3,1.1,2.5,4.3,3,8.1Z"/>
        <path class="cls-10" d="M882,237.3c.4,5.5.6,10.3.7,12.8-1.6,0-3.3-3.8-4-8.6-.7-4.9.1-9.1,1.7-9.3.4,0,.7.1,1.1.4.1,1.5.3,3.1.4,4.7Z"/>
      </g>
    </g>
    <g id="body_shadows" data-name="body shadows">
      <path class="cls-11" d="M892.4,708.9c7.5-8.5,11.2-12.7,15.5-19.3,8.7-13.1,9.5-19.6,18.5-27.6,3.4-3,12.1-10.8,18.5-8,4.8,2.1,6,9.2,6.7,13.9.7,4.3,2.2,17.8-7.2,35.1-1.4,2.7-4.9,8.5-19.8,23.8-5.1,5.2-13.7,13.7-29.2,27.1,0,0-23.5,20.2-46.4,28.1-1.6.6-4.7,1.5-6.7,0-2.5-1.9-2.3-6.7-1.3-9.9,2.1-7.4,8.5-8.4,15-16.1,4.5-5.2,3.8-7.5,8-15.3,6.7-12.4,11.7-13,28.4-31.9Z"/>
      <path class="cls-11" d="M1015.8,509.5c1.2.6,3.5-3.3,9.6-5.4,2.2-.7,4.1-.9,7.7-1.1,8.8-.6,10.1,1,16.1,0,5.3-.9,5.4-2.3,9-2,4.4.3,4.8,2.6,10.5,4.3,6.2,1.9,6.7-.6,13,1.5,8.2,2.6,10.7,3.7,10.7,3.7,1.1.5,1.7.7,2.5.7,3.1-.4,3.4-5.2,6.6-11.4,2.8-5.3,6.9-10.2,11.2-15.2,2.2-2.6,3.7-4.1,3.2-4.7-.9-1-6.4,2.9-15.5,5-6,1.4-10.8,1.3-17.4,1.3-7.5,0-11.6-.8-12.9-1.1-4.5-.9-6.7-1.4-9.2-3-3.4-2.1-4.2-4.3-6.4-4.3-1.7,0-2.5,1.3-5.1,3.5-1.8,1.6-3.9,3-8.1,5.9-2.1,1.5-5.1,3-11,6-8.4,4.4-9.9,4.8-11.7,6.9-3.2,3.8-3.9,8.7-2.7,9.3Z"/>
      <path class="cls-11" d="M791,460.2c.7-1.6,8.4,0,14.2,2.3,6,2.3,11.3,4.3,15.2,9.4,8.3,10.8,3.3,25.9,2.1,29.2-1.9,5.6-4.9,10.2-5.4,10-.4-.2,1-3.3,1.1-8.2.1-2.9-.3-5.3-.6-6.9,0-.3,0-.7-.2-.7-.5-.2-1.1,4.5-4.4,7.7-3.4,3.3-8.3,4.1-9.1,4.2-.4,0-.7,0-1,.1,1.2-2.4,2.4-4.9,3.5-7.5,2.1-4.9,3.8-9.5,5.3-13.9-2.2,1.7-5.2,3.5-9,4.7-5.4,1.7-12.9,2.3-13.7.2-.2-.6.1-1.3.4-1.7,1.4-2.6,5.4-2.9,6.8-3.1,3.3-.5,7.9-2.4,13.5-9-4.6-1-9.3-1.9-13.9-2.9,2.8-1,5.7-2,8.5-3-1.5-.7-3.5-1.8-5.9-3.5-1.5-1.1-8.2-5.7-7.4-7.3Z"/>
      <path class="cls-11" d="M796.8,894.8c-.7-1.6,2.7-4.3,10.2-10.2,14.7-11.4,22-17.1,24.9-19,16.4-10.5,30.1-16.5,47.4-25.1,40.3-19.9,61.3-34.2,65.1-29.7,1.4,1.7.1,5.6-.8,7.4-2.1,4.1-6,5.1-10.6,7.5-7.7,4.1-6.8,6.7-15.4,12.9-6.5,4.7-12.1,6.8-18.3,9.3-8,3.1-15.1,5.9-24.7,7-3.5.4-6.3.5-9.9,2.3-4.9,2.4-7,5.9-9.9,9.5-4.7,5.9-9.1,9.1-16.4,14.7-4.9,3.7-11.9,8.8-21.8,11.9-7.8,2.5-18.7,4.1-19.8,1.4Z"/>
      <path class="cls-11" d="M1002.4,130.2c-.5-.8-10.3,3.2-24.3,11.5-9.4,5.5-16.8,10.6-21.8,14.3-3.4,8.2-6.8,19-7.8,31.9-.3,4-.4,7.7-.3,11.2,3.5-6.5,7.3-11,10.1-14,7.4-7.8,13.4-10.2,16.8-18.4,1.5-3.7,1-5,2-8.7,4.6-17.9,26.2-26.4,25.4-27.7Z"/>
      <path class="cls-11" d="M972.2,273.3c-4.4-1-9.9,3-20.7,11.1-6.5,4.9-11.4,9.5-14.7,12.7.7,2.4,1.3,4.7,2,7.1,5.1,3.1,11.8,7.7,18.4,14.4,30,30.2,29.4,71.3,32.9,70.9,4.5-.6-3.7-68.4-4.4-74.2-3.1-24.8-5.8-40.3-13.6-42Z"/>
      <path class="cls-11" d="M867.5,499.9c0-.5,7.4,1.6,19.6,0,0,0,0,0,0,0,9.6-1.2,16.6-4.1,19.3-4.9,16.1-5,24.2-7.4,26.8-9.1,11.3-7.4,17.6-19.2,18.9-21.9,4.4-8.5,4.6-14.1,8.2-14.7,4.5-.8,9.7,7.1,11.8,12.4.3.7,4,10.8-1,20.2-2.1,4-5.1,6.8-5.6,7.2-3.8,3.5-5.7,3-8.5,6.5-1.3,1.6-1.1,2-4.2,7.2-1.7,2.8-3,4.8-3.3,5.2-3.6,5.5-11,13.8-13.7,12.4-2.2-1.1,1-7-2.6-11.1-1.5-1.7-3.5-2.2-7.5-3.3-3.6-.9-6.8-1.2-10.4-1.3-7.6-.1-7.6.8-12.7.7-8.7-.3-8.8-3.1-17.4-3.1-3.4,0-5.8.4-10.3-.3-4.1-.6-7.3-1.8-7.2-2.1Z"/>
      <path class="cls-11" d="M981.4,208.3c3.6-3.5,7.3-7,10.9-10.5,3.9-6.6,7.8-13.3,11.7-19.9,2.9-1.1,6.1-2.2,9.5-3,14.1-3.6,26.8-2.9,36-1.3-6.2,1.8-14.4,4.9-23.2,10.4-11.2,7-18.6,15.1-23.2,20.9-7.2,1.1-14.5,2.3-21.7,3.4Z"/>
      <path class="cls-11" d="M1014.3,242.3h0s21.2-13.1,21.2-13.1l28.5-14.2s17.1-6.4,22.2-6.7-22.2-5.2-33.7-3.9-38.3,2.3-38.9,2.4-14.3,5.5-22,16-11.1,17.9-11.1,17.9l40.6,19.8-3.4-5.6c-.3-.4-.5-.9-.7-1.4-1.5-3.7-2.7-7.2-2.7-11.1Z"/>
      <path class="cls-11" d="M1078.3,276c-17.4,2.6-31.6,5.6-42.1,8.2-7.7,1.9-14,3.6-17,9.2-2.6,4.8-2.6,12.4,1.9,17.6,2.8,3.2,6.3,4.4,8,4.8-.3-2.4-.7-4.8-1-7.1,4.2-3.7,8.3-7.4,12.5-11.1,12.6-7.2,25.2-14.4,37.8-21.6Z"/>
      <path class="cls-11" d="M1078.6,335.3c-10.2,2.9-18.5,4-24.2,4.5-11.9,1.1-17.4-.2-21.7,4.1-4.5,4.5-4.4,11.7-4.3,17,.2,8.5,3.1,14.9,4.9,18.3-.3-2.4-.3-5.8,1-9.4,2.9-8.1,10.4-11.6,18.4-16.3,6.7-3.9,15.7-9.7,25.9-18.2Z"/>
      <path class="cls-11" d="M1083.3,410.5c-.4.3,3.6,2.8,3.1,5.9-.4,2.7-3.9,3.2-9.6,8.3-2.3,2.1-3.8,3.5-3.3,4.4.7,1.2,4.4.3,10.8.1,4.2,0,12.2.1,20.5,2.8,2.8.9,4.9,1.9,6.3,2.5-2.5-2.6-6.1-6.3-10.8-10.6-9.2-8.5-16.5-13.9-17-13.5Z"/>
      <path class="cls-11" d="M1012,735.3c-4.4-7.9-4.1-15.7-3.4-25.9,1.2-17.5,1.7-26.3,2.5-28.9,4.6-14.3,10.6-13.7,16.1-29.3,1.8-5.2,2.9-12.1,5.1-25.9,2.2-13.9,2-17.9,5.1-25.5,3.6-8.7,5.8-8.3,9.3-16.1,7.5-16.7,3.5-32.6,4.7-32.7.9,0,3.3,10.1,3.8,23.4.4,11.4-1,13.4-1.7,31.4-.3,7-.5,14.5,0,24.2.5,9.1,1.2,11.5,2.1,22.1,1.3,14.4,1.9,21.7,1.3,27.2-1.2,11.1-6.9,20.3-18.3,38.7-14.5,23.5-19.3,23.8-21.2,23.4-2.5-.5-3.9-3-5.5-5.9Z"/>
    </g>
    <g id="body_lineart" data-name="body lineart">
      <path class="cls-8" d="M973.1,272.4c-19.1,9.1-32.2,22.3-39.9,28.2-7.9,5.9-13.6,15.2-17.1,16.2-5.3,1.6-11.7-1.9-12.7-2.3-4-1.8-4.5-3.2-10.7-7.6-9.5-6.8-11.2-5.5-12.6-8.5-2.3-5.1,2.9-8.3,3.4-20.6.1-2.3-.1-1-.4-10-.2-7.6-.1-10.1-.3-15.9,0,0-.2-6.5-.8-14.6-1.1-13.9-3.4-25-4-28.3-2.1-10.7-6.4-38-15.9-110.6,12.5,53.4,22.2,78.4,29.1,91,2.2,4,9.3,20.1,12.4,42,.6,4.1.8,7.5,1,9.8"/>
      <path class="cls-1" d="M948.8,274.3c-6.9,5.9-13.8,11.8-20.7,17.6"/>
      <path class="cls-1" d="M919.8,297.3c-5,.8-9,.9-11.8.9-5.5,0-6.9-.8-10.1.2-4.4,1.4-4.6,3.8-8.1,4-3.3.1-6.6-1.9-7.5-2.4-1-.6-1.8-1.2-2.4-1.7"/>
      <ellipse class="cls-9" cx="881.7" cy="241.2" rx="2.9" ry="9" transform="translate(-24.3 119.7) rotate(-7.7)"/>
      <ellipse class="cls-9" cx="955.1" cy="235.5" rx="2.9" ry="7.1" transform="translate(-22.9 129.4) rotate(-7.7)"/>
      <path class="cls-1" d="M914.4,270c-.1-.6-.3-1.7.2-3,.2-.4.9-2.4,2.6-2.8.8-.2,1.5,0,1.8.2.1,0,1.6.6,1.6,1.3,0,.6-1.3.9-1.9,1-.1,0-1,.2-2-.3-.3-.1-.6-.2-.6-.4,0-.3.9-.8,1.8-.8.4,0,.8.1,1,.2"/>
      <path class="cls-8" d="M963.6,225.7c.3,1.5.6,4-.3,6.7-.5,1.5-1.6,4-7.2,8.4-2.7,2.1-6.8,4.9-12.3,7.3.7-2.1,1.8-4.9,3.5-8.2,0,0,6.5-12.3,19.2-21.7,19.9-14.6,46-13.3,50.3-13-5,1.8-13.1,5.4-21,12.8-9.1,8.4-13.4,17.6-15.4,22.7"/>
      <path class="cls-1" d="M908.8,222.7c.5-15,2.8-33.6,9.5-54,17.7-53.7,55.1-85.3,72.9-98.5-11.2,20.8-21.6,46.4-32.2,75.5-6.7,18.6-8,28.8-10.3,44"/>
      <path class="cls-1" d="M901.6,199c.3-1.1,1.2-3.8,3.8-5.9,1.4-1.2,2.9-1.7,3.9-2"/>
      <path class="cls-1" d="M963.6,151.3c4-3.8,9.7-8.3,17.1-12.4,8.6-4.7,16.5-7.1,22.4-8.4-5.2,3.1-12,8.1-18.4,15.5-3.5,4.1-6.1,8.1-8.2,11.6"/>
      <path class="cls-8" d="M976.9,212.1c1.8-1.5,4.5-3.8,7.5-6.8,12.4-12.4,17.3-23.5,23.1-34,11.7-21.1,25-35.9,39.5-51.8,6.6-7.3,12.4-13,16.3-16.8-16.9,7.6-30.3,15.8-40.1,22.5,0,0-30.9,21.1-55.7,51-4.4,5.3-8.6,10.9-8.8,11.1-4.9,6.5-11.4,15.7-18.2,27.5-5.4,9.3-8.1,13.9-9.1,17.3-1.1,3.6-2.7,11.1-5.7,17.5-.4.8-1.5,3.3-3.7,6-1.3,1.7-2.4,3.1-4.3,4.3-2.6,1.7-3.8,1.3-5.3,2.4-1.4,1.1-3,3.4-2.9,8.8"/>
      <path class="cls-1" d="M1010.9,175.9c4.3-1.3,9.5-2.5,15.4-3.1,9.2-1,17.2-.3,23.2.7-6.2,1.8-14.2,4.9-22.8,10.1-8.5,5.2-14.9,10.8-19.4,15.4"/>
      <path class="cls-1" d="M1023.9,207c5.8-1.1,12.1-2,19-2.4,17.2-1.1,32.1.9,43.6,3.5-13.3,3.8-29,9.5-45.7,18.1-10.8,5.6-20.2,11.5-28.3,17.2"/>
      <path class="cls-8" d="M879.7,467.6c-7.4,0-17.3-.8-32.5-2.1-18.8-1.6-28.2-2.4-32.2-3.7-13.2-4.1-20.1-9.9-31.2-7.5-.6.1-10,2.2-10.6,6.7-.5,4,6.2,7.2,5.1,10.1-.7,1.9-3.8,1-7.5,4-1,.8-4.2,3.4-4,6.5.2,3.5,4.4,6,7,7.6,4.6,2.7,6.9,2.1,7.8,4.1,1.4,3-2.9,5.2-2.5,10,.5,4.4,4.8,9,9.2,9.7,2.5.4,4-.6,5.8.6,1.7,1.1,1.3,2.6,2.9,4.9,2.4,3.5,6.2,4.7,7.8,5.2,2.4.8,5.8,1.8,8.6.3,2.6-1.4,2.1-3.7,4.7-8.2.3-.5,3.7-6.3,9.3-9.6,4.4-2.6,8.8-2.8,11.7-2.9,23.4-.8,35.1-1.2,44.1-.5,18.3,1.4,14.2,2.3,24.7,2.7,13.3.4,20.7-1.1,24.7,3.9,2.1,2.5,2.2,5.5,2.3,11,.2,6-1,9.8-3.6,19.9-2.1,8-3.2,12.4-4.3,17.8-2.2,10.5-3.3,15.7-3.3,20.3,0,3.4.5,10.8.4,21.4,0,2.2,0,4.1-1.4,5.7-3.1,3.8-9.2.6-15.9,2.1-6.2,1.4-8.6,5.8-18,17.6-5.4,6.9-11.4,13.3-17,20.2-20.4,25.4-19.4,21.5-26.3,31.4-3,4.3-13.8,20.3-21.8,43.9-3,9-5.2,18.2-6.9,27.5s-4.7,8.6-7.4,11.9c-4.8,5.9-10.1,11.1-14.2,17.6-4.7,7.4-8,15.9-8,24.7s.2,8.1.6,12.1.4,5.3,1.4,7.7c.8-2.4,2-5.9,3.9-10,2.6-5.5,7.6-14.8,9.6-14.1.6.2.6,1.1,1.1,5.4.3,2.7.8,5.4,1.1,8.1.4,3.3,1.7,8.2,6.1,15.2-.4-2.8-.7-7.4.7-12.8,1.2-4.8,3.4-10.7,4.6-10.4.7.1.8,2.6.9,4.3.3,4.6,1.2,11.1,4.1,19.5,1-5.8,1.5-10.6,1.7-13.9.4-5.5.3-8.7,2-9.3,1.5-.6,3.9,1.2,5.1,3,1.6,2.4,1.3,5,1.1,7.7-.2,3.2-.1,7.7.9,13.3,2.4-4.6,3.4-8.6,3.8-11.4.5-3.1.7-6.4.9-9.6.2-3.4.8-6.8,1.7-10.2s3-6.7,2.7-10.3-2.3-6.7-1.3-10.3,2.2-4.2,3.8-5.9c9.2-10,15.4-22.4,24.2-32.8,4.7-5.6,12.4-14.7,22.3-26.7"/>
      <path class="cls-8" d="M938.9,302.7c.7,5.6,1.7,14.2,3.1,24.8,3.2,24.6,2.7,20.2,3.5,29.5s3.4,15.6,2.3,29.8c-13.1,5-13.4,25.4-17.9,31-7.7,9.8-6.8,17.1-16.4,29-5.1,6.3-10.4,9.8-12.6,11.1-8,4.9-16.4,9.1-21.2,9.6"/>
      <path class="cls-1" d="M897.1,740.5c-6.2,5.6-14.4,11.6-25,15.9-1.1.5-2.2.9-3.3,1.3-1.7.6-3.6.2-4.9-1s-1.8-1.9-2.4-3.4c-.5-1.2-.7-2.3-.8-3.1"/>
      <path class="cls-6" d="M1032.4,377.6c-1-3.7,5.3-16,18.6-24.7,7.2-4.8,16.3-10.7,26.9-17.4-7.9-1.2-18.9-3.6-31.1-9.2-9.1-4.2-19.9-9.2-19.7-15.2.2-4.5,5.3-10.3,18.1-16.7,8.7-4.3,21.4-12,35.8-19.8-7.9-.2-17.6-1.7-30.6-4.8-14-3.3-24-5.7-31.1-10.5"/>
      <path class="cls-8" d="M793.4,824.7c-7.2,4.2-15.6,10-24.1,18.1-15.2,14.5-23.9,29.8-28.7,40.4-6.5,1.3-15.7,4.2-23.1,11.7-3.1,3.2-4.3,5.6-7.2,10.5-3.9,6.5-13.6,18.7-33.1,43.1-.8,1-4.3,5.4-10.2,9.2-3.8,2.5-7.1,4.6-11.5,4.4-3.7-.2-4.5-1.9-7.9-1.5-3.4.4-5.2,2.6-8,4.8-2.8,2.2-7.2,4.8-13.9,6.6,4,1.1,9,2,14.7,2.1,2.9,0,5.6,0,8-.3-.8.6-1.8,1.5-1.9,2.7-.1,1.9,2.2,2.7,2.4,4.7.2,2.1-2,2.9-3.4,5.6-1.7,3.3-.8,6.6-.6,8.7.4,3.8-1.3,9.7-10.4,18.2,5.8-2.8,11.6-5.7,17.4-8.5.4.5,1.1,1.2,2.1,1.6,2.1.9,3.9-.1,4.4.3,1,.8-1.8,6.8-13.5,24.6,4.7-1.8,12-5.5,18.1-12.8,1.9-2.3,3.4-4.5,4.6-6.6.7,3,1.4,6.8,1.3,11.3-.1,8.2-2.5,14.7-4.3,18.5,7.6-7.4,13-13.8,16.6-18.4,2-2.5,6.4-8.2,4.9-12.4-.2-.6-.7-1.7-1.5-2.8-1.8-2.7-3.4-3.4-4.4-4.7-2.2-2.9-.5-7.7.3-9.9,4.1-11.5,16.9-20.3,16.9-20.3,14.5-10,2.6-4.9,35.9-31.2,27.4-21.6,23.2-15.3,43.1-31.6,13.6-11.1,17.1-15.3,25.2-16.3,6.6-.9,14.6.6,24.4-4.4,2.4-1.2,4.1-2.4,6-3.8,16.9-12.4,22.6-21,32.5-27.2,9.1-5.7,11.6-3,26.4-8,18.6-6.3,30.9-16.1,42.7-25.7,21.7-17.7,16.5-21,44.6-49.2,15.6-15.6,24-21.5,46.9-45.3,11.8-12.3,14.8-16.2,17.3-20,8.9-13.3,12.8-25.9,18.2-50.7,5.1-23.4,6-32.2,11-59.4,6.1-33.6,9.2-50.4,12.4-58.2,9.6-23.6,17.3-42.4,30.5-59.2,2.2-2.7,6.7-8.2,8-16.5,1.8-11.1-3.4-20.6-6.9-26.9-6.2-11.1-13.9-17.5-23.8-25.6-6.9-5.7-15.7-12.8-28.3-18.9-8.7-4.2-16.4-10.2-25.4-13.8-2.6-1-4.9-1.9-5.5-3.9"/>
      <path class="cls-8" d="M1096.5,430.5c-11.5-1.2-22.8-.8-45.5,1.2-17.1,1.6-23,5.6-26.7,9.8-2.6,3-6.1,9-7.2,11-4,6.9-3.8,8.3-6.7,10.7-4.5,3.9-7.1,2.2-13,6.3-5.2,3.6-3.7,5.1-9.9,9.8-4.2,3.1-8.3,5.1-11.2,6.4-4.6,2.1-7.6,3-9.4,3.7-4.9,1.9-11.2,6.5-16.2,19.1,1.9-1.1,4.6-2.5,7.9-4.1,3.6-1.7,6.6-3.1,10.7-4.1,1.3-.3,9.3-2.4,10.4-.7.7,1.1-2,3.4-3.5,4.7-4.1,3.6-9.4,9.2-14.9,17.9,3.7-.8,8-2.2,12.4-4.4,6.1-3,10.2-6.6,11.8-5.6.8.5.7,1.7.4,2.9-1.4,6.8-7.8,14.3-11.4,18,3.4-1.3,8.2-3.7,12.9-7.7,4.6-4,6.9-7.8,8.5-7.3,1.5.4,1.2,4.2.9,7.4-.5,5.3-1.7,9.9-3.2,13.7,6.4-5,10.7-9.9,13.6-13.5,3.9-4.9,5.8-7.4,7.2-11.3,2.1-5.7.9-8.3,4-12.3,1.4-1.8,3.5-3.1,7.8-5.8,9.1-5.7,10.4-4.9,15.7-8.8,6.2-4.5,7.4-7.7,11.3-7.7,3,0,5,2,6.4,3,6,4.7,14.4,4.1,28.7,3.7,15.4-.5,18.5-2.4,22.5-4.9,18.4-11.2,15.3-47.9-14.6-51.2Z"/>
      <path class="cls-1" d="M789.3,460.2c1.5,1.6,3.5,3.6,6.2,5.5,3.9,2.6,7.6,3.9,10.2,4.6-3.6,1.2-7.1,2.3-10.7,3.5,4.8,1.1,9.5,2.2,14.3,3.4-4.2,3.9-7.8,6.1-10.2,7.3-3.1,1.6-4.7,2.4-6.7,3-2.4.6-4.3.7-4.5,1.6-.2.9,1.3,2,2.2,2.5,2.3,1.3,4.9,1.1,8.9.1,3-.8,7.3-2.1,12.2-4.8-.6,2.7-1.6,5.8-3.1,9.2-2,4.5-4.4,8.1-6.5,10.7,1,.6,1.8.9,2.6,1,4.4.6,9.5-4,12.8-11.2.4,2.3.6,5.5,0,9.2-.3,2-.8,3.8-1.4,5.2"/>
    </g>
  </g>
</svg>