<?xml version="1.0" encoding="UTF-8"?>
<svg id="export" xmlns="http://www.w3.org/2000/svg" version="1.1" viewBox="0 0 330 1742">
  <defs>
    <style>
      .cls-1, .cls-2, .cls-3 {
        stroke: #000;
        stroke-miterlimit: 10;
      }

      .cls-1, .cls-4 {
        fill: #000;
      }

      .cls-2 {
        stroke-width: 2px;
      }

      .cls-2, .cls-3 {
        fill: none;
      }

      .cls-4 {
        stroke-width: 0px;
      }

      .cls-3 {
        stroke-width: 3px;
      }
    </style>
  </defs>
  <path class="cls-4" d="M298.8,320.5c-2.7-5.4-4-11.3-6.7-16.7-2.4-5.5-5.5-10.6-8.7-15.6-4.7-7.6-10.4-14.7-16.8-20.9-19-19.3-39.7-37.3-54.1-61.1-3.1-5.3-5.7-10.9-7.7-16.8-2.9-8.8-4-18.1-4.2-27.3,0-6.2-.5-12.2.3-18.4.4-3.1,1.1-6.2,1.7-9,1.5-6.4-1.1-9.9-5.4-14.1-4.1-4.4-8.8-7.8-13.5-11.5-4.7-3.8-9.6-7.5-13.7-12.1-4.1-4.6-7.3-9.9-9.6-15.5,0,0,.2-.1.2-.1,3.1,5.2,6.7,10,11,14,8.8,8.2,20.1,13.6,28.6,22.3,10.4,9.5,7,14.7,5.1,26.6-.8,8.7-.3,17.8.1,26.6,1.3,24.2,15.8,44.6,31.4,62.3,11.8,13.6,25.6,25.6,37.4,39.3,6,6.8,11.8,14.1,15.7,22.4,2.8,5.4,5.1,11,7,16.8,1,2.9,1.8,5.8,1.9,8.9h-.2Z"/>
  <path class="cls-4" d="M191.2,43.4c-4.1-.6-8.3-.4-12.4-.7,0,0-6.2-.6-6.2-.6-3.9-.3-8.2-1-11.9-.4-4,.8-2.4,5.5-1.6,8.5,1.8,5.8,4.5,11.3,7.8,16.5,2.2,3.5,4.7,6.8,7.1,10.1,3.7,4.9,7.2,10.1,11.6,14.3,4.5,3.9,9.6,7.6,15.1,9.9,3.9,1.7,7.7,2.2,11.9,3.5,8.7,3.3,12.4,13,14,21.4,1.2,8.1,2,16.3,4.4,24.2,1.1,3.9,2.6,7.3,4.9,10.7,2.5,3.8,5.8,8.4,7.7,11.3,1.3,2,3.5,5.4,4.8,7.4,12.3,20,25.2,40.1,32.1,62.8,3.9,12.9,7,25.9,10.2,38.9,3.1,13,6.1,26.1,8.7,39.2,0,0-1.2.3-1.2.3l-5-19.4c-3.4-12.9-6.9-25.8-10.6-38.7-5.1-19.3-11.9-38-22.4-55.1-4.9-8.2-10.6-17.4-15.7-25.5-1.4-2.3-4.1-6.3-5.3-8.2-2.9-4.5-7.8-10.6-10.3-16.3-4.1-9.8-4.9-20.9-6.1-31-1.2-7.1-4.1-16-11.3-18.9-3.7-1.3-8.2-2.1-11.9-3.8-7.8-3.5-14.8-8.8-20.1-15.5-8.7-11.7-18.3-23.2-22.9-37.3-3.6-9.8-.3-13.5,10-12.6,4.2.2,8.3.8,12.5,1.4,4.1.7,8.1,2.1,12.2,2.9,0,0-.1.8-.1.8h0Z"/>
  <path class="cls-4" d="M160,40.3c1.1,2.8,2.5,5.4,4.2,7.9,4.8,7.6,9.2,15.3,14.6,22.5,4.2,6.1,8.3,12.5,14.3,16.9,3.4,2.8,7.1,5.3,11.2,7,5.4,2.7,12.3,2.5,17,6.6,3.8,3.1,5.7,7.5,7.4,12,1.6,4.3,1.9,9.1,2.6,13.6,1.2,8.7,3,17.6,7.1,25.4,5.7,10.3,14.2,19,22.1,27.8,26.8,29.6,30.7,42.5,39.2,80.8,1.2,5.9,2.4,11.8,3.4,17.8,0,0-1.2.3-1.2.3,0,0-4.9-17.4-4.9-17.4-4.2-14.3-8-28.8-14-42.4-6.4-13.4-15.9-24.8-25.7-36.1-7.8-9-16.3-18-22.1-29-5.7-11.2-6.5-23.9-8.1-35.5-1.2-5.4-3.3-11.4-7.5-15.1-2.2-1.9-4.8-2.7-7.6-3.4-9-2-17.3-6.9-24-13.1-4.4-4.3-7.9-9.3-11.7-14.1-5.4-7.3-10.8-14.8-14.1-23.3-1-2.9-2-5.8-2.9-8.7l.7-.3h0Z"/>
  <path class="cls-4" d="M153.4,131.9c-5-7.1-10.2-14-16-20.4-5.9-6.3-11.7-12.8-17.1-19.6-2.7-3.4-5.6-6.9-7.5-11.1-2-4.3-2.2-9-3-13-.8-3.9-3-7.5-5.7-10.6-3.1-3.6-9.4-7.4-6.8-12.9,2.5-3.5,6.5-5.6,9.9-8.2,3.6-2.5,7.1-5,10.9-7.3,7.5-4.7,16.7-7.1,25.5-6.3,11.1.8,20.8,6.9,29.8,13,5.6,3.2,11.6,5.5,17.9,6.9,0,0-.2.9-.2.9-4.3-.8-8.5-2-12.6-3.6-4-1.6-7.9-3.9-11.5-6.3-7.3-4.3-15.3-8.1-23.7-8.6-8.4-.5-16.9,1.8-23.9,6.4-6.1,4.1-12.5,8.4-18.2,13.1-4.7,3.6,3.1,7.7,5.2,10.7,3,3.4,5.5,7.4,6.5,12,.9,4.3,1,8.4,2.8,12.3,1.7,3.7,4.4,7,7.1,10.3,10.9,13.4,22.3,26.8,30.4,42.2h0Z"/>
  <path class="cls-4" d="M143.1,24.8c-2.5,2.6-.7,4.8,1.3,7.2,2.2,2.6,4.6,5,7.3,7.2,1.8,1.5,3.6,2.9,5.5,4.2-2.1-1.1-4.1-2.2-6.1-3.5-3-1.8-5.9-4-8.5-6.3-1.9-1.7-4.2-3.9-4-6.8,0-1.6.7-3,1.5-4.1l2.9,2.2h0Z"/>
  <path class="cls-4" d="M201.6,156.2c-12.6-11.2-20.6-27.9-19.5-44.9.2,16.7,8.9,32.1,21.9,42.1,0,0-2.4,2.8-2.4,2.8h0Z"/>
  <ellipse class="cls-4" cx="193.5" cy="125.5" rx="9.5" ry="5" transform="translate(-21.5 42.1) rotate(-11.8)"/>
  <path class="cls-4" d="M136.4,45.4c5.1-3.3,8.3-.6,9.8,4.7.4,1.3.7,2.7.9,4-.5-1.3-1.1-2.5-1.8-3.6-2.3-3.3-4-6.4-8.7-4.9,0,0-.1-.2-.1-.2h0Z"/>
  <path class="cls-4" d="M280.2,245.9c7,7.1,12.5,15.5,17.8,23.8,1.7,2.8,3.5,5.6,4.9,8.6,0,0-.9.5-.9.5-5.2-8.3-10.9-16.4-16.9-24.2-2-2.6-4-5.2-5.7-8.1,0,0,.8-.6.8-.6h0Z"/>
  <path class="cls-4" d="M96.9,53.5c-7.6,5.7-13.6,14.9-15.4,24.2-.9,6.1,3.2,10.8,6.8,15.3,14.4,18.9,34.2,35.1,40.2,59.1,5.9,23.5,4.9,48.5-2,71.6,0,0-3.1-1.6-3.1-1.6,7.4-9.3,18.9-23.2,26.7-32.5,0,0,3.3-4,3.3-4,0,8.5-.7,17.2-3.1,25.4-1.9,6.5-4.6,12.8-8.2,18.7,0,0-2.8-2.3-2.8-2.3,11.2-9.9,24.4-17.3,38.6-22,0,0-.5,3-.5,3-1.8,10.1-.7,20.8,3.1,30.4l-3.1-.4c4.3-6,9.8-11.1,15.7-15.5,3.6,14.3,4.8,29.3,3.3,44,0,0-2.9-.7-2.9-.7,2.7-6.3,5.4-12.5,7.7-18.9,2.8-7.7,5.2-15.6,7.5-23.5,0,0,1.3,4,1.3,4,4.4,13.8,6.9,28.1,7.4,42.6l-2-.4c4.6-10.8,8-22,9.8-33.6.6-3.9,1.2-7.7,1.7-11.6,0,0,1.2.1,1.2.1-1.6,15.7-4.8,31.3-10.9,45.9,0,0-1.8,4.3-1.8,4.3-.4-15.8-2.9-31.6-8-46.5,0,0,2.5,0,2.5,0-1.9,6.6-3.9,13.1-6.1,19.6-3.3,9.3-7.6,19-11.3,28.1,0,0,.8-9.7.8-9.7,1.3-13.6.3-27.2-3-40.4,0,0,2.7,1,2.7,1-4.9,3.8-9.2,8.3-12.8,13.2,0,0-1.9,2.6-1.9,2.6l-1.2-3c-4.1-10.2-5.2-21.5-3.3-32.3l2.4,2c-12.6,4.5-24.4,11.4-34.4,20.3l-9,7.9c5.2-8.6,11.4-18.3,13.9-28,1.8-6.2,2.8-12.7,2.9-19.2l3.2,1.2c-10.1,12-22.5,27.2-32.3,39.3,5.7-17.7,9.5-36.4,8.5-55.1-.6-15.7-3.6-31.5-12.4-44.7-8.5-13.3-20-24.5-29.5-37.4-2.4-3.1-5.1-6.3-6.4-10.3-1.4-4-.4-8.4,1.2-12.1,3.1-7.4,7.9-14.2,14.5-19,0,0,.5.8.5.8h0Z"/>
  <path class="cls-3" d="M195.4,265.1c-11.4,31.6-32.9,53.5-50.8,72.1-23.8,24.8-41,42.8-41,81.3s17.2,56.5,41,81.3c27.6,28.8,62,64.6,62,133.3s-34.4,104.6-62,133.3c-23.8,24.8-41,42.7-41,81.3s17.2,56.5,41,81.3c27.6,28.8,62,64.6,62,133.3s-34.4,104.6-62,133.4c-23.8,24.8-41,42.7-41,81.3s17.2,56.5,41,81.3c17.6,18.3,34.5,37.2,45.8,60.1,5.6,11.4,7.7,26.6,9.3,39.2s1.9,27.8.6,41.6c-2.2,23.8-8.8,47.1-19.6,68.4-4.7,9.2-9.6,18.4-15.9,26.8-4.2,5.6-10,13.9-17.3,16.6-1.9.7-4,1.1-6.1.9-14.3-1.4-4-27.5-1.5-34.7s1.2-3.4,1.7-5.2c11.1-37.4,6.5-78.2-11.7-112.5-7.6-14.3-17.4-25.2-28.1-36.9-3.8-4.1-7.7-8.2-11.5-12.2-27.6-28.8-62-64.6-62-133.3s34.4-104.6,62-133.3c23.8-24.8,41-42.8,41-81.3s-17.2-56.4-41-81.3c-27.6-28.8-62-64.6-62-133.3s34.4-104.6,62-133.3c23.8-24.8,41-42.8,41-81.3s-17.2-56.5-41-81.3c-27.6-28.8-62-64.6-62-133.3s34.4-104.6,62-133.3c20.9-21.8,36.7-38.2,40.3-67.9"/>
  <path class="cls-1" d="M135.3,1597.4c0,.4-.2.8-.2,1.2,0-.4.1-.8.2-1.2Z"/>
  <g>
    <g>
      <path class="cls-4" d="M133.8,1579.8c-27.8,9.7-61.7-2.4-77.3-27.3,21.7,20,47.8,29.4,77.3,27.3h0Z"/>
      <path class="cls-4" d="M56.7,1552.8c11.2,13.1,19.1,34.7,14.6,51.8-2.3,9.4-9.4,16.9-17.2,22.2-7.7,5-16.5,9.1-25.7,9.3,4.4-1.3,8.4-3.2,12.3-5.4,10.7-6.3,22.3-15,25.9-27.5,4.4-16.2-1.9-36.1-9.9-50.5h0Z"/>
      <path class="cls-4" d="M28.8,1636.1c15.9-4.3,37.4-.9,48.2,12.4,7,8.9,8.3,20.6,7.8,31.4-.4,6.4-1.5,12.9-4.3,18.7,1.5-8.2,1.5-16.6.5-24.8-1.2-9.7-3.8-20.2-11.7-26.6-10.8-8.9-26.8-11.8-40.5-11.1h0Z"/>
    </g>
    <g>
      <path class="cls-4" d="M165.9,1600.3c10.5,27.6,30,47.4,57.2,58.7-29.2-3.7-54.4-29.4-57.2-58.7h0Z"/>
      <path class="cls-4" d="M222.8,1658.9c-16.5-1.2-37.1,1.5-50,12.2-9.8,8.5-12.8,22.6-14.1,35-.3,4.4-.4,8.9.2,13.4-3.6-8.5-3.6-18.2-2.3-27.3,1.5-9.3,5.4-18.9,13-24.9,13.7-11.2,36.6-13.2,53.2-8.5h0Z"/>
      <path class="cls-4" d="M158.9,1719.2c-5.1-12.7-14.5-26.1-27.1-32.1-11.1-5.3-23.9-1.5-34.8,2.6-5.8,2.3-11.4,5.1-16.5,8.8,4-5,9.5-8.7,15.1-11.8,9.7-5,20.8-8.7,31.8-6.1,16.6,4.3,28.7,22.4,31.5,38.6h0Z"/>
    </g>
  </g>
  <path class="cls-4" d="M127.2,1612.3c-13.7,9.1-30.3,13.8-46.8,13,0,0,0-1,0-1,12-1.6,23.7-4.5,35.1-8.3,3.8-1.2,7.6-2.7,11.3-4.3,0,0,.4.7.4.7h0Z"/>
  <path class="cls-4" d="M146.1,1626.8c0,4.8.4,9.6.9,14.3.6,10.5,1.9,20.9,3.2,31.3,0,0-1,.2-1,.2-3.7-11-5.5-22.7-5-34.3.2-3.9.6-7.7,1.1-11.6,0,0,.8,0,.8,0h0Z"/>
  <path class="cls-4" d="M128.5,1632.8c-3.8,5.5-7.4,11.2-11.6,16.4-6.9,8.7-14.8,16.8-22.8,24.5,0,0-.7-.7-.7-.7,5.3-7.1,11-13.9,16.8-20.6,5.6-6.9,11.7-13.3,17.6-20,0,0,.6.5.6.5h0Z"/>
  <path class="cls-4" d="M149.1,1422.3c2.9,2.8,9,12.1,5.4,15.8-4.3,4.1-12.9-4.2-15.5-7.6,0,0,3.3-2.6,3.3-2.6,2.3,2.6,6.9,9.9,4.8,13.3-2.6,3.6-7.5,1.8-10.4-.2-2.2-1.5-3.8-3.6-4.8-5.9l1.2-.6c2.1,3.1,6.6,6.2,10.5,5.2.3-.1.4-.3.4-.3,0-1-.8-2.3-1.3-3.3-1-2-2.2-3.8-3.6-5.5l3.3-2.6c1.5,1.9,3.2,3.7,5.1,5.1,1.4.9,3.1,2.2,4.7,2.5.5-.3.4-1.4.3-2.1-.5-3.8-1.9-7.3-4.2-10.4,0,0,.8-.7.8-.7h0Z"/>
  <path class="cls-4" d="M191.5,1499.7c1.8,2.9,2.6,7.7-1.6,9.2-3.9.9-7.2-2.1-9-5.2,0,0,3.7-1.9,3.7-1.9.4.7.8,1.6,1.1,2.7.8,2.5-.4,5.9-3.2,6.6-3.5,1-6.4-1.8-7.9-4.6-.9-1.7-1.3-3.6-1.1-5.4h1.3c.6,2.1,1.9,4,3.7,5.4.9.6,1.9,1.2,2.8.8.2-.2.2-.2.3-.5.2-1.1-.3-2-.8-3.2,0,0,3.7-1.9,3.7-1.9.8,1.7,2.8,3.5,4.6,4,2.4-.4,1.8-3.8,1.3-5.7,0,0,1-.4,1-.4h0Z"/>
  <path class="cls-4" d="M154.5,1382.2c2,1.9,3.6,4.3,4.8,6.8.7,1.4,1,2.9.8,4.5-.8,6.4-7.9,5.3-11.8,2.4-2.5-1.8-4.3-4.1-6-6.3,0,0,3.5-1.8,3.5-1.8,1.1,2.5,2.8,4.7,3.7,7.5,1.1,3.4,0,8.2-3.9,9.4-3.5,1.3-7.2-.5-9.5-2.9-2.2-2.2-3.5-4.5-5.3-6,0,0,2.6-3.1,2.6-3.1,3.9,3.3,6.4,8,7.1,13,.8,4.1-.6,9.4-5.8,7.7-4.8-1.6-7.8-5.9-10.3-9.9,0,0,1.1-.7,1.1-.7,2.5,3.1,7.1,8.5,11.3,8,.7-.4.7-1.7.7-2.5-.1-2.1-.7-4.1-1.6-6-1.1-2.5-2.9-4.7-5-6.4,0,0,2.6-3.1,2.6-3.1,3.5,2.8,4.7,6.3,8.3,7.9,1.6.6,3.4.4,4-1.4.9-3.6-2.2-6.6-3.5-10,0,0,3.5-1.9,3.5-1.8,7.7,13.6,18.7,8.9,8-4.5,0,0,.8-.7.8-.7h0Z"/>
  <path class="cls-4" d="M90.7,1343.6c3.3,4.3,5.7,9.5,6.8,14.9.4,2,.8,4,0,6.2-1.1,2.8-4.7,3.2-7,2-5.3-2.5-8.7-7.9-11.6-12.4,0,0,3.4-2.4,3.4-2.4,2.9,3.7,4.9,8,5.7,12.6,1.2,6.2-5,9.7-10.2,7-3.9-2.2-5.4-6.5-6.9-10.3-.6-1.6-1.3-3.2-1.9-4.8l1.2-.6c.9,1.5,1.7,3,2.6,4.5,2.1,3.8,5.5,11.2,10.8,7.9,2.5-2.3-2.7-11.4-4.5-13.7,0,0,3.4-2.4,3.4-2.4,2.8,4.4,5.2,8.7,9.7,11.1.6.3,1.2.5,1.5.5.3,0,.6,0,.8-.5.6-1.1.5-2.9.3-4.3-.5-5.2-2.2-10.2-5-14.7,0,0,.9-.6.9-.6h0Z"/>
  <path class="cls-4" d="M67.1,1268.8c-1.1,4.1-.9,8.5.5,12.4.4,1.2,1,2.4,1.8,3.2,1.2,1.1,2.1,0,3.1-.9,2.3-2.3,3.9-5.3,4.5-8.5,0,0,4.1,1,4.1,1-.9,3.2-1.1,6.7-.3,9.9,1.3,4.9,6-4,6.7-5.6,1.2-2.6,2-5.4,2.5-8.3,0,0,1.3,0,1.3,0,.7,5.6-4.5,24-12.7,17.8-1.7-1.7-2-3.7-2.2-5.2-.5-3.2-.3-6.6.6-9.8,0,0,4.1,1,4.1,1-1.1,4.7-3.8,9.7-8.1,12.1-6.5,2.8-8.7-5.9-8.6-10.6,0-3.1.5-6.1,1.7-8.9l1,.3h0Z"/>
  <path class="cls-4" d="M89.8,1165c-2.3,2.6-4.6,5.4-5.5,8.5-1.4,4.4.8,9.3,5.9,8.8,5-.2,7.8-4.2,10.9-8.1,0,0,3.1,2.8,3.1,2.8-2.1,2.1-4,4.4-5.4,7-1.5,2.9-3.3,5.6,1.4,5.4,5.2-.4,10.1-3.3,13.4-7.4,0,0,1.1.7,1.1.7-1.6,2.9-4,5.4-6.9,7.2-3.9,2.4-12,5.4-14.1-.8-.6-2.6.7-4.8,1.6-7,1.5-3,3.5-5.9,6.1-8.2l3.1,2.8c-3.2,4.2-8,9.5-14.1,9.5-7.4,0-10.9-7.2-8.1-13.6,1.5-3.6,4.3-6.1,6.9-8.5l.8.7h0Z"/>
  <path class="cls-4" d="M140.5,1075.9c-.3,4.8-.6,10,2.6,13.8,3.1,3.6,8.1,3.3,10.1-1.1,1.4-2.7,1.1-5.9,1.2-9,0,0,3.8-.8,3.8-.8,1.9,4,.6,8.7,2.9,12.4,2.2,3.2,5.2.8,6-2.2.8-2.3.7-5.4,2-8.7l3.9.7c-.2,5.7.6,13.8,7.3,14.4,2.7,0,5.4-2.2,6.7-5,1.4-2.9,1.7-6.3,2-9.7h1.3c.2,5.1,0,11.6-4.4,15.3-5.2,4.8-12.4,1.8-15-4.2-1.6-3.6-1.7-7.4-1.8-10.8l3.9.7c-1,2.6-.8,5.5-1.7,8.4-1,3.6-4.5,7.3-8.6,6.5-3.9-.5-6.2-4.7-6.7-8.2-.5-2.8-.2-5.7-1.3-8.1,0,0,3.8-.8,3.8-.8,0,3.5-.3,7.4-2.3,10.6-5,8.4-15.5,4.7-17-4.1-.7-3.5-.2-7,.3-10.3,0,0,1.1.1,1.1.1h0Z"/>
  <path class="cls-4" d="M160.8,956.4c3.4,4.7,8.1,15.1,5.7,20.8-2.4,4.8-8.1,1.8-11.2-.4-3.1-2.1-5.8-4.9-7.8-8.1l3.4-2.1c1.9,2.9,3.8,5.9,3.8,9.7,0,4.2-3.4,8.8-8,8.2-6.3-1.1-11.8-9.3-13.8-14.9,0,0,3.5-1.9,3.5-1.9,3.7,5.3,5.3,12,3.9,18.3-.9,4.3-4.9,6.6-8.9,4.4-2.8-1.5-4.8-4-6.8-6.4-2.5-3.2-4.4-6.8-5.6-10.7,0,0,1.2-.5,1.2-.5,2.3,5.3,5.8,9.9,10.3,13.5,6.2,4.9,7.2-1.5,6.6-6.5-.4-3.6-1.8-7-3.9-9.9,0,0,3.5-1.9,3.5-1.9,1.6,4.4,6.2,11,10.5,12.1.9.1,1.6-.3,2.3-1,1.6-1.9,1.2-4.4.2-6.7-.6-1.3-1.4-2.5-2.2-3.8,0,0,3.4-2.1,3.4-2.1,1.6,2.8,3.7,5.4,6.3,7.4,8.8,7.1,8.3-.7,6.7-7.6-.8-3.3-2.2-6.6-4-9.5l.9-.6h0Z"/>
  <path class="cls-4" d="M69.9,898.3c1.7,2.9,4.7,10.3,2.4,13.3-1.1,1.3-3,.8-4.1,0-3-1.8-5.3-4.6-6.8-7.8,0,0,1.9-1.1,1.9-1.1,2.7,3.6,4.4,13.7-1,15.5-4.7,1-8.8-8.9-9.2-12.6,0,0,.7-.1.7-.1,1,3.7,2.9,7,5.6,9.7,2.2,2.5,3.9.9,4.3-1.9.4-3.3-.3-6.7-2.1-9.5,0,0,1.9-1.1,1.9-1.1,1.3,2.8,3.4,5.2,5.9,7.1,3.3,2.5,2.5-3.5,2.2-5.3-.4-2.1-1-4.2-2-6.1,0,0,.5-.3.5-.3h0Z"/>
  <path class="cls-4" d="M73.5,840.7c-.1,3.8.7,7.6,2.4,11.1.8,1.4,1.4,3.1,2.9,3,1.4-.3,2.5-1.6,3.2-2.9,1-2,1.3-4.5,1.6-7.1l2.9.5c-.4,2.1-.4,4.3,0,6.4.4,1.3.7,2.9,1.8,3.5,1.3.3,2.2-.9,3.2-1.9,2.2-2.6,3.4-6,3.5-9.4,0,0,.9,0,.9,0,.5,3.7-.5,7.6-2.7,10.7-1.6,2.7-5.2,4.7-7.7,1.5-2.3-3.3-2.8-7.6-2-11.5,0,0,2.9.5,2.9.5-.4,3.9-1.3,9.1-5.1,11.5-5.4,3.1-7.6-4-8.4-8.1-.5-2.7-.6-5.4-.2-8,0,0,.7,0,.7,0h0Z"/>
  <path class="cls-4" d="M77.8,749c-3.5,3.7-7.3,7.9-6.7,13.1.5,5.2,5.5,7.1,9.9,4.6,2.7-1.5,4.7-4.2,7-6.9l3,2.7c-2.2,2.3-4.3,4.5-5,7-1.3,4,1.7,7,5.6,6.9,4.3-.1,7.3-3.4,9.7-7,0,0,3.5,1.7,3.5,1.7-.8,1.8-1.9,3.3-3,4.6-2,2.3-4.1,4.2-4.2,7.3,0,1.3.4,2.3,1.3,2.8,5.3,2.1,12.3-2.2,14.7-7.1,0,0,1.2.5,1.2.5-1.2,3.2-3.6,5.9-6.7,7.7-12.8,6.8-18.4-4.1-9.2-13.6,1-1.2,1.8-2.4,2.3-3.6l3.5,1.7c-2.2,3.6-5.6,7.4-10,8.7-4.8,1.4-11-.7-12.6-5.8-1.8-5.8,2.3-11,6.1-14.6,0,0,3,2.7,3,2.7-3.7,5.1-10.8,11-17.7,7.6-4.9-2.4-5.6-9-3.4-13.4,1.7-3.5,4.4-6,7-8.4l.7.7h0Z"/>
  <path class="cls-4" d="M141.1,665.4c-2.5,5.2-3.2,11.2-2.1,16.8.3,2.5,2.5,7.3,5.4,5,2.5-2.5,4.1-6.1,5.1-9.4.5-1.8.9-3.6,1-5.4l3.9.7c-1.3,5.1-1.5,10.7,0,15.8,1.1,3,2.2,1.3,3.5-.6,2.1-3.2,3.4-6.8,3.9-10.6,0,0,3.9.7,3.9.7-.9,3.5-1.2,7.2-1,10.8.1,1.7.3,3.7.8,5.3.3.7.6,1.1,1,1.3,2.2.8,4.5-1.5,6-2.9,3.8-4,6.1-9.4,6.1-15,0,0,1.3,0,1.3,0,.2,4-.6,8-2.4,11.6-2.1,4-6.7,10.8-12.1,9-2.4-.9-3.1-3.8-3.5-5.9-1-4.9-1.1-10,0-15,0,0,3.9.7,3.9.7h0c-.5,4.6-4.3,15.6-9.5,16.3-2.6.4-4.9-2-5.6-4.2-1.8-5.9-1.5-12.2,0-18.2,0,0,3.9.7,3.9.7-.3,4.2-1.8,8.3-4.1,11.9-2.5,4.1-7,9-11.4,4.1-2.7-3.5-2.7-8.1-2.5-12.2.4-4.1,1.6-8,3.5-11.5l.9.5h0Z"/>
  <path class="cls-4" d="M145,573.5c3.6,3,7.6,9.1,6.5,14-3.4,6.7-11.3-3.6-12.8-7.3,0,0,2.7-1.4,2.7-1.4,2,3.7,3.7,7.7,4.3,11.8.2,2-1.2,4.3-3.5,4.2-1.8,0-3.1-1.1-4.3-2.2-3-2.8-5.4-6.5-6.3-10.6,0,0,.9-.3.9-.3,1.4,3.6,3.8,6.7,6.9,9.1.9.7,2.5,2,3.3,1,.2-.3.1-1.3,0-1.8-.9-3.4-2.2-6.7-4-9.8,0,0,2.7-1.4,2.7-1.4.9,2.1,2.3,4,3.9,5.7.9.8,3.1,3.4,3.9,2,.4-.8.2-2.1,0-3.1-.6-3.6-2.3-6.9-4.9-9.5,0,0,.5-.6.5-.6h0Z"/>
  <path class="cls-4" d="M124.9,493c2.9,2.9,8.4,10.9,6.3,15-1.8,3.2-6.3,3-9,1-2.5-1.8-3.9-4.2-5.7-5.4l2.6-2.7c3,3,7.9,12.7,4.9,16.6-1.1,1.5-3.6,1.8-5,1.4-5.1-1.6-9.4-5-12.6-9.3,0,0,3.4-2.3,3.4-2.3,2.3,3.9,7.7,8.1,7.9,13.6.7,7.7-6.9,10.6-12.8,6.6-3-2.1-4.8-5-7.1-7.5,0,0,.9-1,.9-1,2.6,2.1,4.7,4.9,7.5,6.5,3.8,2.2,8.9,1,8.1-4.2-.9-5.1-5.2-7.2-8-11.9,0,0,3.4-2.3,3.4-2.3,2.3,3,5.3,5.5,8.7,7.1.9.4,1.5.7,2.3.7,0,0,0,.1,0,0,0-.2,0-.7,0-1.2-.6-3.7-2.3-7.2-4.6-10.2,0,0,2.6-2.7,2.6-2.7,2.4,2.1,3.6,4.5,5.3,5.9,1.2,1.1,4,1.7,5,.3,1-1.7-.4-4.7-1.1-6.6-1-2.4-2.3-4.6-3.9-6.6l.8-.7h0Z"/>
  <path class="cls-4" d="M48.5,380.5c-2.2,5.2-2.7,11.1-1.5,16.6.6,2.2,2,7.6,4.9,7,.9-.3,1.8-2.1,2.6-3.8,1.5-3.3,2.3-7,2.5-10.6l3.9.7c-1.4,4.7-1.5,9.8-.2,14.5.3.9.6,2,1.4,2.1.2,0,.7-.1,1.2-.5,1.7-1.3,3.2-3.5,4.2-5.5,1.5-2.8,2.4-6,2.5-9.3,0,0,3.9.8,3.9.8-1.5,3.5-2.2,7.3-1.9,11.1.4,6.6,3.1,10.5,7.9,3.7,3.5-4.9,5.5-10.7,5.9-16.7,0,0,1.3,0,1.3,0,.1,4.2-.6,8.5-2.1,12.4-1.8,4-3.6,8.6-7.9,10.6-6,2.2-8.4-5.1-8.7-9.7-.5-4.4.1-8.9,1.8-13l3.9.8c0,3.9-1.1,7.7-2.8,11.1-2.2,3.9-6.2,10.2-11.6,7.5-1.7-1-2.6-2.9-3-4.5-1.5-5.5-1.4-11.4.3-16.9,0,0,3.9.7,3.9.7-.3,4.1-1.6,8.2-3.5,11.8-1.2,2-2,4.1-4.6,5.1-7.4,1.6-8.6-10.3-8.4-15.4.2-4,1.2-7.9,3-11.5l1,.5h0Z"/>
  <path class="cls-4" d="M119.1,316.1c-2.9,2.3-4.9,5.7-5.3,9.3-.1,1.5,0,3,1.5,3,3.8-.7,7.1-3.9,8.6-7.4,0,0,2.3,1.6,2.3,1.6-1.6,1.4-2.9,3.1-3.8,5-.5,1.2-2.5,5.2-.7,5.8,3.5-.4,6.7-3.5,8.5-6.4,0,0,.8.4.8.4-.9,2.2-2.3,4.3-4.2,5.8-1.6,1.2-3.1,2.5-5.3,2.5-1.8,0-3-2-3-3.6.1-4.4,2.5-8.6,5.7-11.6,0,0,2.3,1.6,2.3,1.6-1.7,3.9-5,7-9,8.5-4,1.5-6.7-1.6-5.7-5.5.9-4,3.5-7.5,6.9-9.6,0,0,.4.6.4.6h0Z"/>
  <path class="cls-4" d="M123,263.3c-2.7,2.5-4.7,5.7-6,9.1-2.5,6.3-2.1,16.6,6.3,8.3,2.5-2.4,4.3-5.5,5.4-8.7,0,0,3.6,1.8,3.6,1.8-2.8,4.2-4.5,9.2-4.9,14.2,0,1,0,2,.7,2.2.5.2,1.8-.2,2.5-.6,1.8-.9,3.5-2.1,5-3.5,2.4-2.2,4.3-5,5.5-8.1,0,0,3.3,2,3.3,2-2.3,2.5-4,5.5-5.2,8.7-.7,2.4-2.3,6.7-.6,8.6.7.7,2.3.6,3.8,0,4.8-1.9,8.7-6,10.5-10.9,0,0,1.3.4,1.3.4-.9,3.7-3,7.1-5.9,9.7-3.6,3.5-11.6,7-13.5,0-.6-3.1.2-6,1-8.9,1.2-3.7,3.1-7.2,5.6-10.2l3.3,2c-2,5.6-6,10.4-11.1,13.3-3.1,2-8.3,2.9-10.1-1.4-1-3.3-.1-6.2.5-9.3,1-3.7,2.6-7.3,4.7-10.5,0,0,3.6,1.8,3.6,1.8-1.3,3.9-3.8,7.3-6.9,9.9-2.5,2-5.7,4.5-9.1,3.1-5.2-2.9-2.8-10.4-1.1-14.6,1.6-3.6,4-6.7,7-9.2,0,0,.7.8.7.8h0Z"/>
  <g>
    <path class="cls-4" d="M178.5,307.7c7.6,21.5,8.9,45.3,3,67.4,0,0-2.3,8.6-2.3,8.6l-1.8-8.6c-2.9-14.9-13.4-27.8-27.1-34.2,0,0,.5-1.2.5-1.2,11.4,3.9,21.1,12.4,26.5,23.2,1.9,3.6,3.2,7.5,4.1,11.4h-4c2.7-10.8,3.9-21.9,3.9-33,.2-11.1-1.1-22.3-3.9-33.1,0,0,1-.3,1-.3h0Z"/>
    <path class="cls-4" d="M112.7,446.8c27.9-1.2,49.8,5.6,73.1,20.6,0,0-8.8-.7-8.8-.7-15.1-1.4-30.5,5-40.5,16.4,0,0-1-.8-1-.8,6.9-9.8,17.8-16.8,29.7-19,4-.8,8.1-1,12.1-.8,0,0-1.2,3.9-1.2,3.9-9.6-5.6-19.9-9.9-30.5-13-10.6-3.3-21.7-5.2-32.9-5.6,0,0,0-1.1,0-1.1h0Z"/>
    <path class="cls-4" d="M200.4,572.5c22,6,42.3,18.4,57.1,35.9,0,0,5.8,6.7,5.8,6.7l-8.1-3.4c-13.9-6.1-30.5-4.9-43.6,2.8,0,0-.7-1.1-.7-1.1,9.7-7.1,22.2-10.3,34.1-8.6,4,.5,8,1.6,11.7,3.1,0,0-2.4,3.3-2.4,3.3-7.3-8.3-15.7-15.6-24.8-22-9-6.5-18.9-11.8-29.5-15.7,0,0,.3-1,.3-1h0Z"/>
  </g>
  <g>
    <path class="cls-4" d="M178.5,736.1c7.6,21.5,8.9,45.3,3,67.4,0,0-2.3,8.6-2.3,8.6l-1.8-8.6c-2.9-14.9-13.4-27.8-27.1-34.2,0,0,.5-1.2.5-1.2,11.4,3.9,21.1,12.4,26.5,23.2,1.9,3.6,3.2,7.5,4.1,11.4h-4c2.7-10.8,3.9-21.9,3.9-33,.2-11.1-1.1-22.3-3.9-33.1,0,0,1-.3,1-.3h0Z"/>
    <path class="cls-4" d="M112.7,875.3c27.9-1.2,49.8,5.6,73.1,20.6,0,0-8.8-.7-8.8-.7-15.1-1.4-30.5,5-40.5,16.4,0,0-1-.8-1-.8,6.9-9.8,17.8-16.8,29.7-19,4-.8,8.1-1,12.1-.8l-1.2,3.9c-9.6-5.6-19.9-9.9-30.5-13-10.6-3.3-21.7-5.2-32.9-5.6,0,0,0-1.1,0-1.1h0Z"/>
    <path class="cls-4" d="M200.4,1000.9c22,6,42.3,18.4,57.1,35.9,0,0,5.8,6.7,5.8,6.7,0,0-8.1-3.4-8.1-3.4-13.9-6.1-30.5-4.9-43.6,2.8,0,0-.7-1.1-.7-1.1,9.7-7.1,22.2-10.3,34.1-8.6,4,.5,8,1.6,11.7,3.1l-2.4,3.3c-7.3-8.3-15.7-15.6-24.8-22-9-6.5-18.9-11.8-29.5-15.7,0,0,.3-1,.3-1h0Z"/>
  </g>
  <g>
    <path class="cls-4" d="M178.5,1166.7c7.6,21.5,8.9,45.3,3,67.4,0,0-2.3,8.6-2.3,8.6l-1.8-8.6c-2.9-14.9-13.4-27.8-27.1-34.2,0,0,.5-1.2.5-1.2,11.4,3.9,21.1,12.4,26.5,23.2,1.9,3.6,3.2,7.5,4.1,11.4,0,0-4,0-4,0,2.7-10.8,3.9-21.8,3.9-32.9.2-11.1-1.1-22.3-3.9-33.1,0,0,1-.3,1-.3h0Z"/>
    <path class="cls-4" d="M112.7,1305.8c27.9-1.2,49.8,5.6,73.1,20.6,0,0-8.8-.7-8.8-.7-15.1-1.4-30.5,5-40.5,16.4,0,0-1-.8-1-.8,6.9-9.8,17.8-16.8,29.7-19,4-.8,8.1-1,12.1-.8l-1.2,3.9c-9.6-5.6-19.9-9.9-30.5-13-10.6-3.3-21.7-5.2-32.9-5.6,0,0,0-1.1,0-1.1h0Z"/>
    <path class="cls-4" d="M200.4,1431.5c22,6,42.3,18.4,57.1,35.9,0,0,5.8,6.7,5.8,6.7l-8.1-3.4c-13.9-6.1-30.5-4.9-43.6,2.8,0,0-.7-1.1-.7-1.1,9.7-7.1,22.2-10.3,34.1-8.6,4,.5,8,1.6,11.7,3.1l-2.4,3.3c-7.3-8.3-15.7-15.6-24.8-22-9-6.5-18.9-11.8-29.5-15.7l.3-1h0Z"/>
  </g>
  <path class="cls-4" d="M104.6,60c-3.2,6.4-6.4,13.5-9,20.1,0,0-1.5-1.2-1.5-1.2,3.6-2.2,7.6-3.9,11.7-4.6,0,0,.2.6.2.6-4.8,1.7-9.3,4.4-13.3,7.4,2.1-6.2,4.7-12.6,8.5-18,0,0,3.1-4.6,3.1-4.6,0,0,.5.3.5.3h0Z"/>
  <path class="cls-4" d="M111.3,80.8c-.9,4.9-1.7,10-2.2,15,0,0-1.2-.5-1.2-.5,2-2.2,4.3-4,6.9-5.2l.2.4c-2.3,1.6-4.4,3.5-6.1,5.7,0,0-1.3,1.7-1.3,1.7v-2.2c.4-3.8,1-7.7,2.2-11.3,0,0,1.2-3.6,1.2-3.6h.3Z"/>
  <path class="cls-2" d="M246.7,167.9c0,.6.3,2.1-.5,3.8-.7,1.5-1.7,2.3-2.2,2.7"/>
  <path class="cls-4" d="M216.7,211.8c2.9-.2,5.8.7,8.6,1.2,1.5.3,3.2.3,4.3-.5.5-.5.4-1,.3-1.8-.7-2.7-1.2-6.3,2.6-6.9,2.1-.3,4.1.8,5.9.3.3-.1.4-.3.6-.7.6-1.6.2-3.5-.2-5.3-.8-4.1-2-8.2-3-12.2-.9-4.2-6.2-15.5,1.9-15.2,0,0,0,1,0,1-3.4.1-2.9,3-2.2,5.4,1.8,5.3,3.9,10.7,5.4,16.1.9,3.8,3.7,11.4-1.3,13.7-2.3.9-4.5-.3-6.7-.2-.4,0-.4.1-.6.3-.7,1.8.7,4.1-.4,6.1-.4.9-1.4,1.5-2.4,1.7-3.1.8-5.9-.7-8.7-1.5-1.2-.3-2.7-.8-3.9-.8,0,0-.2-.8-.2-.8h0Z"/>
</svg>