<?xml version="1.0" encoding="UTF-8"?>
<svg id="export" xmlns="http://www.w3.org/2000/svg" version="1.1" viewBox="0 0 330 1742">
  <defs>
    <style>
      .cls-1 {
        stroke-width: 3px;
      }

      .cls-1, .cls-2, .cls-3 {
        stroke: #fff;
        stroke-miterlimit: 10;
      }

      .cls-1, .cls-3 {
        fill: none;
      }

      .cls-2 {
        fill: #000;
      }

      .cls-4 {
        fill: #fff;
        stroke-width: 0px;
      }

      .cls-3 {
        stroke-width: 2px;
      }
    </style>
  </defs>
  <path class="cls-4" d="M31,320.5c0-3.1.9-6,1.9-8.9,1.9-5.8,4.2-11.4,7-16.8,5.2-11.1,13.7-20.1,21.7-29.2,18.6-19.4,39.2-37.8,52.5-61.4,7.5-13.1,10.7-27.3,10.6-42.3,0-5.9.4-11.9-.3-17.7-.4-2.9-1-5.7-1.6-8.8-1.7-7.8,1.2-12.7,6.7-17.9,8.5-8.7,19.8-14.1,28.6-22.3,4.3-4.1,7.9-8.9,11-14h.2c-2.3,5.7-5.5,11-9.6,15.7-4.1,4.6-9,8.3-13.7,12.1-4.7,3.7-9.4,7.1-13.5,11.5-4.3,4.2-6.9,7.7-5.4,14.1.6,2.8,1.3,5.9,1.7,9,.8,6.2.4,12.3.3,18.4-.1,9.2-1.3,18.5-4.2,27.3-1.9,5.9-4.6,11.5-7.7,16.8-14.4,23.8-35.1,41.8-54.1,61.1-6.5,6.2-12.1,13.3-16.8,20.9-3.2,5-6.3,10.1-8.7,15.6-1.2,2.7-2.4,5.5-3.4,8.3-1,2.8-1.8,5.7-3.3,8.4,0,0-.2,0-.2,0h0Z"/>
  <path class="cls-4" d="M138.6,42.6c4.1-.7,8.1-2.1,12.2-2.9,4.1-.6,8.2-1.1,12.5-1.4,3.3,0,7.6-.7,10.2,2.3,2.5,3.2.8,7.1-.2,10.4-4.6,14.2-14.1,25.7-22.9,37.3-5.3,6.7-12.3,12-20.1,15.5-3.7,1.7-8.2,2.5-11.9,3.8-7.2,2.9-10.1,11.8-11.3,18.9-1.3,10.1-2,21.2-6.1,31-2.5,5.7-7.4,11.8-10.3,16.3-1.2,1.8-3.8,5.9-5.3,8.2-5.2,8.1-10.9,17.3-15.7,25.5-10.5,17.1-17.3,35.8-22.4,55.1-3.6,12.9-7.1,25.8-10.6,38.7,0,0-5,19.4-5,19.4,0,0-1.2-.3-1.2-.3,2.7-13.1,5.6-26.2,8.7-39.2,3.2-13,6.4-26,10.2-38.9,6.9-22.7,19.8-42.8,32.1-62.8,1.3-2,3.5-5.4,4.8-7.4,1.9-2.8,5.2-7.5,7.7-11.3,2.3-3.4,3.7-6.8,4.9-10.7,1.7-5.8,2.7-11.9,3.5-18,.6-4.2,1-8.5,2.4-12.6,2.2-6.2,5.7-12.7,12.4-15,4.1-1.4,8-1.8,11.9-3.5,5.5-2.2,10.7-5.9,15.1-9.9,4.4-4.2,7.9-9.4,11.6-14.3,2.4-3.4,4.9-6.6,7.1-10.1,2.2-3.5,4.1-7.1,5.7-10.8,1.4-3.5,3.2-7.6,3.1-11.3-.3-4-5.3-2.9-8.3-2.9-3.5.3-8.8.7-12.3,1.1-4.1.3-8.3,0-12.4.7,0,0-.1-.8-.1-.8h0Z"/>
  <path class="cls-4" d="M170.7,40.6c-.9,2.9-1.9,5.8-2.9,8.7-4.5,11.3-12.2,21-19.7,30.5-7.3,9.8-18.1,17.4-30.1,20.1-2.8.7-5.4,1.5-7.6,3.4-4.2,3.7-6.3,9.7-7.5,15.1-1.6,11.6-2.4,24.3-8.1,35.5-5.8,11.1-14.3,20-22.1,29-9.8,11.3-19.3,22.7-25.7,36.1-6,13.6-9.8,28.1-14,42.4,0,0-4.9,17.4-4.9,17.4l-1.2-.3c1-6,2.1-11.9,3.4-17.8,8.5-38.3,12.4-51.2,39.2-80.8,7.9-8.8,16.4-17.4,22.1-27.8,4.2-7.7,5.9-16.7,7.1-25.4.6-4.4,1-9.2,2.6-13.6,1.7-4.4,3.6-8.8,7.4-12,4.8-4.1,11.6-3.9,17-6.6,4.1-1.7,7.7-4.2,11.2-7,6-4.4,10.1-10.8,14.3-16.9,3.5-4.9,6.8-9.8,9.9-14.9,2.9-5.2,6.7-10,8.9-15.5,0,0,.7.3.7.3h0Z"/>
  <path class="cls-4" d="M176.6,131.9c8.1-15.4,19.4-28.8,30.4-42.2,2.8-3.3,5.4-6.6,7.1-10.3,1.8-3.9,2-8,2.8-12.3,1-4.6,3.5-8.6,6.5-12,2.1-3,9.9-7.1,5.2-10.7-5.7-4.7-12.1-9-18.2-13.1-7-4.6-15.5-6.9-23.9-6.4-8.4.5-16.4,4.3-23.7,8.6-3.5,2.4-7.4,4.7-11.5,6.3-4.1,1.7-8.3,2.9-12.6,3.6,0,0-.2-.9-.2-.9,6.3-1.4,12.4-3.7,17.9-6.9,9-6.1,18.7-12.2,29.8-13,8.9-.7,18,1.6,25.5,6.3,3.8,2.3,7.3,4.8,10.9,7.3,3.2,2.3,6.5,4.4,9.2,7.3,1.5,1.7,1.5,4.3.6,6.2-1.6,3.2-4.6,4.9-6.7,7.6-2.7,3.1-4.9,6.7-5.7,10.6-.8,4-1,8.6-3,13-1.9,4.2-4.8,7.7-7.5,11.1-2.7,3.3-5.5,6.7-8.3,10-2.9,3.3-5.8,6.4-8.7,9.6-5.8,6.4-11,13.4-16,20.3h0Z"/>
  <path class="cls-4" d="M189.9,22.6c2.9,4.3,1.1,8-2.5,11-2.6,2.4-5.5,4.5-8.5,6.3-2,1.2-4,2.4-6.1,3.5,1.9-1.3,3.7-2.7,5.5-4.2,3.5-2.8,6.8-6.1,9.3-9.8,1-1.6.5-3.2-.7-4.5,0,0,2.9-2.2,2.9-2.2h0Z"/>
  <path class="cls-4" d="M126,153.4c13-10,21.7-25.4,21.9-42.1.7,12.5-3.3,25.4-11,35.4-2.5,3.4-5.4,6.6-8.6,9.4l-2.4-2.8h0Z"/>
  <ellipse class="cls-4" cx="136.5" cy="125.5" rx="5" ry="9.5" transform="translate(-14.3 233.5) rotate(-78.2)"/>
  <path class="cls-4" d="M193.5,45.6c-4.7-1.5-6.4,1.6-8.7,4.9-.7,1.1-1.3,2.3-1.8,3.6.1-1.4.5-2.7.9-4,.8-2.7,2.4-6.2,5.7-6.1,1.6,0,2.9.7,4,1.4v.2h-.1Z"/>
  <path class="cls-4" d="M50.6,246.5c-5.4,8.3-11.9,15.7-17.2,24.1-1.8,2.7-3.7,5.4-5.4,8.2l-.9-.5c4.5-8.9,10.2-17,16.2-25,2-2.6,4.1-5.2,6.5-7.5,0,0,.8.6.8.6h0Z"/>
  <path class="cls-4" d="M233.6,52.7c7.9,5.3,19.1,21.2,15.7,31-1.3,4-4,7.2-6.4,10.3-9.5,12.9-21,24.1-29.5,37.4-8.8,13.2-11.8,29.1-12.4,44.7-1,18.7,2.7,37.4,8.5,55.1-9.7-12.1-22.3-27.3-32.3-39.3,0,0,3.2-1.2,3.2-1.2.1,6.5,1.1,13,2.9,19.2,2.5,9.7,8.8,19.5,13.9,28,0,0-9-7.9-9-7.9-10-8.9-21.8-15.8-34.4-20.3,0,0,2.4-2,2.4-2,1.9,10.8.7,22.1-3.3,32.3l-1.2,3s-1.9-2.6-1.9-2.6c-3.6-5-7.9-9.5-12.8-13.2l2.7-1c-3.3,13.2-4.2,26.8-3,40.4,0,0,.8,9.7.8,9.7-3.7-9.2-8-18.8-11.3-28.1-2.3-6.5-4.3-13-6.1-19.6,0,0,2.5,0,2.5,0-5.1,14.9-7.6,30.7-8,46.5-3.6-8.7-6.8-17.7-8.9-26.9-1.8-7.7-2.8-15.5-3.7-23.3,0,0,1.2-.1,1.2-.1,1.1,7.7,2.2,15.5,4.1,23.1,1.9,7.6,4.4,15,7.5,22.1l-2,.4c.4-15.8,3.5-31.6,8.7-46.6,4.1,14.5,9.1,28.6,15.2,42.3,0,0-2.9.7-2.9.7-.6-6.9-.9-13.9-.4-20.8.5-7.8,1.9-15.6,3.7-23.2,5.9,4.4,11.4,9.5,15.7,15.5,0,0-3.1.4-3.1.4,4.3-10.6,4.9-22.3,2.5-33.4,14.2,4.7,27.4,12.1,38.6,22,0,0-2.8,2.3-2.8,2.3-3.5-5.8-6.3-12.1-8.2-18.7-2.5-8.2-3.2-16.9-3.1-25.4,0,0,3.3,4,3.3,4,7.7,9.3,19.2,23.1,26.7,32.5,0,0-3.1,1.6-3.1,1.6-6.9-23.1-7.9-48.1-2-71.6,5.9-24,25.8-40.2,40.2-59.1,2.5-3.1,5-6.2,6.3-9.7,1.3-3.7.4-7.6-1-11.1-1.4-3.6-3.3-7.1-5.6-10.3-2.3-3.2-5-6.1-8.2-8.4,0,0,.5-.8.5-.8h0Z"/>
  <path class="cls-1" d="M134.6,265.1c11.4,31.6,32.9,53.5,50.8,72.1,23.8,24.8,41,42.8,41,81.3,0,38.5-17.2,56.5-41,81.3-27.6,28.8-62,64.6-62,133.3,0,68.8,34.4,104.6,62,133.3,23.8,24.8,41,42.7,41,81.3,0,38.5-17.2,56.5-41,81.3-27.6,28.8-62,64.6-62,133.3,0,68.8,34.4,104.6,62,133.4,23.8,24.8,41,42.7,41,81.3,0,38.5-17.2,56.5-41,81.3-17.6,18.3-34.5,37.2-45.8,60.1-5.6,11.4-7.7,26.6-9.3,39.2-1.7,13.8-1.9,27.8-.6,41.6,2.2,23.8,8.8,47.1,19.6,68.4,4.7,9.2,9.6,18.4,15.9,26.8,4.2,5.6,10,13.9,17.3,16.6,1.9.7,4,1.1,6.1.9,14.3-1.4,4-27.5,1.5-34.7s-1.2-3.4-1.7-5.2c-11.1-37.4-6.5-78.2,11.7-112.5,7.6-14.3,17.4-25.2,28.1-36.9,3.8-4.1,7.7-8.2,11.5-12.2,27.6-28.8,62-64.6,62-133.3,0-68.8-34.4-104.6-62-133.3-23.8-24.8-41-42.8-41-81.3,0-38.5,17.2-56.4,41-81.3,27.6-28.8,62-64.6,62-133.3,0-68.8-34.4-104.6-62-133.3-23.8-24.8-41-42.8-41-81.3,0-38.5,17.2-56.5,41-81.3,27.6-28.8,62-64.6,62-133.3,0-68.8-34.4-104.6-62-133.3-20.9-21.8-36.7-38.2-40.3-67.9"/>
  <path class="cls-2" d="M194.7,1597.4c0,.4.2.8.2,1.2,0-.4-.1-.8-.2-1.2Z"/>
  <g>
    <g>
      <path class="cls-4" d="M196.2,1579.8c29.5,2,55.6-7.3,77.3-27.3-15.6,25-49.5,37-77.3,27.3h0Z"/>
      <path class="cls-4" d="M273.3,1552.8c-8,14.4-14.2,34.4-9.9,50.5,3.6,12.4,15.2,21.1,25.9,27.5,3.9,2.2,7.9,4.1,12.3,5.4-9.2-.3-18.1-4.3-25.7-9.3-7.8-5.3-14.9-12.8-17.2-22.2-4.5-17.2,3.4-38.8,14.6-51.8h0Z"/>
      <path class="cls-4" d="M301.2,1636.1c-13.7-.7-29.8,2.2-40.5,11.1-7.9,6.4-10.5,16.8-11.7,26.6-1,8.3-1,16.6.5,24.8-2.8-5.8-3.9-12.3-4.3-18.7-.4-10.9.8-22.5,7.8-31.4,10.8-13.3,32.4-16.7,48.2-12.4h0Z"/>
    </g>
    <g>
      <path class="cls-4" d="M164.1,1600.3c-2.9,29.3-28,55-57.2,58.7,27.3-11.4,46.7-31.1,57.2-58.7h0Z"/>
      <path class="cls-4" d="M107.2,1658.9c16.6-4.7,39.5-2.8,53.2,8.5,7.6,6,11.4,15.7,13,24.9,1.3,9.1,1.3,18.8-2.3,27.3.7-4.5.6-9,.2-13.4-1.3-12.4-4.3-26.6-14.1-35-12.9-10.8-33.5-13.4-50-12.2h0Z"/>
      <path class="cls-4" d="M171.1,1719.2c2.8-16.2,14.9-34.3,31.5-38.6,11-2.6,22.1,1.1,31.8,6.1,5.6,3.1,11.1,6.8,15.1,11.8-5.1-3.7-10.7-6.4-16.5-8.8-10.9-4.2-23.8-7.9-34.8-2.6-12.6,6-22,19.4-27.1,32.1h0Z"/>
    </g>
  </g>
  <path class="cls-4" d="M203.1,1611.6c14.8,6.4,30.5,10.4,46.4,12.7,0,0,0,1,0,1-16.5.9-33-3.9-46.8-13,0,0,.4-.7.4-.7h0Z"/>
  <path class="cls-4" d="M184.7,1626.8c.6,4.7,1,9.7,1.2,14.5-.1,10.6-1.7,21.3-5.2,31.4,0,0-1-.2-1-.2,1.6-11.4,2.6-22.7,3.5-34.1.4-3.8.6-7.6.7-11.5h.8Z"/>
  <path class="cls-4" d="M202.1,1632.4c3.6,4.2,7.4,8.4,11.1,12.4,7.8,9.4,16,18.4,23.3,28.3,0,0-.7.7-.7.7-3.2-3.1-6.4-6.2-9.5-9.4-6.1-6.3-12.2-13.2-17.3-20.4-2.6-3.7-5.1-7.3-7.6-11l.6-.5h0Z"/>
  <path class="cls-4" d="M181.7,1423c-2.3,3.1-3.7,6.7-4.2,10.4,0,.7-.2,1.9.3,2.1,1.6-.3,3.3-1.6,4.7-2.5,2-1.4,3.6-3.2,5.1-5.1l3.3,2.6c-1.4,1.7-2.6,3.5-3.6,5.5-.4,1-1.3,2.3-1.3,3.3,0,0,0,.2.4.3,3.9,1,8.4-2.1,10.5-5.2,0,0,1.2.6,1.2.6-.9,2.3-2.6,4.4-4.8,5.9-2.9,2-7.8,3.8-10.4.2-2.1-3.4,2.6-10.7,4.8-13.3,0,0,3.3,2.6,3.3,2.6-2.6,3.4-11.2,11.7-15.5,7.6-3.6-3.7,2.5-13,5.4-15.8,0,0,.8.7.8.7h0Z"/>
  <path class="cls-4" d="M139.5,1500.1c-.5,1.9-1.1,5.4,1.3,5.7,1.8-.6,3.8-2.3,4.6-4,0,0,3.7,1.9,3.7,1.9-.5,1.2-1,2.1-.8,3.2.1.3.1.4.3.5.9.4,2-.2,2.8-.8,1.8-1.3,3-3.2,3.7-5.5,0,0,1.3.1,1.3.1.1,1.8-.3,3.7-1.1,5.4-1.5,2.8-4.4,5.5-7.9,4.6-2.8-.7-4-4.1-3.2-6.6.3-1.1.7-2,1.1-2.7l3.7,1.9c-1.8,3.1-5.1,6.1-9,5.2-4.2-1.5-3.5-6.3-1.6-9.2,0,0,1,.4,1,.4h0Z"/>
  <path class="cls-4" d="M176.2,1383c-10.6,13.4.4,18,8,4.5,0,0,3.5,1.8,3.5,1.8-1.2,3.4-4.4,6.4-3.5,10,.5,1.8,2.4,2,4,1.4,3.6-1.6,4.8-5.1,8.3-7.9,0,0,2.6,3.1,2.6,3.1-3.7,3-6.2,7.6-6.6,12.4,0,.9,0,2.1.7,2.5,1.5.4,3.6-.8,5-1.7,2.4-1.6,4.4-3.9,6.2-6.3l1.1.7c-2.5,4-5.5,8.3-10.3,9.9-7.6,2.1-6.4-8.2-4.5-12.6,1.2-3.1,3.2-5.9,5.8-8.1,0,0,2.6,3.1,2.6,3.1-1.7,1.5-3.1,3.8-5.3,6-2.9,3.2-8.7,4.9-12.1,1.2-1.9-2.1-2.1-5.3-1.4-7.7.8-2.9,2.6-5,3.7-7.5,0,0,3.5,1.8,3.5,1.8-2.5,3.4-5.8,7.1-10.1,8.3-6.1,2-9.4-3.6-6.8-8.9,1.2-2.5,2.8-4.9,4.8-6.8l.8.7h0Z"/>
  <path class="cls-4" d="M240.2,1344.2c-2.7,4.5-4.4,9.5-5,14.7-.1,1.4-.3,3.2.3,4.3,1.1,1.7,5-1.9,6-2.9,2.3-2.3,4.1-5.3,6-8.3,0,0,3.4,2.4,3.4,2.4-1.8,2.3-7.1,11.4-4.5,13.7,5.2,3.3,8.7-4.1,10.8-7.9.9-1.5,1.7-3,2.6-4.5l1.2.6c-.6,1.6-1.3,3.2-1.9,4.8-1.7,4.2-3.6,9.5-8.4,10.9-5.1,1.5-9.7-2.2-8.7-7.6.8-4.6,2.9-8.9,5.7-12.6,0,0,3.4,2.4,3.4,2.4-2.9,4.5-6.3,10-11.6,12.4-2.3,1.1-5.9.8-7-2-.9-2.2-.5-4.2,0-6.2.4-1.8.9-3.6,1.5-5.3,1.3-3.5,3.1-6.7,5.3-9.6l.9.6h0Z"/>
  <path class="cls-4" d="M263.9,1268.4c2.3,4.9,3,18-3.6,19.9-5.7,1.2-10.5-7.9-11.4-12.5,0,0,4.1-1,4.1-1,.9,3.2,1.2,6.5.6,9.8-.3,1.5-.5,3.5-2.2,5.2-8.1,6.2-13.3-12.1-12.7-17.8,0,0,1.3,0,1.3,0,.4,2.9,1.3,5.7,2.5,8.3.7,1.5,4.3,8.4,6.2,6.8.6-.7.8-2.1.9-3,.3-2.7.1-5.4-.6-8l4.1-1c.5,2.5,1.6,5,3.2,7,.9,1,2,2.6,3.4,2.8,2.4-.6,3.4-5.4,3.8-7.6.4-2.8.3-5.6-.5-8.4l1-.3h0Z"/>
  <path class="cls-4" d="M241,1164.3c2.6,2.4,5.3,4.9,6.9,8.5,2.8,6.3-.7,13.6-8.1,13.6-6.1,0-11-5.3-14.1-9.5,0,0,3.1-2.8,3.1-2.8,3.1,2.9,5.5,6.6,7.1,10.6.5,1.3,1.1,3.1.6,4.7-1.1,4.2-6.5,4.1-9.5,2.9-4.8-1.5-9.1-4.9-11.6-9.3,0,0,1.1-.7,1.1-.7,3.2,4.1,8.2,7,13.4,7.4,1.2,0,3.3,0,3-1.7-1.1-3.8-4.1-7.9-7-10.8,0,0,3.1-2.8,3.1-2.8,2.2,2.8,4.2,5.4,6.8,6.9,2.3,1.3,5.6,1.8,7.9.3,2.4-1.6,2.9-5.2,2-7.9-.9-3.1-3.2-5.8-5.5-8.5,0,0,.8-.7.8-.7h0Z"/>
  <path class="cls-4" d="M190.5,1075.8c.8,4.9,1.4,10.9-1.9,15.3-4,5.4-11.5,5-14.8-.9-1.9-3.2-2.2-7.1-2.3-10.6,0,0,3.8.8,3.8.8-1,2.5-.8,5.3-1.3,8.1-.4,3.5-2.7,7.7-6.7,8.2-4.1.8-7.6-2.9-8.6-6.5-.9-2.9-.8-5.8-1.7-8.4,0,0,3.9-.7,3.9-.7-.1,3.4-.2,7.2-1.8,10.8-2.6,6-9.8,9-15,4.2-4.4-3.7-4.6-10.2-4.4-15.3,0,0,1.3,0,1.3,0,.3,3.4.6,6.8,2,9.7,1.3,2.8,4,5,6.7,5,6.7-.6,7.5-8.7,7.3-14.4,0,0,3.9-.7,3.9-.7,1.3,3.3,1.2,6.4,2,8.7.9,2.9,3.9,5.3,6,2.2,2.2-3.7.9-8.4,2.9-12.4,0,0,3.8.8,3.8.8,0,4.3-.1,9.5,3.9,12,4.1,2.2,8.6-1.8,9.5-5.9.9-3,.7-6.4.5-9.7,0,0,1.1-.1,1.1-.1h0Z"/>
  <path class="cls-4" d="M170.1,957c-1.8,3-3.2,6.2-4,9.5-.6,2.6-2.7,12.2,2.6,10.1,4.4-2,8.1-5.8,10.4-10,0,0,3.4,2.1,3.4,2.1-.8,1.3-1.6,2.6-2.2,3.8-1.1,2.3-1.4,4.8.2,6.7.6.7,1.3,1.1,2.3,1,1.8-.2,4.3-2.6,6.1-4.7,1.9-2.2,3.4-4.7,4.4-7.4l3.5,1.9c-2.1,2.9-3.5,6.3-3.9,9.9-.6,5,.4,11.4,6.6,6.5,4.4-3.6,8-8.3,10.3-13.5,0,0,1.2.5,1.2.5-1.2,3.8-3.1,7.4-5.6,10.7-2,2.4-4,4.9-6.8,6.4-4,2.2-7.9,0-8.9-4.4-1.4-6.3.1-13.1,3.9-18.3,0,0,3.5,1.9,3.5,1.9-2,5.6-7.4,13.8-13.8,14.9-4.6.6-8.1-4-8-8.2,0-3.7,2-6.8,3.8-9.7,0,0,3.4,2.1,3.4,2.1-1.9,3.3-4.7,6-7.8,8.1-3.2,2.2-8.9,5.2-11.2.4-1.6-3.7-.2-7.6.8-11.2,1.1-3.4,2.8-6.7,4.8-9.6l.9.6h0Z"/>
  <path class="cls-4" d="M260.5,898.6c-1,2-1.6,4-2,6.1-.3,1.7-1.2,7.8,2.2,5.3,2.5-1.9,4.6-4.3,5.9-7.1,0,0,1.9,1.1,1.9,1.1-1.3,2-2,4.4-2.2,6.8,0,1.8,0,5,1.8,5.8,1.9.4,3.8-2.7,4.9-4.1,1.4-2.1,2.5-4.4,3.2-6.8h.7c-.4,3.8-4.5,13.7-9.2,12.7-5.5-1.8-3.7-11.9-1-15.5,0,0,1.9,1.1,1.9,1.1-1,2.1-2.4,4-4.1,5.6-1.4,1.2-2.7,2.5-4.6,2.9-6.2.3-1.6-11.3.1-14,0,0,.5.3.5.3h0Z"/>
  <path class="cls-4" d="M257.3,840.7c.6,4,.1,8.1-1.3,11.9-.5,1.4-1,2.7-2.2,3.8-1.3,1.3-3.7,1.3-5.1.3-3.8-2.4-4.7-7.6-5.1-11.5,0,0,2.9-.5,2.9-.5.9,3.8.2,11.3-4,13-2.4.8-4.6-1.4-5.6-3-2.2-3.1-3.2-7-2.7-10.7,0,0,.9,0,.9,0,0,3.4,1.3,6.8,3.5,9.4.9,1,1.9,2.3,3.2,1.9,1.1-.6,1.4-2.2,1.8-3.5.5-2.1.5-4.3,0-6.4l2.9-.5c.4,3.1.6,6.1,2.5,8.4.8.9,2.1,2.1,3.3,1.2,1.6-1.3,2.6-4.2,3.3-6.3.7-2.4,1.1-5,1-7.6h.7Z"/>
  <path class="cls-4" d="M253,748.3c3.9,3.5,8.5,8.2,8.2,14.1-.1,7.4-7.4,10.5-13.7,7.6-3.8-1.7-6.4-4.7-8.6-7.5l3-2.7c3.9,3.6,8,8.8,6.1,14.6-1.7,5.1-7.8,7.3-12.6,5.8-4.5-1.3-7.9-5.1-10-8.7,0,0,3.5-1.7,3.5-1.7.4,1.2,1.3,2.4,2.3,3.6,9.3,9.5,3.6,20.4-9.2,13.6-3-1.8-5.4-4.5-6.7-7.7l1.2-.5c2.4,4.9,9.4,9.2,14.7,7.1.9-.5,1.3-1.5,1.3-2.8,0-3-2.2-5-4.2-7.3-1.1-1.3-2.3-2.7-3-4.6l3.5-1.7c2.4,3.6,5.4,6.8,9.7,7,3.9.1,6.9-2.9,5.6-6.9-.7-2.5-2.7-4.7-5-7l3-2.7c2.2,2.7,4.3,5.4,7,6.9,7.2,3.7,11.9-2.7,9.3-9.4-1.2-3.1-3.6-5.8-6-8.4l.7-.7h0Z"/>
  <path class="cls-4" d="M189.9,664.9c3.4,6.2,4.7,13.9,2.7,20.8-.9,2.9-3.7,5.9-7.1,4.8-1.8-.5-3.1-2.1-4.1-3.3-2-2.5-3.5-5.3-4.6-8.3-.7-2-1.1-4.1-1.3-6.2,0,0,3.9-.7,3.9-.7,1.4,6,1.7,12.2,0,18.2-.7,2.2-2.9,4.6-5.6,4.2-5.3-.6-9-11.7-9.5-16.3,0,0,0,0,0,0l3.9-.7c1,5,.9,10.1,0,15-.4,2.1-1.1,5-3.5,5.9-5.4,1.7-10-5-12.1-9-1.8-3.6-2.6-7.6-2.4-11.6,0,0,1.3,0,1.3,0,0,5.6,2.3,11,6.1,15,1.5,1.5,3.8,3.7,6,2.9.4-.2.8-.6,1-1.3.5-1.5.7-3.6.8-5.3.2-3.7,0-7.3-1-10.8,0,0,4-.8,3.9-.7.6,4.4,2.4,8.9,5.2,12.3,1.1,1.3,1.7.2,2.2-1.1,1.4-5.1,1.2-10.7,0-15.8,0,0,3.9-.7,3.9-.7.2,1.8.6,3.6,1,5.4,1,3.3,2.7,7,5.1,9.4,1.1.9,2.2.9,3.3-.3,2.4-2.7,2.5-6.9,2.6-10.4,0-3.8-.9-7.7-2.6-11.2l.9-.5h0Z"/>
  <path class="cls-4" d="M185.6,574c-2.9,3.1-4.9,7-5,11.3,0,.7,0,1.6.8,1.7,1.3,0,2.2-1.4,3.3-2.4,1.6-1.7,3-3.6,3.9-5.7,0,0,2.7,1.4,2.7,1.4-1.7,3.1-3,6.4-4,9.8-.2.5-.3,1.5,0,1.8.9,1,2.4-.4,3.3-1,3-2.4,5.4-5.5,6.9-9.1,0,0,.9.3.9.3-.9,4.1-3.3,7.7-6.3,10.6-1.2,1.1-2.4,2.1-4.3,2.2-2.3.1-3.7-2.2-3.5-4.2.5-4.2,2.2-8.2,4.3-11.8,0,0,2.7,1.4,2.7,1.4-1.8,3.7-4.3,7.1-8,9.1-1.7.9-4.3.3-4.9-1.8-.7-2.8.5-5.6,1.6-8,1.2-2.3,2.9-4.3,4.8-6l.5.6h0Z"/>
  <path class="cls-4" d="M205.9,493.7c-2.4,3-4.2,6.5-5.1,10.2-.3,1.2-.3,2.3.1,3,1,1.5,3.8.9,5-.3,1.7-1.4,2.9-3.8,5.3-5.9l2.6,2.7c-2.3,3-4,6.5-4.6,10.2,0,.5-.1,1,0,1.2,0,.2,0,0,0,0,.8,0,1.4-.3,2.3-.7,3.4-1.6,6.4-4.1,8.7-7.1,0,0,3.4,2.3,3.4,2.3-2.8,4.7-7.1,6.8-8,11.9-.8,5.2,4.3,6.4,8.1,4.2,2.8-1.6,4.9-4.4,7.5-6.5,0,0,.9,1,.9,1-2.4,2.5-4.2,5.5-7.1,7.5-5.9,4-13.5,1.1-12.8-6.6.2-5.4,5.7-9.7,7.9-13.6,0,0,3.4,2.3,3.4,2.3-3.1,4.3-7.5,7.7-12.6,9.3-1.4.4-3.9.2-5-1.4-3-3.9,2-13.6,4.9-16.6,0,0,2.6,2.7,2.6,2.7-1.8,1.2-3.2,3.6-5.7,5.4-1.4,1-3,1.4-4.6,1.4-2.7,0-5.3-2.2-4.9-5,.2-2.2,1.2-4,2.1-5.9,1.2-2.4,2.8-4.6,4.7-6.5,0,0,.8.7.8.7h0Z"/>
  <path class="cls-4" d="M282.5,380.1c3.4,6.7,4,14.8,1.6,21.9-.9,2.8-3.6,6-6.9,4.9-2.5-1-3.4-3.1-4.6-5.1-1.9-3.6-3.2-7.6-3.5-11.8,0,0,3.9-.7,3.9-.7,1.7,5.5,1.8,11.3.3,16.9-.4,1.6-1.4,3.6-3,4.5-5.3,2.7-9.3-3.7-11.6-7.5-1.8-3.4-2.8-7.2-2.8-11.1l3.9-.8c1.7,4.1,2.3,8.6,1.8,13-.4,4.6-2.7,11.8-8.7,9.7-4.3-2-6.1-6.5-7.9-10.6-1.5-4-2.3-8.2-2.1-12.4h1.3c.4,6,2.5,11.8,5.9,16.7,1,1.4,2.3,2.9,3.8,3.5,3.4.9,3.8-4.7,4.1-7.1.3-3.8-.4-7.7-1.9-11.1,0,0,3.9-.8,3.9-.8.1,3.2,1,6.4,2.5,9.3,1.1,2,2.5,4.1,4.2,5.5.5.4,1,.5,1.2.5.2,0,.4,0,.7-.4,1.1-1.8,1.4-4.4,1.6-6.5.3-3.3,0-6.6-1-9.7l3.9-.7c.2,3.6,1,7.2,2.5,10.6.8,1.6,1.7,3.5,2.6,3.8,4,.8,5.6-9.6,5.5-12.5,0-3.8-.6-7.6-2.1-11.1l1-.5h0Z"/>
  <path class="cls-4" d="M211.3,315.5c3.9,2.2,9.3,9.9,6.1,14.2-2.5,2.6-6.3.5-8.7-1.1-2.3-1.7-4.1-3.9-5.2-6.5,0,0,2.3-1.6,2.3-1.6,3.3,2.9,5.6,7.1,5.7,11.6,0,1.6-1.2,3.6-3,3.6-2.1,0-3.7-1.3-5.3-2.5-1.9-1.6-3.3-3.6-4.2-5.8l.8-.4c1.8,3,5,6.1,8.5,6.4,1.8-.5-.1-4.6-.7-5.8-.9-1.9-2.3-3.6-3.8-5l2.3-1.6c1.5,3.5,4.8,6.7,8.6,7.4,2.7-.1,1.3-4.8.6-6.4-.9-2.3-2.5-4.3-4.4-5.8l.4-.6h0Z"/>
  <path class="cls-4" d="M207.7,262.5c4.5,3.7,7.7,9,8.7,14.8,1.1,4.5-.7,10.8-6.6,9.2-5.8-2.2-10.2-7.4-12.3-13.2,0,0,3.6-1.8,3.6-1.8,3.3,4.8,5.2,10.4,5.7,16.2,0,1,0,2.2-.4,3.6-1.7,4.4-7,3.5-10.1,1.4-5.1-2.9-9.1-7.7-11.1-13.3,0,0,3.3-2,3.3-2,2.5,3,4.4,6.5,5.6,10.2.8,2.9,1.6,5.9,1,8.9-1.9,7.1-9.8,3.5-13.5,0-2.8-2.6-4.9-6-5.9-9.7l1.3-.4c1.8,4.9,5.7,9,10.5,10.9,1.5.6,3.1.7,3.8,0,1.8-1.9.2-6.2-.6-8.6-1.2-3.2-2.9-6.2-5.2-8.7l3.3-2c1.2,3.1,3.1,5.9,5.5,8.1,1.5,1.4,3.2,2.6,5,3.5.7.4,2,.7,2.5.6.8-.3.7-1.3.7-2.2-.3-5-2.1-10-4.9-14.2,0,0,3.6-1.8,3.6-1.8,1.1,3.2,2.9,6.3,5.4,8.7,8.4,8.3,8.7-2,6.3-8.3-1.2-3.4-3.3-6.5-6-9.1l.7-.8h0Z"/>
  <g>
    <path class="cls-4" d="M152.5,308c-5.5,21.6-5.1,44.4,0,66.1,0,0-4,0-4,0,1.8-7.9,5.6-15.4,10.9-21.4,5.3-6,12.2-10.6,19.7-13.2,0,0,.5,1.2.5,1.2-13.7,6.4-24.2,19.4-27.1,34.2,0,0-1.8,8.6-1.8,8.6-3.9-13.8-6.7-28.2-5.9-42.6.7-11.4,2.9-22.7,6.6-33.4l1,.3h0Z"/>
    <path class="cls-4" d="M217.3,447.9c-22.3.8-44.1,7.6-63.4,18.6,0,0-1.2-3.9-1.2-3.9,8.1-.5,16.3,1,23.6,4.5,7.2,3.5,13.6,8.7,18.2,15.2,0,0-1,.8-1,.8-10-11.4-25.4-17.8-40.5-16.4,0,0-8.8.7-8.8.7l7.6-4.6c9.8-5.8,20.5-10.4,31.6-13.1,11.2-2.6,22.6-3.5,33.9-3v1.1h0Z"/>
    <path class="cls-4" d="M129.9,573.5c-20.9,7.8-39.4,21.1-54.3,37.6,0,0-2.4-3.3-2.4-3.3,7.5-3.1,15.8-4.2,23.8-3.2,7.9,1,15.6,4,22.1,8.7,0,0-.7,1.1-.7,1.1-13.1-7.7-29.7-8.9-43.6-2.8,0,0-8.1,3.4-8.1,3.4l5.8-6.7c7.5-8.6,16.2-16.3,25.9-22.4,9.8-5.9,20.3-10.5,31.2-13.5,0,0,.3,1,.3,1h0Z"/>
  </g>
  <g>
    <path class="cls-4" d="M152.5,736.4c-5.5,21.6-5.1,44.4,0,66.1,0,0-4,0-4,0,1.8-7.9,5.6-15.4,10.9-21.4,5.3-6,12.2-10.6,19.7-13.2,0,0,.5,1.2.5,1.2-13.7,6.4-24.2,19.4-27.1,34.2,0,0-1.8,8.6-1.8,8.6-3.9-13.8-6.7-28.2-5.9-42.6.7-11.4,2.9-22.7,6.6-33.4,0,0,1,.3,1,.3h0Z"/>
    <path class="cls-4" d="M217.3,876.3c-22.3.8-44.1,7.6-63.4,18.6,0,0-1.2-3.9-1.2-3.9,8.1-.5,16.3,1,23.6,4.5,7.2,3.5,13.6,8.7,18.2,15.2,0,0-1,.8-1,.8-10-11.4-25.4-17.8-40.5-16.4,0,0-8.8.7-8.8.7l7.6-4.6c9.8-5.8,20.5-10.4,31.6-13.1,11.2-2.6,22.6-3.5,33.9-3v1.1h0Z"/>
    <path class="cls-4" d="M129.9,1001.9c-20.9,7.8-39.4,21.1-54.3,37.6,0,0-2.4-3.3-2.4-3.3,7.5-3.1,15.8-4.2,23.8-3.2,7.9,1,15.6,4,22.1,8.7,0,0-.7,1.1-.7,1.1-13.1-7.7-29.7-8.9-43.6-2.8,0,0-8.1,3.4-8.1,3.4l5.8-6.7c7.5-8.6,16.2-16.3,25.9-22.4,9.8-5.9,20.3-10.5,31.2-13.5l.3,1h0Z"/>
  </g>
  <g>
    <path class="cls-4" d="M152.5,1167c-5.5,21.6-5.1,44.4,0,66.1,0,0-4,0-4,0,1.8-7.9,5.6-15.4,10.9-21.4,5.3-6,12.2-10.6,19.7-13.2,0,0,.5,1.2.5,1.2-13.7,6.4-24.2,19.4-27.1,34.2,0,0-1.8,8.6-1.8,8.6-3.9-13.8-6.7-28.2-5.9-42.6.7-11.4,2.9-22.7,6.6-33.4l1,.3h0Z"/>
    <path class="cls-4" d="M217.3,1306.9c-22.3.8-44.1,7.6-63.4,18.6,0,0-1.2-3.9-1.2-3.9,8.1-.5,16.3,1,23.6,4.5,7.2,3.5,13.6,8.7,18.2,15.2,0,0-1,.8-1,.8-10-11.4-25.4-17.8-40.5-16.4,0,0-8.8.7-8.8.7l7.6-4.6c9.8-5.8,20.5-10.4,31.6-13.1,11.2-2.6,22.6-3.5,33.9-3v1.1h0Z"/>
    <path class="cls-4" d="M129.9,1432.5c-20.9,7.8-39.4,21.1-54.3,37.6,0,0-2.4-3.3-2.4-3.3,7.5-3.1,15.8-4.2,23.8-3.2,7.9,1,15.6,4,22.1,8.7,0,0-.7,1.1-.7,1.1-13.1-7.7-29.7-8.9-43.6-2.8,0,0-8.1,3.4-8.1,3.4l5.8-6.7c7.5-8.6,16.2-16.3,25.9-22.4,9.8-5.9,20.3-10.5,31.2-13.5,0,0,.3,1,.3,1h0Z"/>
  </g>
  <path class="cls-4" d="M225.8,59.7c1,1.6,3.6,5.5,4.6,7,3,4.8,5.1,10.3,6.9,15.6-2.4-1.7-5.1-3.6-7.7-5-1.8-.9-3.7-1.7-5.6-2.4l.2-.6c4.2.7,8.2,2.3,11.7,4.6,0,0-1.5,1.2-1.5,1.2-1.2-3-2.9-7.2-4.4-10.1-.5-1.3-1.7-3.8-2.3-5,0,0-2.4-5-2.4-5l.5-.3h0Z"/>
  <path class="cls-4" d="M219,80.7c.4,1.2,1.4,4.3,1.7,5.5,1.1,3.8,1.5,7.8,1.7,11.7-2.1-2.8-4.6-5.4-7.4-7.4,0,0,.2-.4.2-.4,2.6,1.2,4.9,3,6.9,5.2l-1.2.5c-.3-3.1-.8-6.3-1.2-9.4-.2-1.2-.8-4.4-1-5.6,0,0,.3,0,.3,0h0Z"/>
  <path class="cls-3" d="M83.3,167.9c0,.6-.3,2.1.5,3.8.7,1.5,1.7,2.3,2.2,2.7"/>
  <path class="cls-4" d="M113.1,212.6c-4.3.2-8.2,3.3-12.7,2.3-.9-.2-1.9-.8-2.4-1.7-1.1-2,.3-4.3-.4-6.1-.2-.2-.2-.2-.6-.3-2.1-.1-4.4,1.1-6.7.2-5-2.3-2.2-9.9-1.3-13.7,1.5-5.4,3.6-10.8,5.4-16.1.8-2.4,1.3-5.3-2.2-5.4,0,0,0-1,0-1,8.1-.4,2.7,11,1.9,15.2-1.1,4-2.2,8.1-3,12.2-.3,1.8-.7,3.7-.2,5.3.4.8,1,.8,2,.8,1.5-.1,2.8-.6,4.6-.4,2.5.2,3.6,2.8,3.1,4.8-.2,1.2-.7,2.5-.4,3.5.1.4.5.6.9.8,3.2,1,6.7-.8,10-1,.8,0,1.4-.2,2.3,0,0,0-.2.8-.2.8h0Z"/>
</svg>